<svg width="112" height="167" viewBox="0 0 112 167" fill="none" xmlns="http://www.w3.org/2000/svg">
<path d="M59.6471 148.194C60.2321 151.977 61.8051 165.549 69.7611 165.419C72.5431 165.367 74.1811 163.911 75.0911 161.792C76.8201 157.84 76.0791 151.613 75.6891 147.999L61.8961 142.825C61.8961 142.825 61.5191 143.033 61.0771 143.475C60.2971 144.267 59.2701 145.776 59.6471 148.194Z" fill="#F15A24"/>
<path d="M59.6471 148.194C60.2321 151.977 61.8051 165.549 69.7611 165.419C72.5431 165.367 74.1811 163.911 75.0911 161.792C75.0911 161.792 70.6061 165.315 67.3691 160.128C64.1451 154.94 61.8181 143.397 61.8181 143.397C61.8181 143.397 61.5191 143.423 61.0771 143.475C60.2971 144.267 59.2701 145.776 59.6471 148.194Z" fill="#F15A24"/>
<path d="M62.0658 144.046C61.9995 144.098 61.9228 144.178 61.8578 144.241C61.1805 144.917 60.4408 146.113 60.7268 148.026C60.7515 148.234 60.7918 148.455 60.8308 148.713C61.4678 152.99 63.1448 164.328 69.6578 164.328H69.7488C71.8535 164.287 73.2458 163.353 74.1038 161.351C75.6118 157.891 75.0658 152.288 74.6888 148.765L62.0658 144.046ZM69.6448 166.51C61.2728 166.51 59.3865 153.835 58.6728 149.038C58.6325 148.791 58.6078 148.559 58.5688 148.362C58.1138 145.413 59.4658 143.552 60.3095 142.709C60.8438 142.176 61.3118 141.903 61.3638 141.875C61.6368 141.719 61.9748 141.693 62.2738 141.81L76.0668 146.986C76.4555 147.127 76.7168 147.48 76.7688 147.881L76.8078 148.245C77.1978 151.95 77.8595 158.138 76.0785 162.22C74.8825 164.978 72.6998 166.445 69.7618 166.499C69.7345 166.51 69.6825 166.51 69.6448 166.51Z" fill="#F15A24"/>
<path d="M61.1158 145.242C60.7648 145.92 60.5451 146.841 60.7258 148.026C60.7518 148.234 60.7908 148.455 60.8298 148.713C61.4681 152.99 63.1451 164.328 69.6568 164.328H69.7491C70.3848 164.313 70.9568 164.224 71.4638 164.04C71.2428 164.027 71.0088 164.003 70.7878 163.962C69.0718 163.663 67.6158 162.558 66.4588 160.701C63.8718 156.552 61.8828 148.663 61.1158 145.242ZM69.6451 166.51C61.2718 166.51 59.3868 153.835 58.6718 149.038C58.6328 148.791 58.6068 148.559 58.5678 148.362C58.1128 145.413 59.4648 143.552 60.3098 142.709C60.4788 142.538 60.7128 142.421 60.9468 142.397C61.4148 142.345 61.7138 142.317 61.7138 142.317C62.2598 142.265 62.7681 142.642 62.8838 143.188C62.9098 143.307 65.2108 154.602 68.2931 159.557C69.1108 160.87 70.0598 161.635 71.1388 161.817C72.8431 162.129 74.4018 160.933 74.4278 160.922C74.8178 160.621 75.3768 160.621 75.7681 160.922C76.1568 161.219 76.2998 161.752 76.0931 162.209C74.8971 164.963 72.7118 166.434 69.7738 166.486C69.7348 166.51 69.6828 166.51 69.6451 166.51Z" fill="#F15A24"/>
<path d="M44.2294 116.513C44.5674 118.359 44.9704 119.62 44.9704 119.62L45.8544 127.251L61.8964 129.214C61.9354 125.977 61.0644 122.337 59.6474 118.45C59.6474 118.45 67.8634 119.815 67.6684 128.044C67.5384 133.647 64.4054 138.886 62.4164 141.655C61.4544 142.994 61.6624 144.853 62.8974 145.932C65.3544 148.09 69.8784 150.665 75.6894 148.012L77.3794 146.036L82.5404 139.992C82.5404 139.992 81.7734 126.523 71.7764 115.72C61.7664 104.917 55.0714 100.159 48.2854 102.993C43.0074 105.19 43.4494 112.34 44.2294 116.513Z" fill="#F15A24"/>
<mask id="mask0_93_864" style="mask-type:luminance" maskUnits="userSpaceOnUse" x="43" y="102" width="40" height="45">
<path d="M43.7612 102.189H82.5532V146.036H43.7612V102.189Z" fill="white"/>
</mask>
<g mask="url(#mask0_93_864)">
<g opacity="0.199997">
<path d="M44.229 116.513C45.074 114.576 46.348 112.847 48.298 112.275C53.524 110.728 59.205 117.579 59.205 117.579C71.022 121.401 67.2507 131.359 71.789 136.364C74.844 139.744 76.586 143.774 77.392 146.036L82.553 139.991C82.553 139.991 81.786 126.523 71.789 115.72C61.779 104.917 55.084 100.159 48.298 102.993C43.007 105.19 43.449 112.34 44.229 116.513Z" fill="#F15A24"/>
</g>
</g>
<path d="M59.647 117.358C59.712 117.358 59.764 117.358 59.829 117.371C62.988 117.904 68.929 120.816 68.76 128.057C68.617 133.998 65.289 139.511 63.313 142.279C62.676 143.176 62.806 144.386 63.625 145.113C66.056 147.245 70.008 149.299 75.039 147.115L81.435 139.627C81.201 137.3 79.628 125.769 70.996 116.461C60.271 104.878 54.434 101.615 48.727 104.007C42.11 106.776 45.971 119.191 46.023 119.308C46.049 119.373 46.062 119.438 46.062 119.516L46.855 126.302L60.804 128.005C60.6493 125.405 59.946 122.389 58.646 118.84C58.516 118.476 58.581 118.073 58.828 117.774C59.0243 117.501 59.335 117.358 59.647 117.358ZM70.801 150.209C66.901 150.209 63.8993 148.233 62.195 146.738C60.531 145.282 60.245 142.813 61.545 141.005C63.378 138.444 66.459 133.361 66.589 128.005C66.706 123.143 63.521 120.998 61.363 120.101C62.481 123.585 63.014 126.588 62.988 129.214C62.988 129.526 62.845 129.813 62.611 130.02C62.377 130.228 62.065 130.319 61.766 130.28L45.724 128.317C45.23 128.252 44.827 127.863 44.775 127.368L43.904 119.841C43.475 118.437 39.705 105.385 47.882 101.979C55.526 98.7937 62.728 104.332 72.582 114.966C82.735 125.925 83.606 139.354 83.632 139.913C83.645 140.186 83.554 140.472 83.372 140.68L76.521 148.701C76.417 148.818 76.287 148.922 76.144 148.988C74.233 149.871 72.426 150.209 70.801 150.209Z" fill="#F15A24"/>
<path d="M58.6721 118.931L56.5401 113.146C56.3711 112.691 57.0081 112.379 57.2681 112.782L60.6091 117.956C60.9341 118.463 60.7911 119.139 60.2841 119.464C59.7251 119.854 58.9061 119.581 58.6721 118.931Z" fill="#F15A24"/>
<path d="M43.6312 134.037C44.1512 136.285 46.9072 140.367 53.5112 141.148C60.1152 141.927 62.0262 139.588 63.1572 137.365C63.4952 136.702 63.6512 135.908 63.6382 135.05C63.5732 131.371 60.2712 126.483 53.3162 125.665C49.2732 125.183 46.6342 126.562 45.1262 128.446C43.6962 130.227 43.2672 132.477 43.6312 134.037Z" fill="#F15A24"/>
<path d="M43.6312 134.037C44.1512 136.285 46.9072 140.367 53.5112 141.148C60.1152 141.927 62.0262 139.588 63.1572 137.365C63.4952 136.702 63.6512 135.908 63.6382 135.05C63.5602 134.869 60.8029 129.031 51.4182 128.069C49.1302 127.835 46.7772 128.265 45.1262 128.433C43.6962 130.227 43.2672 132.477 43.6312 134.037Z" fill="#F15A24"/>
<path d="M51.7561 126.64C48.8441 126.64 47.1281 127.81 46.1921 128.863C44.7491 130.475 44.4111 132.542 44.6971 133.777C45.1261 135.636 47.5571 139.328 53.6411 140.056C59.6601 140.771 61.2071 138.782 62.1951 136.858C62.8191 135.623 62.6241 133.686 61.7011 131.944C60.1671 129.084 57.0731 127.173 53.2121 126.718C52.6791 126.679 52.2111 126.64 51.7561 126.64ZM55.9421 142.396C55.1621 142.396 54.3171 142.344 53.3941 142.24C46.1271 141.382 43.1761 136.845 42.5911 134.297C42.1621 132.463 42.6171 129.63 44.5801 127.433C46.0101 125.821 48.7271 124.027 53.4591 124.586C58.0351 125.119 61.7401 127.446 63.6121 130.943C64.8861 133.335 65.0941 135.987 64.1321 137.872C62.9621 140.147 61.0641 142.396 55.9421 142.396Z" fill="#F15A24"/>
<path d="M50.053 132.152C49.195 132.152 48.376 132.243 47.635 132.413C46.088 132.776 45.074 133.491 44.853 134.388C44.632 135.286 45.204 136.39 46.4 137.43C47.752 138.588 49.702 139.523 51.899 140.056C54.096 140.589 56.267 140.667 57.996 140.264C59.543 139.9 60.557 139.186 60.778 138.288C60.999 137.391 60.4257 136.286 59.231 135.246C57.879 134.089 55.929 133.153 53.732 132.62C52.471 132.309 51.223 132.152 50.053 132.152ZM55.604 141.889C54.33 141.889 52.965 141.72 51.6 141.382C49.195 140.797 47.037 139.757 45.529 138.457C43.904 137.053 43.189 135.493 43.54 134.063C43.891 132.634 45.23 131.567 47.336 131.086C49.273 130.631 51.665 130.709 54.07 131.294C56.475 131.879 58.633 132.919 60.141 134.219C61.766 135.623 62.481 137.184 62.13 138.613C61.779 140.043 60.44 141.109 58.334 141.59C57.489 141.798 56.566 141.889 55.604 141.889Z" fill="#F15A24"/>
<path d="M44.2938 133.881C44.7488 135.831 47.2838 139.717 53.5888 140.471C59.5818 141.187 61.4408 139.25 62.5471 137.052C62.8058 136.533 62.9488 135.896 62.9618 135.207C62.4938 134.336 59.5818 129.577 51.3528 128.746C50.4298 128.654 49.4158 128.654 48.1808 128.771C46.9978 128.875 45.8928 129.461 45.1388 130.371C44.4238 131.242 44.0988 132.321 44.2158 133.425C44.2288 133.582 44.2548 133.738 44.2938 133.881ZM55.9158 141.979C55.1618 141.979 54.3298 141.927 53.4328 141.823C46.3738 140.992 43.5008 136.467 42.9808 134.192C42.9288 133.998 42.9028 133.777 42.8768 133.569C42.7208 132.113 43.1498 130.669 44.0988 129.513C45.0738 128.317 46.5298 127.55 48.0638 127.419C49.3898 127.302 50.4818 127.29 51.4958 127.394C60.9468 128.356 63.9498 134.102 64.2618 134.752C64.3008 134.842 64.3268 134.946 64.3268 135.05C64.3398 136.013 64.1578 136.936 63.7678 137.677C62.6628 139.848 60.8428 141.979 55.9158 141.979Z" fill="#F15A24"/>
<path d="M44.2812 136.338C43.9562 136.338 43.6702 136.104 43.6052 135.766C43.5402 135.402 43.8002 135.051 44.1642 134.986L57.6452 132.763C58.0222 132.698 58.3602 132.958 58.4239 133.322C58.4902 133.686 58.2302 134.037 57.8662 134.102L44.3852 136.325C44.3592 136.338 44.3202 136.338 44.2812 136.338Z" fill="#F15A24"/>
<path d="M47.5312 139.731C47.2192 139.731 46.9332 139.51 46.8682 139.185C46.7902 138.821 47.0372 138.457 47.4012 138.379L60.9472 135.675C61.3112 135.596 61.6739 135.844 61.7532 136.208C61.8312 136.571 61.5842 136.936 61.2202 137.013L47.6742 139.717C47.6092 139.717 47.5702 139.731 47.5312 139.731Z" fill="#F15A24"/>
<path d="M30.1886 116.578C30.8386 119.061 31.7746 120.751 33.0356 120.985C35.1676 121.375 37.4816 121.037 39.4836 120.504C39.4966 120.504 39.5096 120.491 39.5226 120.491C42.4866 119.685 44.7616 118.437 44.7616 118.437C44.7616 118.437 44.0076 115.005 44.4626 111.612C44.8786 108.583 46.2696 105.58 50.0526 105.125C51.8986 104.904 53.8876 105.203 55.9026 105.892C62.6496 108.219 69.7736 114.953 73.5449 121.141C76.2866 125.652 77.1836 129.344 78.3406 132.659C79.2506 135.259 80.3179 137.625 82.5526 139.952L75.7016 147.973C75.7016 147.973 81.3449 152.68 90.4566 150.236C90.4696 150.236 90.4696 150.236 90.4826 150.222C93.1086 149.507 96.0336 148.207 99.1926 146.011C99.1926 146.011 89.5986 135.441 89.7949 122.714C89.9886 109.987 86.8556 96.4796 84.3076 92.1766C84.3076 92.1766 100.701 79.9566 107.227 67.8276C107.812 66.7486 108.189 65.5916 108.358 64.4086C108.618 62.6016 108.41 60.7296 107.722 58.9876C105.576 53.5796 100.793 44.3756 91.5616 38.7856C91.5616 38.7856 88.4806 50.3166 75.4949 59.5986C73.0756 61.3276 70.3196 62.9786 67.1866 64.4476C67.0176 64.5256 66.8356 64.6166 66.6679 64.6946C66.2116 64.9026 65.7566 65.1106 65.2886 65.3056C65.1326 65.3706 64.9766 65.4356 64.8219 65.5006C64.1316 65.7866 63.4179 66.0726 62.6886 66.3456C62.5066 66.4106 62.3246 66.4756 62.1426 66.5536C61.7929 66.6836 61.4276 66.8136 61.0636 66.9306C60.8699 66.9956 60.6606 67.0606 60.4656 67.1386C60.2836 67.2036 60.1159 67.2556 59.9326 67.3206C59.7909 67.3726 59.6466 67.4246 59.5036 67.4766C59.3866 67.5156 59.2696 67.5676 59.1526 67.6066C58.9719 67.6846 58.7756 67.7496 58.5949 67.8276C58.4246 67.8926 58.2426 67.9706 58.0736 68.0486C58.0086 68.0746 57.9566 68.1006 57.8916 68.1266C57.7096 68.2046 57.5276 68.2826 57.3586 68.3736C57.1506 68.4646 56.9556 68.5686 56.7476 68.6726C56.3446 68.8676 55.9416 69.0886 55.5386 69.3096C55.3436 69.4136 55.1356 69.5306 54.9406 69.6476C54.5506 69.8686 54.1606 70.1156 53.7836 70.3626C53.7706 70.3756 53.7576 70.3756 53.7446 70.3886C53.5626 70.5056 53.3806 70.6356 53.1856 70.7526C52.9906 70.8826 52.8086 71.0126 52.6136 71.1426C52.6006 71.1426 52.6006 71.1556 52.5876 71.1556C52.4056 71.2856 52.2366 71.4156 52.0546 71.5456C51.8856 71.6626 51.7166 71.7926 51.5606 71.9226C51.3656 72.0786 51.1576 72.2346 50.9626 72.4036C50.6116 72.6896 50.2606 72.9886 49.9096 73.3006C49.8836 73.3136 49.8706 73.3396 49.8446 73.3526C49.6756 73.4956 49.5196 73.6516 49.3636 73.7946C49.1946 73.9506 49.0256 74.1066 48.8696 74.2626L48.8436 74.2886C48.6876 74.4446 48.5316 74.6006 48.3756 74.7566C48.1546 74.9776 47.9336 75.2116 47.7126 75.4456C47.4656 75.7186 47.2186 75.9916 46.9716 76.2646C46.8806 76.3686 46.7896 76.4726 46.6986 76.5896C46.1916 77.1876 45.6976 77.8246 45.2166 78.4746C45.1126 78.6176 44.9956 78.7736 44.8916 78.9296C44.7876 79.0856 44.6706 79.2416 44.5666 79.3976C44.3456 79.7096 44.1376 80.0346 43.9426 80.3596C43.8646 80.4766 43.7866 80.5936 43.7216 80.7236C43.6696 80.8146 43.6046 80.9186 43.5526 81.0096C43.5136 81.0746 43.4746 81.1266 43.4486 81.1916C41.2646 84.8966 39.6786 89.1736 38.9246 93.9576C38.9246 93.9576 35.4926 88.9656 32.0736 91.0196C29.0706 92.8266 28.1346 108.687 30.1886 116.578Z" fill="black"/>
<mask id="mask1_93_864" style="mask-type:luminance" maskUnits="userSpaceOnUse" x="40" y="45" width="68" height="106">
<path d="M40.7192 45.5458H107.972V150.951H40.7192V45.5458Z" fill="white"/>
</mask>
<g mask="url(#mask1_93_864)">
<g opacity="0.199997">
<path d="M58.7242 102.174C64.6262 100.341 64.8732 95.1931 66.1732 94.4521C69.4492 92.5931 73.5182 92.9441 75.6632 96.0381C76.5082 97.2471 77.7172 98.2351 79.4722 98.4951C81.1102 98.7421 82.4882 99.8731 83.0212 101.433C83.9702 104.189 85.0492 109.129 85.0492 117.293C85.0622 131.658 94.4612 142.694 94.6822 142.955C94.5392 142.903 90.7172 144.696 86.4662 139.965C84.1912 137.417 81.2662 134.999 78.3672 132.671C79.2772 135.271 80.3432 137.638 82.5792 139.965L75.7282 147.986C75.7282 147.986 81.3702 152.692 90.4832 150.248C90.4962 150.248 90.4962 150.248 90.5092 150.235C93.0052 149.494 95.7482 148.219 98.6992 146.165C98.6992 146.165 89.1052 135.596 89.3002 122.87C89.4952 110.143 86.3622 96.6361 83.8142 92.3331C83.8142 92.3331 100.207 80.1131 106.733 67.9841C107.318 66.9051 107.695 65.7481 107.864 64.5651C108.124 62.7581 107.916 60.8861 107.227 59.1441C105.81 55.5561 103.223 50.3041 98.9592 45.5461C96.4112 47.0021 94.6692 48.1461 94.6692 48.1461C94.6692 48.1461 95.9822 51.6691 96.2162 56.2451C96.5932 63.4211 86.7522 65.7741 83.8142 59.2221L75.4942 59.6121C73.0762 61.3411 70.3202 62.9921 67.1872 64.4611C67.0182 64.5391 66.8362 64.6301 66.6672 64.7081C66.2122 64.9161 65.7572 65.1241 65.2892 65.3191C65.1332 65.3841 64.9772 65.4491 64.8212 65.5141C64.1322 65.8001 63.4172 66.0861 62.6892 66.3591C62.5072 66.4241 62.3252 66.4891 62.1432 66.5671C61.7922 66.6971 61.4282 66.8271 61.0642 66.9441C60.8692 67.0091 60.6612 67.0741 60.4662 67.1521C60.2842 67.2171 60.1152 67.2691 59.9332 67.3341C59.7902 67.3861 59.6472 67.4381 59.5042 67.4901C59.3872 67.5291 59.2702 67.5811 59.1532 67.6201C58.9712 67.6981 58.7762 67.7631 58.5942 67.8411C58.4252 67.9061 58.2432 67.9841 58.0742 68.0621C58.0092 68.0881 57.9572 68.1141 57.8922 68.1401C57.7102 68.2181 57.5282 68.2961 57.3592 68.3871C57.1512 68.4781 56.9562 68.5821 56.7482 68.6861C56.3452 68.8811 55.9422 69.1021 55.5392 69.3231C55.3442 69.4271 55.1362 69.5441 54.9412 69.6611C54.5512 69.8951 54.1612 70.1291 53.7842 70.3761C53.7712 70.3891 53.7582 70.3891 53.7452 70.4021C53.5632 70.5191 53.3812 70.6491 53.1862 70.7661C52.9912 70.8961 52.8092 71.0261 52.6142 71.1561C52.6012 71.1561 52.6012 71.1691 52.5882 71.1691C52.4062 71.2991 52.2372 71.4291 52.0552 71.5591C51.8862 71.6761 51.7172 71.8061 51.5612 71.9361C51.3662 72.0921 51.1582 72.2481 50.9632 72.4171C50.6122 72.7031 50.2612 73.0021 49.9102 73.3141C49.8842 73.3271 49.8712 73.3531 49.8452 73.3661C49.6762 73.5091 49.5202 73.6651 49.3642 73.8081C49.1952 73.9641 49.0262 74.1201 48.8702 74.2761L48.8442 74.3021C48.6882 74.4581 48.5322 74.6141 48.3762 74.7701C48.1552 74.9911 47.9342 75.2251 47.7132 75.4591C47.4662 75.7321 47.2192 76.0051 46.9722 76.2781C46.8812 76.3821 46.7902 76.4861 46.6992 76.6031C46.1922 77.2011 45.6982 77.8381 45.2172 78.4881C45.1132 78.6311 44.9962 78.7871 44.8922 78.9431C44.7882 79.0991 44.6712 79.2551 44.5672 79.4111C44.3462 79.7231 44.1382 80.0481 43.9432 80.3731C43.8652 80.4901 43.7872 80.6071 43.7222 80.7371C43.6702 80.8281 43.6052 80.9321 43.5532 81.0231C43.5142 81.0881 43.4752 81.1401 43.4492 81.2051C43.0072 87.4451 40.7192 94.1141 40.7192 94.1141C46.7902 100.536 52.9912 103.955 58.7242 102.174Z" fill="black"/>
</g>
</g>
<mask id="mask2_93_864" style="mask-type:luminance" maskUnits="userSpaceOnUse" x="29" y="104" width="27" height="18">
<path d="M29.604 104.364H55.929V121.314H29.604V104.364Z" fill="white"/>
</mask>
<g mask="url(#mask2_93_864)">
<g opacity="0.199997">
<path d="M29.604 116.422C30.254 119.061 31.216 120.894 32.529 121.141C34.843 121.57 37.378 121.141 39.497 120.517C39.51 120.517 39.523 120.504 39.536 120.504C42.24 119.711 44.268 118.593 44.268 118.593C44.268 118.593 43.306 114.771 44.489 111.625C44.905 108.596 46.296 105.593 50.079 105.138C51.925 104.917 53.914 105.216 55.929 105.905C54.109 104.722 52.003 104.176 49.351 104.423C44.112 104.93 41.811 108.882 40.81 112.002C39.77 115.239 36.624 117.358 33.231 117.098C32.308 117.033 31.294 116.864 30.202 116.578C29.994 116.539 29.799 116.474 29.604 116.422Z" fill="#F15A24"/>
</g>
</g>
<path d="M77.3139 147.778C78.3162 148.363 80.0829 149.234 82.4619 149.638C87.2849 150.457 92.3549 149.169 97.5679 145.815C95.2019 142.89 88.5329 133.661 88.7019 122.727C88.8969 110.078 85.7249 96.7526 83.3719 92.7616C83.0859 92.2806 83.2159 91.6696 83.6579 91.3316C83.8139 91.2146 99.9339 79.1116 106.278 67.3336C106.798 66.3716 107.136 65.3446 107.279 64.2656C107.279 64.2396 107.293 64.2266 107.293 64.2006C107.513 62.5886 107.318 60.9246 106.707 59.3906C104.809 54.6196 100.454 46.0006 92.1469 40.4496C91.4319 42.3736 89.7952 46.1176 86.5452 50.3946C82.2929 55.9976 74.3759 63.6416 60.7662 68.1786C49.8839 71.8056 41.9149 81.7506 39.9649 94.1266C39.8999 94.5686 39.5619 94.9196 39.1329 95.0236C38.7039 95.1276 38.2489 94.9456 38.0019 94.5816C37.9759 94.5426 35.1159 90.4606 32.6069 91.9686C30.7739 93.0606 29.2009 105.398 30.8519 114.511C31.5409 118.294 32.5549 119.789 33.2309 119.906C37.1049 120.621 41.7979 118.658 43.5399 117.826C43.2019 115.733 42.6169 110.286 45.0349 106.867C46.1789 105.242 47.8299 104.293 49.9229 104.033C58.2559 103.019 69.1499 111.833 74.4682 120.569C76.7432 124.3 77.7819 127.511 78.7049 130.332C79.7839 133.621 80.7069 136.468 83.3199 139.186C83.7099 139.588 83.7229 140.225 83.3589 140.641L77.3139 147.778ZM85.2309 152.042C84.0089 152.042 82.9182 151.925 81.9679 151.757C77.6259 150.976 75.1039 148.922 74.9999 148.832C74.7789 148.649 74.6359 148.376 74.6099 148.09C74.5839 147.805 74.6749 147.518 74.8699 147.297L81.0969 140.005C78.6282 137.144 77.6662 134.18 76.6379 131.047C75.7539 128.33 74.7529 125.262 72.6079 121.739C67.6159 113.536 57.4239 105.346 50.1829 106.23C48.7009 106.412 47.5959 107.036 46.8029 108.154C44.3849 111.573 45.8019 118.164 45.8149 118.229C45.9189 118.697 45.6979 119.191 45.2689 119.412C44.9959 119.568 38.4179 123.104 32.8149 122.077C30.8389 121.713 29.4999 119.373 28.6939 114.927C27.2379 106.88 27.9269 92.2676 31.4759 90.1356C33.9719 88.6406 36.4809 89.9276 38.2359 91.5786C40.8749 79.4496 49.0909 69.8166 60.0759 66.1506C73.1019 61.8086 80.6809 54.5416 84.7369 49.1986C89.1452 43.4136 90.4829 38.5776 90.4972 38.5386C90.5999 38.1746 90.8859 37.8756 91.2499 37.7716C91.5099 37.6936 91.7699 37.7196 92.0039 37.8366C92.0429 37.8496 92.0702 37.8756 92.1079 37.8886C101.716 43.7126 106.643 53.3846 108.722 58.6236C109.476 60.5216 109.724 62.5886 109.424 64.6036C109.424 64.6296 109.411 64.6426 109.411 64.6686C109.216 65.9816 108.8 67.2296 108.176 68.3996C102.326 79.2546 89.0269 89.9666 85.6859 92.5406C88.3639 97.9616 91.0432 111.066 90.8599 122.792C90.6779 134.921 99.8819 145.23 99.9742 145.334C100.181 145.568 100.285 145.88 100.247 146.192C100.207 146.505 100.038 146.777 99.7909 146.959C94.0579 150.924 89.0412 152.042 85.2309 152.042Z" fill="black"/>
<path d="M32.8666 92.7618C32.7106 92.8008 31.8916 93.5678 31.1766 96.5058C30.5396 99.1188 30.1756 102.551 30.1756 106.178C30.1756 109.805 30.5266 113.237 31.1766 115.85C31.8916 118.775 32.7106 119.542 32.8926 119.594C33.0486 119.555 33.8676 118.788 34.5826 115.85C35.2196 113.237 35.5836 109.805 35.5836 106.178C35.5836 102.551 35.2326 99.1188 34.5826 96.5058C33.8676 93.5678 33.0486 92.8008 32.8666 92.7618ZM32.8796 121.752C29.0316 121.752 28.0046 111.963 28.0046 106.165C28.0046 100.38 29.0316 90.5778 32.8796 90.5778C36.7276 90.5778 37.7546 100.367 37.7546 106.165C37.7546 111.95 36.7276 121.752 32.8796 121.752Z" fill="#F15A24"/>
<path d="M32.8802 91.6699C34.9758 91.6699 36.6762 98.1595 36.6762 106.165C36.6762 114.17 34.9758 120.66 32.8802 120.66C30.7833 120.66 29.0842 114.17 29.0842 106.165C29.0842 98.1595 30.7833 91.6699 32.8802 91.6699Z" fill="#F15A24"/>
<path d="M43.7998 118.97C40.4198 112.301 40.1468 104.085 47.8168 100.445L47.2058 101.342L48.4798 91.644C48.5838 90.916 49.6628 90.994 49.6498 91.735L49.3638 101.524C49.3508 101.94 49.0908 102.239 48.7528 102.421C48.0898 102.772 47.4268 103.123 46.8548 103.591C42.2918 106.958 43.4358 113.51 45.6978 117.956C46.3868 119.204 44.5278 120.231 43.7998 118.97Z" fill="black"/>
<path d="M47.9606 100.38C49.0396 100.081 50.3136 100.094 51.4316 100.146C51.6656 100.172 52.6016 100.276 52.7966 100.315C52.9526 100.354 53.4336 100.445 53.6026 100.484C53.9146 100.549 54.3696 100.627 54.6556 100.731C56.7226 101.29 58.7246 102.174 60.5706 103.201L62.3906 104.293C63.2616 104.878 64.1196 105.502 64.9763 106.113C65.5106 106.542 66.8626 107.66 67.4073 108.115C67.9286 108.583 68.4226 109.064 68.9426 109.545C69.8786 110.39 71.0226 111.586 71.8806 112.509C72.2706 112.938 72.9323 113.588 73.2846 114.043L75.9496 117.228C76.1576 117.475 76.1186 117.826 75.8703 118.034C75.6246 118.242 75.2606 118.203 75.0513 117.956L72.3356 114.901C71.9703 114.472 71.3073 113.861 70.9056 113.445C70.0346 112.561 68.8906 111.43 67.9533 110.637C67.4476 110.195 66.9406 109.727 66.4206 109.298L64.8073 108.063C64.3406 107.686 63.6646 107.205 63.1706 106.88C60.4536 105.021 57.3856 103.448 54.1876 102.681C53.9146 102.603 53.5116 102.538 53.2256 102.486C52.9656 102.447 52.5236 102.356 52.2636 102.343L51.3016 102.252H50.3526C49.7546 102.291 49.1306 102.33 48.5456 102.499C47.1546 102.85 46.5696 100.809 47.9606 100.38Z" fill="black"/>
<path d="M39.7573 93.295L43.9433 99.405C44.3073 99.951 43.5533 100.562 43.0983 100.081L38.0673 94.647C37.6643 94.205 37.6903 93.516 38.1323 93.1C38.5873 92.658 39.3803 92.749 39.7573 93.295Z" fill="black"/>
<path d="M75.7019 147.998C75.7019 147.998 85.1009 155.826 99.1929 146.035C87.4539 145.45 82.5542 139.964 82.5542 139.964L75.7019 147.998Z" fill="black"/>
<path d="M77.3135 147.777C78.3158 148.375 80.0825 149.233 82.4615 149.638C86.7658 150.377 91.2638 149.43 95.8905 146.83C88.5598 145.84 84.3465 142.982 82.6448 141.537L77.3135 147.777ZM85.2305 152.041C84.0098 152.041 82.9178 151.926 81.9675 151.757C77.6255 150.975 75.1035 148.921 74.9995 148.832C74.7785 148.648 74.6368 148.375 74.6095 148.089C74.5848 147.805 74.6745 147.517 74.8695 147.296L81.7218 139.275C81.9285 139.041 82.2288 138.898 82.5408 138.898H82.5538C82.8658 138.898 83.1635 139.03 83.3598 139.262C83.3988 139.314 88.1555 144.41 99.2445 144.969C99.7138 144.995 100.104 145.309 100.232 145.762C100.364 146.204 100.195 146.685 99.8035 146.958C94.0575 150.923 89.0408 152.041 85.2305 152.041Z" fill="black"/>
<path d="M43.7615 92.6057C45.6855 95.0887 56.1895 97.2987 64.4185 91.6697C72.6345 86.0407 83.9965 87.2497 83.9965 87.2497C81.4615 76.6807 73.1675 69.2447 73.1675 69.2447L70.5285 69.9467L50.3265 75.2767L47.1155 76.1217C47.8175 87.3147 43.7615 92.6057 43.7615 92.6057Z" fill="black"/>
<path d="M48.415 90.2659C48.415 90.2659 53.524 93.3859 61.909 88.5629C70.515 83.6099 78.64 83.7399 78.64 83.7399C76.677 77.3439 70.528 69.9469 70.528 69.9469L50.326 75.2769C51.639 82.6089 48.415 90.2659 48.415 90.2659Z" fill="black"/>
<path d="M45.165 92.424C47.765 94.205 56.631 95.674 63.7953 90.773C70.515 86.171 79.0703 85.95 82.54 86.067C80.1493 78.02 74.428 72.001 72.8433 70.454L50.677 76.304C50.651 76.317 50.625 76.317 50.599 76.33L48.233 76.954C48.597 85.482 46.27 90.552 45.165 92.424ZM52.562 96.272C48.012 96.272 44.203 94.946 42.903 93.269C42.604 92.879 42.604 92.333 42.903 91.943C42.968 91.852 46.699 86.73 46.036 76.187C45.997 75.667 46.348 75.199 46.842 75.069L49.988 74.237C50.014 74.224 50.04 74.224 50.066 74.211L72.8953 68.179C73.245 68.088 73.622 68.179 73.895 68.426C74.2473 68.738 82.475 76.213 85.062 86.99C85.14 87.328 85.049 87.692 84.815 87.965C84.581 88.225 84.23 88.368 83.879 88.329C83.775 88.316 72.816 87.224 65.0433 92.554C61.103 95.258 56.553 96.272 52.562 96.272Z" fill="black"/>
<path d="M49.793 89.6939C51.444 90.2659 55.487 91.0069 61.35 87.6269C67.993 83.8049 74.2993 82.9079 77.1203 82.7129C75.26 77.9159 71.399 72.8199 70.112 71.1819L51.548 76.0829C52.289 81.8159 50.586 87.4579 49.793 89.6939ZM52.965 92.3459C49.806 92.3459 47.973 91.2669 47.843 91.1889C47.388 90.9029 47.193 90.3309 47.414 89.8369C47.453 89.7329 50.495 82.3619 49.26 75.4719C49.247 75.4069 49.247 75.3419 49.247 75.2769C49.247 74.7829 49.585 74.3539 50.053 74.2239L70.255 68.8939C70.658 68.7899 71.1 68.9199 71.3743 69.2449C71.633 69.5569 77.691 76.8889 79.693 83.4149C79.797 83.7529 79.732 84.1039 79.524 84.3899C79.316 84.6629 78.991 84.8319 78.64 84.8189C78.562 84.8189 70.684 84.7669 62.468 89.4989C58.607 91.7089 55.396 92.3459 52.965 92.3459Z" fill="black"/>
<mask id="mask3_93_864" style="mask-type:luminance" maskUnits="userSpaceOnUse" x="47" y="71" width="32" height="15">
<path d="M47.1934 71.0648H78.3673V85.0385H47.1934V71.0648Z" fill="white"/>
</mask>
<g mask="url(#mask3_93_864)">
<g opacity="0.199997">
<path d="M47.1934 78.3453C47.2454 79.0603 47.2714 79.7493 47.2714 80.4253C48.2074 81.5563 49.4424 82.5053 50.8724 83.2333C54.9024 85.3003 60.5834 85.6903 66.2904 83.8963C70.4244 82.6093 73.8824 80.3863 76.2874 77.7473C77.1064 76.8503 77.8084 75.9143 78.3674 74.9393C76.3524 72.4693 74.7794 71.0653 74.7794 71.0653L71.9844 71.8063L50.5994 77.4483L47.1934 78.3453Z" fill="black"/>
</g>
</g>
<path d="M20.5693 94.8807C20.4393 102.252 27.8753 102.174 27.8753 102.174L36.6633 107.478C37.1053 101.966 34.9213 93.9707 34.9213 93.9707L32.8673 93.1257C33.1663 90.3827 29.9553 88.3027 27.3423 87.6397C24.7423 86.9897 20.6993 87.5227 20.5693 94.8807Z" fill="#F15A24"/>
<path d="M27.875 101.082C28.07 101.082 28.265 101.134 28.434 101.238L35.636 105.58C35.584 101.355 34.401 96.3497 34.011 94.7637L32.464 94.1267C32.022 93.9447 31.749 93.4767 31.801 92.9957C32.035 90.9157 29.123 89.1997 27.095 88.6927C26.289 88.4977 24.768 88.2897 23.585 89.1867C22.376 90.1097 21.713 92.0857 21.661 94.8807C21.622 96.7267 22.129 98.1957 23.156 99.2357C24.937 101.069 27.823 101.082 27.875 101.082ZM36.676 108.57C36.481 108.57 36.286 108.518 36.117 108.414L27.563 103.253C26.588 103.201 23.676 102.876 21.622 100.796C20.166 99.3267 19.451 97.3247 19.49 94.8677C19.555 91.3317 20.491 88.8487 22.272 87.4837C23.676 86.4047 25.587 86.0927 27.628 86.5997C30.176 87.2367 33.738 89.2777 33.985 92.4107L35.35 92.9827C35.662 93.1127 35.896 93.3727 35.987 93.6977C36.078 94.0357 38.223 101.94 37.768 107.582C37.742 107.959 37.521 108.284 37.183 108.466C37.014 108.531 36.845 108.57 36.676 108.57Z" fill="#F15A24"/>
<path d="M93.7588 41.6201C94.9678 44.7791 96.9568 49.7321 99.0498 53.7491C101.989 59.4041 106.018 63.4861 107.345 63.8501C107.487 62.3551 107.279 60.8341 106.72 59.4171C104.939 54.9581 101.026 47.1451 93.7588 41.6201ZM107.539 66.0471C104.575 66.0471 99.5828 59.4821 97.1258 54.7501C93.7328 48.2241 90.5738 39.2411 90.5348 39.1631C90.4178 38.8251 90.4828 38.4611 90.6778 38.1751C90.8858 37.8891 91.2108 37.7201 91.5618 37.7201C91.7568 37.7201 91.9518 37.7721 92.1208 37.8761C101.728 43.7001 106.655 53.3721 108.735 58.6111C109.489 60.5091 109.736 62.5761 109.437 64.5911C109.424 64.7081 109.385 64.8251 109.32 64.9421C108.97 65.6441 108.32 66.0471 107.539 66.0471Z" fill="#F15A24"/>
<path d="M91.5619 38.799C92.3432 41.685 95.0199 47.522 97.0492 51.734C98.3999 54.555 99.4659 56.661 99.4659 56.661C102.287 53.086 102.027 48.588 102.027 48.588C108.072 47.314 109.047 39.488 109.047 39.488C110.191 37.824 110.061 36.446 109.541 35.419C108.891 34.106 107.618 33.365 107.618 33.365C108.137 30.635 104.484 28.919 104.484 28.919C104.484 25.786 100.572 25.786 100.572 25.786C99.7909 24.486 97.6992 23.303 95.4892 25.253C93.2662 27.203 93.6549 30.518 93.6549 30.518C93.6549 30.518 91.8219 30.219 90.5219 33.209C89.2089 36.212 91.5619 38.799 91.5619 38.799Z" fill="#F15A24"/>
<mask id="mask4_93_864" style="mask-type:luminance" maskUnits="userSpaceOnUse" x="90" y="33" width="20" height="24">
<path d="M90.105 33.2218H109.913V56.6738H90.105V33.2218Z" fill="white"/>
</mask>
<g mask="url(#mask4_93_864)">
<g opacity="0.199997">
<path d="M97.0999 51.591C97.0739 51.643 97.0622 51.695 97.0349 51.747C98.3869 54.568 99.4542 56.674 99.4542 56.674C102.274 53.099 102.014 48.601 102.014 48.601C108.06 47.327 109.035 39.501 109.035 39.501C110.179 37.837 110.049 36.459 109.529 35.432C109.529 35.432 105.993 40.71 102.885 40.45L102.314 37.941C102.314 37.941 94.2412 37.46 90.4973 33.222C89.1973 36.212 91.5489 38.812 91.5489 38.812C91.5489 38.812 92.6929 39.839 94.1489 40.957C97.4392 43.427 98.6469 47.795 97.0999 51.591Z" fill="#F15A24"/>
</g>
</g>
<path d="M93.4872 31.6097C93.3182 31.6097 92.3549 31.7137 91.5099 33.6507C90.5089 35.9387 92.2912 37.9797 92.3679 38.0707C92.4849 38.2007 92.5642 38.3567 92.6019 38.5127C93.5912 42.1527 97.7759 50.7977 99.5829 54.4767C101.078 51.6297 100.935 48.6917 100.935 48.6527C100.909 48.1197 101.274 47.6387 101.793 47.5217C106.993 46.4297 107.943 39.4227 107.955 39.3447C107.981 39.1757 108.047 39.0067 108.137 38.8637C108.722 38.0057 108.93 37.2257 108.762 36.4847C108.462 35.1587 107.058 34.3137 107.045 34.3137C106.643 34.0797 106.434 33.6247 106.525 33.1697C106.876 31.3367 104.029 29.9197 103.991 29.9067C103.614 29.7247 103.366 29.3477 103.366 28.9187C103.366 26.9557 100.818 26.8777 100.532 26.8777C100.155 26.8777 99.8039 26.6697 99.6089 26.3447C99.3749 25.9417 98.8432 25.4347 98.1412 25.3307C97.5029 25.2267 96.8412 25.4737 96.1639 26.0717C94.4089 27.6057 94.6949 30.3747 94.6949 30.4007C94.7339 30.7517 94.6429 31.1157 94.3699 31.3497C94.1372 31.5967 93.8239 31.6877 93.4872 31.6097ZM99.4659 57.7657H99.3619C98.9992 57.7267 98.6742 57.5057 98.5039 57.1807C98.2309 56.6477 92.0299 44.3627 90.5869 39.3317C89.9889 38.5647 88.1819 35.8867 89.5339 32.8057C90.4452 30.7257 91.6529 29.9197 92.5499 29.6207C92.6019 28.3077 92.9659 26.0327 94.7742 24.4597C96.2432 23.1727 97.6199 23.0687 98.5182 23.2117C99.5452 23.3677 100.493 23.9397 101.156 24.7587C102.807 24.9277 105.16 25.7987 105.524 28.2817C106.591 28.9187 108.762 30.5177 108.762 32.8707C109.464 33.4167 110.568 34.4957 110.906 36.0427C111.193 37.3167 110.92 38.6297 110.087 39.9167C109.853 41.3337 108.527 47.7297 103.12 49.4587C103.054 51.0577 102.625 54.4637 100.324 57.3627C100.116 57.6097 99.7909 57.7657 99.4659 57.7657Z" fill="#F15A24"/>
<path d="M97.2952 40.0471C96.7362 40.0471 96.1642 39.9041 95.6702 39.6051C95.1502 39.2931 94.9812 38.6301 95.2932 38.1101C95.6052 37.5901 96.2682 37.4211 96.7882 37.7331C97.2042 37.9801 97.7632 37.9021 98.1142 37.5381C98.5952 37.0441 98.5042 36.1601 97.8932 35.1851C96.1382 32.4031 93.3822 31.5841 93.3562 31.5841C92.7842 31.4151 92.4475 30.8171 92.6152 30.2451C92.7842 29.6731 93.3692 29.3351 93.9542 29.4911C94.0972 29.5301 97.5162 30.5181 99.7392 34.0281C101.143 36.2511 100.636 38.0841 99.6872 39.0591C99.0242 39.7091 98.1662 40.0471 97.2952 40.0471Z" fill="#F15A24"/>
<path d="M97.2038 33.768H97.1388C96.5408 33.729 96.0871 33.222 96.1118 32.624C96.3601 28.152 99.6868 25.123 99.8311 24.993C100.272 24.59 100.962 24.629 101.364 25.084C101.768 25.526 101.728 26.215 101.287 26.618C101.26 26.644 98.4908 29.192 98.2828 32.754C98.2581 33.313 97.7758 33.768 97.2038 33.768Z" fill="#F15A24"/>
<path d="M99.2197 36.5108C99.1287 36.5108 99.0247 36.4978 98.9207 36.4718C98.3487 36.3158 98.0094 35.7048 98.1654 35.1328C99.1807 31.5318 103.627 28.1908 103.807 28.0478C104.288 27.6838 104.966 27.7878 105.328 28.2688C105.692 28.7498 105.588 29.4258 105.107 29.7898C105.042 29.8418 101.066 32.8318 100.26 35.7048C100.143 36.1988 99.6994 36.5108 99.2197 36.5108Z" fill="#F15A24"/>
<path d="M104.77 43.2189C103.925 43.2189 103.145 42.8809 102.534 42.2569C101.741 41.4509 101.689 40.3459 101.975 39.2539C101.547 39.3839 101.117 39.4359 100.701 39.4489C99.297 39.4359 98.53 38.6559 98.439 38.5649L100.025 37.0829C100.025 37.0829 100.012 37.0699 99.999 37.0569C100.441 37.4469 101.858 37.5639 104.147 35.1589C104.549 34.7429 105.199 34.7039 105.641 35.0809C106.083 35.4579 106.149 36.1079 105.797 36.5759C104.51 38.2529 103.665 40.3069 104.081 40.7359C104.289 40.9569 104.51 41.0479 104.77 41.0479C105.238 41.0479 106.317 40.7489 108.254 38.7469C108.67 38.3179 109.359 38.3049 109.788 38.7209C110.217 39.1369 110.23 39.8259 109.814 40.2549C107.89 42.2439 106.239 43.2189 104.77 43.2189Z" fill="#F15A24"/>
<path d="M104.926 36.992C104.64 36.992 104.354 36.875 104.133 36.654C103.717 36.212 103.743 35.523 104.172 35.12L106.849 32.585C107.292 32.169 107.968 32.195 108.384 32.624C108.799 33.066 108.774 33.755 108.345 34.158L105.667 36.693C105.472 36.901 105.199 36.992 104.926 36.992Z" fill="#F15A24"/>
<path d="M21.5576 122.753C24.5346 122.389 25.9516 120.309 26.7316 117.267C28.1616 111.703 27.4726 102.915 30.3196 95.5046C33.2316 87.9256 33.0496 81.6335 32.5946 78.2405C32.2956 76.0046 30.9826 74.0416 29.0196 72.9366C27.4206 72.0396 25.4576 71.2726 23.5466 70.7786C20.1406 69.8816 16.9036 69.8296 16.2666 71.3636C14.9666 74.4966 23.5726 80.8926 23.7026 93.0476C23.8066 102.993 17.9826 108.7 14.4986 111.521C13.7186 112.145 13.0686 112.639 12.6136 112.99C10.1306 114.914 13.1336 123.793 21.5576 122.753Z" fill="black"/>
<path d="M19.3208 71.2211C18.0598 71.2211 17.3838 71.4941 17.2668 71.7671C16.9548 72.5081 18.0468 74.3411 19.2168 76.2781C21.4008 79.9311 24.7158 85.4301 24.7938 93.0221C24.8718 100.627 21.6348 107.127 15.1868 112.353C14.6798 112.769 14.2118 113.12 13.8348 113.406C13.6268 113.562 13.4448 113.705 13.2888 113.822C12.7818 114.225 12.6518 115.655 13.3278 117.28C14.3678 119.763 17.0328 122.22 21.4268 121.674C23.6238 121.401 24.8978 120.01 25.6778 117.046C25.6778 117.033 25.6908 117.007 25.6908 116.994C26.2368 114.875 26.4708 112.171 26.7178 109.311C27.1078 104.813 27.5368 99.7301 29.3178 95.1151C32.1908 87.6271 31.9308 81.4131 31.5278 78.3841C31.2808 76.4991 30.1368 74.8091 28.4988 73.8861C27.0298 73.0541 25.1838 72.3261 23.2988 71.8321C23.2728 71.8191 23.2468 71.8191 23.2208 71.8061C21.5698 71.3641 20.2828 71.2211 19.3208 71.2211ZM20.2178 123.923C15.4728 123.923 12.4828 120.907 11.3128 118.125C10.2728 115.642 10.5198 113.224 11.9368 112.119C12.1058 111.989 12.2878 111.846 12.5088 111.677C12.8858 111.378 13.3278 111.053 13.8088 110.65C19.8148 105.788 22.6878 100.029 22.6098 93.0351C22.5318 86.0411 19.5288 81.0361 17.3448 77.3831C15.7068 74.6531 14.5238 72.6771 15.2518 70.9221C16.4218 68.1141 21.6218 69.1411 23.8058 69.7131C23.8318 69.7131 23.8448 69.7261 23.8708 69.7261C25.9118 70.2591 27.9138 71.0651 29.5388 71.9751C31.7748 73.2361 33.3218 75.5241 33.6598 78.0851C34.0888 81.3221 34.3618 87.9391 31.3198 95.8821C29.6558 100.211 29.2398 105.138 28.8628 109.48C28.6158 112.418 28.3688 115.187 27.7838 117.475C27.7838 117.488 27.7708 117.514 27.7708 117.527C27.1338 119.984 25.8208 123.312 21.6738 123.819C21.1798 123.897 20.6858 123.923 20.2178 123.923Z" fill="black"/>
<path d="M17.0458 110.702C19.8018 111.365 21.6218 113.016 22.7008 114.342C23.5328 111.599 24.9238 105.541 26.4708 95.3226C28.1478 84.2336 23.7928 73.8986 22.7788 71.6756C19.2688 70.8306 17.4618 71.2856 17.2668 71.7406C16.9548 72.4816 18.0468 74.3146 19.2168 76.2516C21.4008 79.9046 24.7158 85.4036 24.7938 92.9956C24.8588 99.8336 22.2588 105.775 17.0458 110.702ZM22.9478 117.774H22.8438C22.4668 117.735 22.1288 117.501 21.9598 117.15C21.8688 116.968 19.7238 112.587 14.4848 112.587C14.0298 112.587 13.6138 112.301 13.4578 111.859C13.3018 111.43 13.4448 110.936 13.7958 110.65C19.7888 105.788 22.6748 100.029 22.5968 93.0346C22.5188 86.0406 19.5158 81.0356 17.3318 77.3826C15.6938 74.6526 14.5108 72.6766 15.2388 70.9216C16.4088 68.1136 21.6088 69.1406 23.7928 69.7126C23.9748 69.7646 24.1438 69.8556 24.2738 69.9856C24.3648 70.0636 24.4428 70.1676 24.4948 70.2846C24.7418 70.7786 30.5918 82.5176 28.6028 95.6736C26.8868 107.049 24.9628 115.759 23.8058 117.345C23.6238 117.605 23.2988 117.774 22.9478 117.774Z" fill="black"/>
<path d="M14.0825 113.211C13.9915 113.276 13.9135 113.341 13.8355 113.406C13.6275 113.562 13.4455 113.705 13.2895 113.822C12.7825 114.225 12.6525 115.655 13.3285 117.28C14.3685 119.763 17.0335 122.22 21.4275 121.674C22.7275 121.518 23.6895 120.972 24.4305 119.945C23.2605 120.218 21.8045 120.166 20.1405 119.451C16.9555 118.086 14.9925 114.992 14.0825 113.211ZM20.2185 123.923C15.4735 123.923 12.4835 120.907 11.3135 118.125C10.2735 115.642 10.5205 113.224 11.9375 112.119C12.1065 111.989 12.2885 111.846 12.5095 111.677C12.8865 111.378 13.3285 111.053 13.8095 110.65C14.0825 110.429 14.4465 110.351 14.7845 110.442C15.1225 110.533 15.3955 110.78 15.5125 111.118C15.5255 111.17 17.3455 115.889 20.9855 117.449C24.1705 118.801 25.6785 116.864 25.8345 116.643C26.1075 116.266 26.6015 116.097 27.0565 116.24C27.5115 116.383 27.8105 116.799 27.8105 117.267C27.8105 117.358 27.7975 117.449 27.7715 117.54C27.1345 119.997 25.8215 123.325 21.6745 123.832C21.1805 123.897 20.6865 123.923 20.2185 123.923Z" fill="black"/>
<path d="M23.7944 55.3913C26.449 53.9912 30.2242 55.936 32.2262 59.7346C34.2282 63.5319 33.6991 67.7452 31.0445 69.1453C28.3899 70.5441 24.6147 68.6006 22.6127 64.802C20.6107 61.0034 21.1398 56.7901 23.7944 55.3913Z" fill="#F15A24"/>
<path d="M25.6907 56.0628C25.2097 56.0628 24.6897 56.1668 24.1957 56.4528C22.1547 57.6618 21.9337 61.3668 23.7147 64.5518C24.8067 66.5148 26.4707 67.9578 28.1607 68.3998C28.8237 68.5818 29.7857 68.6728 30.6827 68.1398C32.7237 66.9308 32.9447 63.2128 31.1637 60.0408C30.0717 58.0778 28.4077 56.6348 26.7177 56.1928C26.4187 56.1278 26.0677 56.0628 25.6907 56.0628ZM29.1877 70.7268C28.6677 70.7268 28.1347 70.6488 27.6017 70.5058C25.3657 69.9078 23.2077 68.0748 21.8297 65.6178C19.4117 61.3018 19.9707 56.4528 23.0907 54.5938C24.3127 53.8658 25.7557 53.6968 27.2897 54.1128C29.5257 54.7108 31.6837 56.5438 33.0617 59.0008C35.4797 63.3168 34.9207 68.1658 31.8007 70.0248C30.9947 70.4928 30.1107 70.7268 29.1877 70.7268Z" fill="#F15A24"/>
<path d="M57.7364 59.7679C57.7364 59.7679 79.3944 46.4169 87.5324 22.6659C88.2344 20.6119 87.4804 18.3369 85.7241 17.1409C79.2514 12.7339 62.4281 2.71095 41.4344 1.11195C40.3814 1.03395 39.3154 1.29395 38.4054 1.85295C33.7774 4.71295 19.3474 15.5679 8.11538 45.3639C7.36138 47.3659 8.38838 49.6019 10.3644 50.2779C18.9314 53.1509 41.1614 60.0279 57.7364 59.7679Z" fill="black"/>
<mask id="mask5_93_864" style="mask-type:luminance" maskUnits="userSpaceOnUse" x="7" y="1" width="81" height="48">
<path d="M7.86279 1.09882H87.7829V48.3148H7.86279V1.09882Z" fill="white"/>
</mask>
<g mask="url(#mask5_93_864)">
<g opacity="0.399994">
<path d="M8.20663 48.3148C8.24563 48.0808 8.31063 47.8468 8.40163 47.6128C19.6336 17.8168 34.0636 6.94882 38.6916 4.10182C39.6016 3.54282 40.6546 3.28282 41.7206 3.36082C62.7156 4.97282 79.5376 14.9958 86.0116 19.3898C86.8306 19.9488 87.4286 20.7288 87.7536 21.6258C87.9486 19.8838 87.1816 18.1418 85.7126 17.1408C79.2386 12.7338 62.4166 2.71082 41.4216 1.11182C40.3686 1.03382 39.3026 1.29382 38.3926 1.85282C33.7646 4.71282 19.3346 15.5678 8.10263 45.3638C7.73863 46.3518 7.80363 47.4178 8.20663 48.3148Z" fill="black"/>
</g>
</g>
<mask id="mask6_93_864" style="mask-type:luminance" maskUnits="userSpaceOnUse" x="11" y="5" width="78" height="54">
<path d="M11.3391 5.58121H88.1821V58.2923H11.3391V5.58121Z" fill="white"/>
</mask>
<g mask="url(#mask6_93_864)">
<g opacity="0.199997">
<path d="M11.3384 50.6029C20.3084 53.0599 44.7874 59.3389 61.0374 58.1429C61.0374 58.1429 81.0314 44.0639 88.1814 20.5989C81.7464 16.7509 52.5354 3.56885 41.4464 5.84385C31.0464 7.97585 15.1734 36.9659 11.3384 50.6029Z" fill="black"/>
</g>
</g>
<path d="M41.0441 2.17758C40.3161 2.17758 39.6011 2.38558 38.9771 2.76258C34.8041 5.33658 20.3221 16.0356 9.12906 45.7406C8.86906 46.4426 8.89506 47.2226 9.22006 47.8986C9.51906 48.5486 10.0521 49.0166 10.7151 49.2376C19.3471 52.1366 41.0831 58.8446 57.4241 58.6756C59.8291 57.1156 79.0691 44.0506 86.5181 22.3016C87.0641 20.7156 86.4921 18.9606 85.1271 18.0376C78.9001 13.7996 62.1691 3.77657 41.3691 2.19057C41.2521 2.17757 41.1481 2.17758 41.0441 2.17758ZM56.8001 60.8596C40.2121 60.8596 18.6321 54.2036 10.0131 51.3046C8.79106 50.8886 7.81606 50.0176 7.25706 48.8346C6.68506 47.6386 6.63306 46.2346 7.10106 44.9866C11.9631 32.0906 17.9561 21.2746 24.8981 12.8116C30.5791 5.90858 35.4411 2.39857 37.8331 0.916575C38.9511 0.227575 40.2121 -0.0844234 41.5121 0.0195766C62.8451 1.65758 79.9661 11.9016 86.3361 16.2436C88.5071 17.7126 89.4171 20.5076 88.5591 23.0166C84.2821 35.4836 76.3001 45.0646 70.3474 50.9016C63.8994 57.2196 58.5291 60.5606 58.3081 60.6906C58.1391 60.7946 57.9441 60.8466 57.7491 60.8466C57.4371 60.8596 57.1251 60.8596 56.8001 60.8596Z" fill="black"/>
<path d="M24.1834 43.8817L24.7554 46.3777L25.8734 51.2787L28.0054 60.6387C29.1494 74.4317 44.1124 82.2967 63.2744 77.4997C81.0194 73.0667 87.2204 61.0937 85.8034 53.7487C85.4914 52.1107 84.9974 50.6677 84.4241 49.4457C82.4494 45.1817 79.5374 43.3097 79.5374 43.3097C76.9764 35.9647 72.6994 26.5787 72.6994 26.5787C72.6994 26.5787 68.0324 17.8687 48.2594 22.0417C34.0374 25.0447 26.2504 34.2487 24.4304 39.4617C23.9234 40.8787 23.8454 42.4127 24.1834 43.8817Z" fill="#F15A24"/>
<mask id="mask7_93_864" style="mask-type:luminance" maskUnits="userSpaceOnUse" x="25" y="49" width="61" height="30">
<path d="M25.8604 49.4458H85.9853V78.9129H25.8604V49.4458Z" fill="white"/>
</mask>
<g mask="url(#mask7_93_864)">
<g opacity="0.199997">
<path d="M25.8606 51.2786L27.9926 60.6386C29.1366 74.4316 44.0996 82.2966 63.2616 77.4996C81.0053 73.0666 87.2076 61.0936 85.7906 53.7486C85.4786 52.1106 84.9846 50.6676 84.4126 49.4456C84.4126 49.4456 85.9323 65.9426 62.8456 71.0776C39.7576 76.2126 31.4116 67.0476 29.6046 60.7946C28.6816 57.6226 27.1606 54.0476 25.8606 51.2786Z" fill="#F15A24"/>
</g>
</g>
<path d="M57.6585 21.5868C54.9935 21.5868 51.8215 21.8988 48.0515 22.6918C34.4405 25.5648 26.8225 34.2618 25.0285 39.4098C24.5995 40.6318 24.5345 41.9448 24.8205 43.2318L28.6295 59.9888C28.6425 60.0408 28.6425 60.0928 28.6555 60.1448C29.0845 65.3708 31.6065 69.7778 35.9355 72.8848C42.3965 77.5128 52.1075 78.6698 62.5855 76.0438C79.7455 71.7538 85.6215 60.3138 84.3085 53.5538C82.9955 46.8068 78.5625 43.8558 78.5222 43.8168C78.3155 43.6868 78.1595 43.4918 78.0802 43.2578C75.6492 36.3028 71.6335 27.3718 71.3085 26.6568C71.1915 26.4488 70.0085 24.6288 66.8222 23.2378C64.8735 22.3668 61.9225 21.5868 57.6585 21.5868ZM51.9255 79.5668C45.2175 79.5668 39.2245 77.8898 34.6615 74.6268C29.8125 71.1558 26.9915 66.2288 26.4845 60.3788L22.6885 43.6998C22.3115 42.0228 22.4025 40.2808 22.9615 38.6818C24.9245 33.0788 33.1015 23.6148 47.5965 20.5598C67.9415 16.2698 73.0115 25.2658 73.2195 25.6428C73.2325 25.6688 73.2455 25.6818 73.2455 25.7078C73.2845 25.7988 77.4445 34.9508 80.0055 42.2048C81.1742 43.0758 85.1262 46.4428 86.4262 53.1248C87.2595 57.4148 85.6605 62.6018 82.1375 66.9698C79.1995 70.6228 73.5055 75.5238 63.1055 78.1238C59.2575 79.0988 55.4875 79.5668 51.9255 79.5668Z" fill="#F15A24"/>
<path d="M53.1604 58.8317C54.0704 61.7567 56.0724 64.0837 60.3104 63.1087C61.1164 62.9267 61.7664 62.6147 62.2864 62.2117C66.6413 58.8707 62.0784 49.0167 62.0784 49.0167C62.0784 49.0167 57.0214 52.4097 52.5884 50.4467C52.5884 50.4597 51.9904 55.1267 53.1604 58.8317Z" fill="black"/>
<path d="M53.1602 58.8317C54.0702 61.7567 56.0722 64.0837 60.3102 63.1087C61.1162 62.9267 61.7662 62.6147 62.2862 62.2117C62.2992 62.0427 62.3122 61.8737 62.3122 61.7177C62.3122 58.6627 60.1009 56.1797 57.3722 56.1797C55.5912 56.1797 54.0312 57.2457 53.1602 58.8317Z" fill="black"/>
<path d="M53.6668 51.9285C53.5888 53.5145 53.5888 56.2315 54.2908 58.5195C55.2528 61.6265 57.0988 62.7575 60.0888 62.0555C60.6998 61.9125 61.2198 61.6785 61.6241 61.3665C64.2358 59.3385 62.7408 53.6445 61.5578 50.5895C59.9471 51.4215 56.8258 52.6695 53.6668 51.9285ZM58.5288 64.4215C55.4868 64.4215 53.2898 62.6015 52.2108 59.1565C51.0018 55.2565 51.5868 50.5245 51.5998 50.3165C51.6388 49.9785 51.8468 49.6795 52.1458 49.5105C52.4448 49.3415 52.8088 49.3285 53.1208 49.4585C56.9168 51.1485 61.4278 48.1455 61.4798 48.1195C61.7398 47.9375 62.0778 47.8855 62.3768 47.9765C62.6888 48.0675 62.9358 48.2755 63.0658 48.5745C63.2608 49.0035 67.8888 59.2605 62.9488 63.0825C62.2858 63.5895 61.4928 63.9665 60.5698 64.1745C59.8678 64.3435 59.1788 64.4215 58.5288 64.4215Z" fill="black"/>
<path d="M45.971 49.2118C44.632 47.1188 42.604 45.6108 40.043 46.1828C39.848 46.2478 39.536 46.3128 39.354 46.4298C38.015 46.9758 37.222 48.3408 36.806 49.6928C36.754 49.8488 36.715 50.0048 36.676 50.1478C36.598 50.4468 36.273 50.6288 35.974 50.5508C35.727 50.4858 35.558 50.2518 35.558 50.0178C35.532 49.2898 35.649 48.6658 35.857 47.9898C36.455 46.0398 38.093 44.5318 40.16 44.2718C42.877 43.7908 45.49 45.4548 46.595 47.8988C46.777 48.3538 47.336 49.2378 46.608 49.4978C46.335 49.5498 46.088 49.4328 45.971 49.2118Z" fill="black"/>
<path d="M62.4032 44.2981C62.0262 41.3341 63.6902 37.8241 66.9662 37.6161C69.8262 37.2651 72.2572 39.4621 72.6212 42.2181C72.6862 42.7901 71.9192 43.0111 71.6462 42.5171C70.8402 41.2821 69.7352 40.0341 68.2142 39.8131C65.2892 39.3191 64.0152 41.9451 63.2482 44.3891C63.1182 44.8311 62.4552 44.7661 62.4032 44.2981Z" fill="black"/>
<path d="M45.3084 39.9557C45.3084 39.9557 43.7874 35.7177 39.5234 36.1337C34.9864 36.5887 34.4924 41.4897 34.4924 41.4897C34.4924 41.4897 38.8604 36.2377 45.3084 39.9557Z" fill="#F15A24"/>
<path d="M70.9702 32.9231C70.9702 32.9231 68.3442 29.3091 64.3662 30.9731C60.1412 32.7411 61.0382 37.5901 61.0382 37.5901C61.0382 37.5901 63.7552 31.2591 70.9702 32.9231Z" fill="#F15A24"/>
<path d="M67.2262 27.5929C67.2262 27.5929 74.6232 31.2199 73.2972 33.5599C71.9712 35.9129 55.0712 31.9739 55.0712 31.9739C55.0712 31.9739 56.8522 37.6289 42.8642 35.4969C42.8642 35.4969 35.1422 41.9319 23.3772 42.9329C23.3772 42.9329 34.7652 22.2109 67.2262 27.5929Z" fill="#F15A24"/>
<path d="M58.2952 28.542C47.4272 28.542 39.8482 31.779 35.0772 34.899C30.9952 37.564 28.3822 40.476 26.9652 42.322C36.9232 40.801 43.4492 35.471 43.5272 35.406C43.7612 35.211 44.0732 35.12 44.3852 35.172C52.2112 36.368 54.4342 34.964 55.0192 34.301C55.5522 33.716 55.3962 33.092 55.3832 33.027C55.2662 32.65 55.3572 32.26 55.6302 31.974C55.8902 31.688 56.2932 31.571 56.6832 31.662C56.7222 31.675 60.6092 32.572 64.7302 33.248C71.8282 34.405 73.4402 33.885 73.7262 33.729C73.7262 33.703 73.7262 33.651 73.7002 33.586C73.3245 32.39 70.2812 30.414 68.2402 29.4C64.6522 28.789 61.3372 28.542 58.2952 28.542ZM24.7292 44.766C24.3652 44.766 24.0142 44.584 23.8192 44.272C23.5982 43.934 23.5852 43.505 23.7802 43.154C23.8972 42.933 26.8352 37.681 33.8942 33.079C40.3552 28.854 51.6522 24.421 68.7602 27.268C68.8642 27.281 68.9682 27.32 69.0592 27.359C70.0472 27.84 74.9872 30.375 75.7802 32.936C75.9882 33.612 75.9245 34.275 75.5995 34.847C74.9742 35.952 73.2452 36.784 64.8745 35.471C61.9742 35.016 59.1142 34.418 57.5022 34.08C57.3852 34.6 57.1512 35.172 56.6962 35.692C54.9412 37.733 50.8462 38.305 44.5282 37.395C42.7862 38.734 35.4412 43.869 24.8202 44.766C24.7812 44.753 24.7552 44.766 24.7292 44.766Z" fill="#F15A24"/>
<path d="M20.023 21.3266C20.023 21.3266 22.701 27.3586 18.294 29.7116C13.887 32.0646 4.50097 25.5126 4.50097 25.5126L2.60297 29.0486C2.60297 29.0486 3.99397 32.1426 9.94797 34.0536C9.94797 34.0536 5.13797 34.6646 1.84897 32.1816L1.09497 34.7946C1.09497 34.7946 12.106 43.9206 18.814 36.1076C24.287 29.7116 20.023 21.3266 20.023 21.3266Z" fill="black"/>
<path d="M2.3431 34.392C3.3051 35.094 5.3851 36.498 7.8551 37.382C12.1321 38.916 15.5381 38.253 17.9821 35.406C19.6331 33.469 20.3221 31.35 20.4911 29.361C20.0621 29.868 19.5031 30.31 18.8141 30.687C14.7191 32.884 7.6211 28.841 4.9041 27.099L3.8641 29.036C4.4621 29.855 6.2171 31.74 10.2861 33.04C10.7671 33.196 11.0791 33.664 11.0401 34.171C10.9881 34.678 10.5981 35.081 10.0911 35.146C9.8961 35.172 5.9051 35.64 2.4991 33.872L2.3431 34.392ZM12.0281 40.359C10.4811 40.359 8.8171 40.047 7.0621 39.41C3.3311 38.058 0.510099 35.744 0.393099 35.64C0.055099 35.367 -0.074901 34.912 0.042099 34.496L0.796099 31.883C0.900099 31.545 1.1601 31.272 1.4981 31.155C1.8361 31.038 2.2131 31.103 2.4991 31.324C2.9281 31.649 3.3961 31.909 3.8771 32.13C2.2001 30.765 1.6541 29.595 1.6151 29.504C1.4721 29.192 1.4851 28.841 1.6541 28.542L3.5521 25.006C3.6951 24.733 3.9551 24.538 4.2541 24.46C4.5531 24.382 4.8781 24.447 5.1251 24.629C7.5821 26.345 14.6541 30.427 17.7871 28.75C21.2451 26.904 19.1261 21.977 19.0351 21.756C18.8011 21.223 19.0351 20.586 19.5681 20.339C20.1011 20.092 20.7381 20.3 20.9981 20.833C21.1801 21.197 25.5221 29.946 19.6331 36.81C17.6051 39.176 15.0311 40.359 12.0281 40.359Z" fill="black"/>
<path d="M23.7541 43.466L24.3261 45.962C40.9271 20.651 72.2701 26.163 72.2701 26.163C72.2701 26.163 67.6031 17.453 47.8301 21.626C33.6081 24.629 25.8211 33.833 24.0011 39.046C23.5071 40.463 23.4291 41.997 23.7541 43.466Z" fill="#F15A24"/>
<path d="M57.6585 21.5868C54.9935 21.5868 51.8215 21.8988 48.0515 22.6918C34.4405 25.5648 26.8225 34.2618 25.0285 39.4098C24.5995 40.6318 24.5345 41.9448 24.8205 43.2318L24.8465 43.3228C33.5565 31.4798 45.5685 27.0858 54.3305 25.4998C60.7135 24.3558 66.1995 24.4728 69.4222 24.7328C68.7605 24.2388 67.9155 23.7058 66.8222 23.2248C64.8735 22.3668 61.9225 21.5868 57.6585 21.5868ZM24.3265 47.0408C24.2615 47.0408 24.1965 47.0408 24.1315 47.0278C23.7025 46.9498 23.3645 46.6248 23.2605 46.1958L22.6885 43.6998C22.3115 42.0228 22.4025 40.2808 22.9615 38.6818C24.9245 33.0788 33.1015 23.6148 47.5965 20.5598C67.9415 16.2698 73.0115 25.2658 73.2195 25.6428C73.4145 26.0068 73.3885 26.4618 73.1415 26.7998C72.8945 27.1378 72.4785 27.3068 72.0742 27.2288C71.9975 27.2158 64.2495 25.9028 54.6295 27.6448C41.8115 29.9718 31.9185 36.3288 25.2235 46.5468C25.0285 46.8588 24.6905 47.0408 24.3265 47.0408Z" fill="#F15A24"/>
<path d="M20.5693 94.8807C20.4393 102.252 27.8753 102.174 27.8753 102.174C31.4893 103.019 31.0083 100.432 31.0083 100.432C32.7243 99.3397 31.3333 97.4547 31.3333 97.4547C33.2963 95.8557 31.3333 94.3607 31.3333 94.3607C32.8933 94.1007 32.8803 93.1257 32.8803 93.1257C33.1793 90.3827 29.9683 88.3027 27.3553 87.6397C24.7423 86.9897 20.6993 87.5227 20.5693 94.8807Z" fill="#F15A24"/>
<path d="M27.875 101.082C27.953 101.082 28.044 101.095 28.122 101.108C29.123 101.342 29.669 101.251 29.825 101.095C29.968 100.965 29.929 100.627 29.929 100.627C29.851 100.185 30.033 99.7427 30.41 99.5087C30.709 99.3137 30.748 99.1577 30.761 99.0927C30.826 98.7547 30.579 98.2737 30.449 98.0917C30.111 97.6237 30.189 96.9737 30.644 96.6097C30.826 96.4667 31.112 96.1807 31.112 95.9337C31.112 95.6607 30.8 95.3227 30.657 95.2187C30.332 94.9587 30.202 94.5167 30.306 94.1137C30.397 93.7107 30.748 93.3727 31.151 93.2817L31.788 93.1387L32.88 93.1127L31.801 92.9957C32.035 90.9157 29.123 89.1997 27.095 88.6927C26.289 88.4977 24.768 88.2897 23.585 89.1867C22.376 90.1097 21.713 92.0857 21.661 94.8807C21.622 96.7267 22.129 98.1957 23.156 99.2357C24.937 101.069 27.823 101.082 27.875 101.082ZM29.175 103.435C28.746 103.435 28.265 103.383 27.758 103.266C27.043 103.253 23.845 103.032 21.622 100.796C20.166 99.3267 19.451 97.3247 19.49 94.8677C19.555 91.3317 20.491 88.8487 22.272 87.4837C23.676 86.4047 25.587 86.0927 27.628 86.5997C30.384 87.2887 34.336 89.6157 33.972 93.2037C33.959 93.6717 33.725 94.3477 33.049 94.8417C33.192 95.1537 33.283 95.5047 33.296 95.9077C33.309 96.3627 33.192 96.9997 32.672 97.6627C32.88 98.1567 33.036 98.8067 32.906 99.5087C32.828 99.9247 32.62 100.471 32.1 100.965C32.061 101.472 31.892 102.148 31.333 102.694C30.813 103.175 30.085 103.435 29.175 103.435Z" fill="#F15A24"/>
<path d="M30.5792 95.1536C29.3182 93.8016 27.6542 92.8526 25.9382 92.1766C25.3402 91.9556 25.5872 91.0456 26.2112 91.1626C28.3042 91.5526 30.3712 92.2936 32.0742 93.5806L32.2952 93.7626C32.7762 94.1656 32.8282 94.8806 32.4382 95.3486C31.9572 95.9726 30.9302 95.8556 30.5792 95.1536Z" fill="#F15A24"/>
<path d="M30.9564 98.4817L28.2654 97.2337C27.3684 96.8177 26.4584 96.4147 25.5614 96.0247C24.9374 95.7517 25.2494 94.8157 25.8994 94.9587C27.6024 95.3357 29.9944 95.9857 31.6974 96.4407C33.2184 96.9217 32.4124 99.1057 30.9564 98.4817Z" fill="#F15A24"/>
<path d="M30.7221 101.485C28.6681 100.653 26.6141 99.9247 24.7161 98.7417C24.2481 98.4167 24.6511 97.7017 25.1711 97.9097C27.1081 98.6507 29.2661 98.9887 31.2941 99.3787C32.8411 99.7297 32.2301 101.979 30.7221 101.485Z" fill="#F15A24"/>
<mask id="mask8_93_864" style="mask-type:luminance" maskUnits="userSpaceOnUse" x="59" y="148" width="18" height="18">
<path d="M59.9331 148.389H76.1857V165.667H59.9331V148.389Z" fill="white"/>
</mask>
<g mask="url(#mask8_93_864)">
<g opacity="0.199997">
<path d="M59.9326 150.325C60.7386 155.473 62.8199 165.784 69.7619 165.665C72.5426 165.613 74.1806 164.159 75.0906 162.038C76.6766 158.413 76.1826 152.873 75.7926 149.194L75.1816 148.388C75.1816 148.388 76.6506 159.62 72.3619 159.011C69.0846 158.53 63.7949 155.967 59.9326 150.325Z" fill="#F15A24"/>
</g>
</g>
<mask id="mask9_93_864" style="mask-type:luminance" maskUnits="userSpaceOnUse" x="44" y="131" width="18" height="11">
<path d="M44.1094 131.499H61.493V141.228H44.1094V131.499Z" fill="white"/>
</mask>
<g mask="url(#mask9_93_864)">
<g opacity="0.199997">
<path d="M44.1775 134.253C44.7703 131.834 49.111 130.816 53.8742 131.982C58.6374 133.147 62.0174 136.055 61.4259 138.475C60.8331 140.894 56.4924 141.912 51.7292 140.746C46.9673 139.581 43.5847 136.673 44.1775 134.253Z" fill="#F15A24"/>
</g>
</g>
</svg>
