<svg width="107" height="107" viewBox="0 0 107 107" fill="none" xmlns="http://www.w3.org/2000/svg">
<g clip-path="url(#clip0_109_652)">
<path d="M86.3608 92.112H20.7146C15.164 92.112 10.6165 87.5645 10.6165 82.0138L8.59351 40.6433C8.59351 35.0927 13.141 30.5452 18.6916 30.5452H88.3754C93.926 30.5452 98.4735 35.0927 98.4735 40.6433L96.4505 82.0138C96.4589 87.5645 91.9114 92.112 86.3608 92.112Z" fill="#A1887F"/>
<path d="M-3.43579 100.037H110.26V110.344H-3.43579V100.037Z" fill="#6D4C41"/>
<path d="M96.4922 91.393C92.5466 76.2291 70.4193 73.4622 53.6003 73.2866H53.4665C36.6474 73.4705 13.6424 76.2291 9.68846 91.393L7.32275 100.822H98.8579L96.4922 91.393Z" fill="#231815"/>
<path d="M53.4917 69.3076H46.2859V76.9146C46.2859 80.3587 49.22 83.1424 52.8396 83.1424H54.1521C57.7717 83.1424 60.7058 80.3504 60.7058 76.9146V69.3076H53.4917Z" fill="#E49800"/>
<path d="M60.8562 59.6776H46.2106C45.3747 59.6776 45.0069 60.2377 45.5669 61.0903C46.3444 62.2774 49.2283 64.5511 53.5334 64.5511C57.8385 64.5511 60.7225 62.2774 61.4999 61.0903C62.0516 60.2461 61.6922 59.6776 60.8562 59.6776Z" fill="#513F35"/>
<path d="M60.2461 96.6093L46.5869 96.9186V81.4454H60.2461V96.6093Z" fill="#D8D8D8"/>
<path d="M45.2076 45.8929C45.2076 48.1499 43.7029 49.9723 41.8304 49.9723C39.9662 49.9723 38.4448 48.1416 38.4448 45.8929C38.4448 43.6359 39.9662 41.8052 41.8304 41.8052C43.6945 41.8052 45.2076 43.6275 45.2076 45.8929ZM61.8594 45.8929C61.8594 48.1499 63.3725 49.9723 65.245 49.9723C67.1091 49.9723 68.6305 48.1416 68.6305 45.8929C68.6305 43.6359 67.1091 41.8052 65.245 41.8052C63.3725 41.8052 61.8594 43.6275 61.8594 45.8929Z" fill="#444444"/>
<path d="M55.5313 86.7704H51.5355L50.2816 81.4454H56.7518L55.5313 86.7704ZM56.9524 99.7357H50.1228L51.5355 86.7704H55.5313L56.9524 99.7357Z" fill="#C30D23"/>
<path d="M43.2432 73.7464L45.8513 92.0534L53.4834 81.4537L46.2525 73.5291L43.2432 73.7464ZM63.8323 73.7464L61.2242 92.0534L53.5837 81.4537L60.8229 73.5291L63.8323 73.7464Z" fill="white"/>
<path d="M57.0277 53.4582C55.7821 53.8093 54.4864 53.9849 53.4916 53.9849C52.4969 53.9849 51.2012 53.8093 49.9556 53.4582C49.4206 53.3078 49.2116 53.8093 49.4039 54.1437C49.7968 54.8375 51.3934 56.2419 53.4916 56.2419C55.5898 56.2419 57.1865 54.8375 57.5794 54.1437C57.7716 53.8093 57.5627 53.3078 57.0277 53.4582Z" fill="#E49500"/>
<path d="M39.4144 74.4988C39.8073 74.2313 43.9619 73.6628 43.9619 73.6628L53.4832 100.028L35.5691 99.9614L39.4144 74.4988Z" fill="#231815"/>
<path d="M68.0954 74.4988C67.7025 74.2313 63.5479 73.6628 63.5479 73.6628L53.4749 100.028L72.133 99.9614L68.0954 74.4988Z" fill="#231815"/>
<path d="M78.8205 39.0132C78.8205 39.0132 83.4433 39.8157 83.4433 44.7895C83.4433 49.1782 80.0745 50.9086 76.7056 50.9086V39.0132H78.8205ZM28.447 39.0132C28.447 39.0132 23.8242 39.8157 23.8242 44.7895C23.8242 49.1782 27.193 50.9086 30.5619 50.9086V39.0132H28.447Z" fill="#E39400"/>
<path d="M53.6338 6.43677C33.7301 6.43677 28.5222 21.8682 28.5222 43.544C28.5222 66.0224 42.9672 71.8322 53.6338 71.8322C64.1415 71.8322 78.7453 66.1896 78.7453 43.544C78.7537 21.8682 73.5458 6.43677 53.6338 6.43677Z" fill="#FAC01B"/>
<path d="M45.3664 45.5503C45.3664 47.7906 43.8701 49.6046 42.0143 49.6046C40.1585 49.6046 38.6538 47.7906 38.6538 45.5503C38.6538 43.31 40.1585 41.496 42.0143 41.496C43.8701 41.496 45.3664 43.31 45.3664 45.5503ZM61.9012 45.5503C61.9012 47.7906 63.3976 49.6046 65.2617 49.6046C67.1091 49.6046 68.6222 47.7906 68.6222 45.5503C68.6222 43.31 67.1175 41.496 65.2617 41.496C63.4059 41.496 61.9012 43.31 61.9012 45.5503Z" fill="#444444"/>
<path d="M60.9063 59.2429H46.3777C45.5418 59.2429 45.1907 59.803 45.7341 60.6389C46.5031 61.8176 49.3704 64.0746 53.642 64.0746C57.9137 64.0746 60.7809 61.8176 61.55 60.6389C62.0934 59.803 61.7423 59.2429 60.9063 59.2429Z" fill="#513F35"/>
<path d="M57.1448 53.0653C55.9076 53.4164 54.6286 53.5836 53.6339 53.5836C52.6391 53.5836 51.3601 53.4164 50.1229 53.0653C49.5963 52.9148 49.3873 53.4164 49.5796 53.7508C49.9725 54.4446 51.5524 55.8323 53.6339 55.8323C55.7237 55.8323 57.2953 54.4362 57.6882 53.7508C57.8888 53.4164 57.6798 52.9148 57.1448 53.0653Z" fill="#E39400"/>
<path d="M54.2355 3.60284C54.2355 3.60284 53.851 3.59448 53.6754 3.59448C53.5083 3.59448 53.1154 3.60284 53.1154 3.60284C31.6401 4.02081 25.1616 16.936 25.1616 25.8973C25.1616 34.6078 25.17 41.0027 25.17 41.0027C25.17 41.0027 25.5127 40.6516 26.1397 40.1584C26.8084 39.6317 27.5608 39.3392 27.5608 39.3392L28.6475 46.6118L35.8031 31.6569C35.8449 31.565 35.9452 31.5064 36.0455 31.5232L40.2837 31.9913C44.547 32.4678 48.827 32.6935 53.1154 32.7102V32.7185C53.2993 32.7185 53.4832 32.7102 53.6754 32.7102C53.8594 32.7102 54.0433 32.7185 54.2355 32.7185V32.7102C58.5155 32.6935 62.8039 32.4678 67.0672 31.9913L71.3054 31.5232C71.4057 31.5148 71.506 31.565 71.5478 31.6569L78.7034 46.6118L79.7901 39.3392C79.7901 39.3392 80.5341 39.6317 81.2112 40.1584C81.8465 40.6516 82.1809 41.0027 82.1809 41.0027C82.1809 41.0027 82.1893 34.6078 82.1893 25.8973C82.1893 16.9444 75.7191 4.02081 54.2355 3.60284Z" fill="#6D4C41"/>
</g>
<defs>
<clipPath id="clip0_109_652">
<rect width="107" height="107" fill="white"/>
</clipPath>
</defs>
</svg>
