<svg width="399" height="24" viewBox="0 0 399 24" fill="none" xmlns="http://www.w3.org/2000/svg">
<path d="M10 12L3.05176e-05 16.7735V5.2265L10 10V12ZM144.014 12H9.00003V10H144.014V12Z" fill="#CD2727"/>
<path d="M153.257 17.036H152.933C152.285 17.036 151.733 16.928 151.277 16.712C150.821 16.484 150.467 16.106 150.215 15.578C149.963 15.05 149.837 14.318 149.837 13.382V3.95C149.837 3.818 149.873 3.71 149.945 3.626C150.029 3.542 150.149 3.5 150.305 3.5H150.935C151.079 3.5 151.181 3.542 151.241 3.626C151.301 3.698 151.331 3.794 151.331 3.914V13.076C151.331 13.712 151.397 14.192 151.529 14.516C151.673 14.828 151.889 15.038 152.177 15.146C152.477 15.254 152.861 15.308 153.329 15.308H153.527C153.707 15.308 153.797 15.398 153.797 15.578V16.496C153.797 16.856 153.617 17.036 153.257 17.036ZM153.256 17.036C153.076 17.036 152.986 16.94 152.986 16.748V15.848C152.986 15.488 153.166 15.308 153.526 15.308H153.76C154.312 15.308 154.738 15.17 155.038 14.894C155.338 14.618 155.488 14.096 155.488 13.328V11.528C155.488 11.252 155.62 11.114 155.884 11.114H156.568C156.832 11.114 156.964 11.252 156.964 11.528V13.328C156.964 14.108 157.138 14.636 157.486 14.912C157.834 15.176 158.326 15.308 158.962 15.308H159.286C159.466 15.308 159.556 15.398 159.556 15.578V16.496C159.556 16.856 159.376 17.036 159.016 17.036C158.416 17.036 157.852 16.928 157.324 16.712C156.808 16.484 156.388 16.064 156.064 15.452C155.8 16.076 155.41 16.496 154.894 16.712C154.378 16.928 153.832 17.036 153.256 17.036ZM156.406 9.314C156.346 9.374 156.274 9.404 156.19 9.404C156.106 9.392 156.028 9.356 155.956 9.296L155.272 8.612C155.212 8.54 155.182 8.462 155.182 8.378C155.182 8.294 155.212 8.222 155.272 8.162L155.956 7.478C156.028 7.406 156.1 7.37 156.172 7.37C156.256 7.37 156.328 7.406 156.388 7.478L157.072 8.162C157.24 8.318 157.246 8.474 157.09 8.63L156.406 9.314ZM159.004 17.036C158.932 17.036 158.872 17.018 158.824 16.982C158.776 16.934 158.752 16.838 158.752 16.694V15.722C158.752 15.554 158.8 15.446 158.896 15.398C158.992 15.338 159.118 15.308 159.274 15.308C159.97 15.296 160.546 15.272 161.002 15.236C161.458 15.2 161.854 15.146 162.19 15.074C162.526 14.99 162.85 14.894 163.162 14.786L160.984 12.95C160.816 12.794 160.708 12.65 160.66 12.518C160.612 12.386 160.588 12.224 160.588 12.032V11.474C160.588 11.234 160.636 11.06 160.732 10.952C160.828 10.832 160.96 10.73 161.128 10.646C161.656 10.358 162.226 10.154 162.838 10.034C163.45 9.914 164.056 9.854 164.656 9.854C165.892 9.854 166.816 10.058 167.428 10.466C168.04 10.862 168.346 11.372 168.346 11.996C168.346 12.368 168.25 12.716 168.058 13.04C167.866 13.352 167.596 13.652 167.248 13.94C166.9 14.228 166.492 14.534 166.024 14.858C166.348 15.026 166.708 15.146 167.104 15.218C167.5 15.278 167.878 15.308 168.238 15.308H169.912C170.092 15.308 170.182 15.392 170.182 15.56V16.496C170.182 16.856 170.002 17.036 169.642 17.036H168.976C168.364 17.036 167.836 17.018 167.392 16.982C166.96 16.946 166.576 16.886 166.24 16.802C165.916 16.706 165.61 16.586 165.322 16.442C165.046 16.298 164.752 16.118 164.44 15.902C164.116 16.082 163.804 16.244 163.504 16.388C163.204 16.532 162.862 16.652 162.478 16.748C162.094 16.844 161.62 16.916 161.056 16.964C160.504 17.012 159.82 17.036 159.004 17.036ZM164.692 14.336C165.304 13.964 165.814 13.61 166.222 13.274C166.642 12.926 166.852 12.614 166.852 12.338C166.852 12.158 166.774 11.996 166.618 11.852C166.474 11.708 166.234 11.594 165.898 11.51C165.574 11.414 165.142 11.366 164.602 11.366C164.182 11.366 163.744 11.414 163.288 11.51C162.832 11.594 162.358 11.744 161.866 11.96L164.692 14.336ZM169.801 17.036C169.633 17.036 169.519 17.006 169.459 16.946C169.399 16.874 169.375 16.796 169.387 16.712C169.387 16.628 169.387 16.556 169.387 16.496V15.758C169.387 15.566 169.411 15.446 169.459 15.398C169.507 15.338 169.621 15.308 169.801 15.308H173.815C174.487 15.308 175.009 15.2 175.381 14.984C175.765 14.756 176.023 14.384 176.155 13.868C176.299 13.352 176.341 12.638 176.281 11.726L176.623 12.104C176.347 12.488 175.969 12.77 175.489 12.95C175.021 13.13 174.553 13.22 174.085 13.22C173.485 13.22 172.963 13.106 172.519 12.878C172.087 12.638 171.757 12.308 171.529 11.888C171.301 11.456 171.187 10.958 171.187 10.394C171.199 9.794 171.349 9.26 171.637 8.792C171.925 8.324 172.303 7.958 172.771 7.694C173.239 7.418 173.737 7.28 174.265 7.28C174.997 7.28 175.609 7.472 176.101 7.856C176.605 8.24 176.989 8.768 177.253 9.44C177.517 10.112 177.649 10.886 177.649 11.762C177.649 12.542 177.589 13.256 177.469 13.904C177.361 14.552 177.157 15.11 176.857 15.578C176.557 16.046 176.131 16.406 175.579 16.658C175.039 16.91 174.343 17.036 173.491 17.036H169.801ZM174.121 11.69C174.481 11.69 174.853 11.63 175.237 11.51C175.633 11.378 175.975 11.192 176.263 10.952C176.227 10.628 176.125 10.298 175.957 9.962C175.789 9.626 175.549 9.344 175.237 9.116C174.937 8.876 174.559 8.756 174.103 8.756C173.755 8.756 173.455 8.84 173.203 9.008C172.963 9.164 172.777 9.362 172.645 9.602C172.525 9.842 172.465 10.07 172.465 10.286C172.465 10.754 172.627 11.108 172.951 11.348C173.287 11.576 173.677 11.69 174.121 11.69ZM173.149 5.318C173.089 5.378 173.017 5.408 172.933 5.408C172.849 5.408 172.771 5.372 172.699 5.3L172.051 4.634C171.991 4.562 171.961 4.49 171.961 4.418C171.961 4.334 171.991 4.256 172.051 4.184L172.699 3.518C172.771 3.446 172.849 3.41 172.933 3.41C173.017 3.41 173.089 3.446 173.149 3.518L173.815 4.184C173.887 4.244 173.923 4.322 173.923 4.418C173.935 4.502 173.905 4.58 173.833 4.652L173.149 5.318ZM175.831 5.318C175.771 5.39 175.699 5.42 175.615 5.408C175.531 5.396 175.453 5.36 175.381 5.3L174.697 4.634C174.637 4.574 174.607 4.502 174.607 4.418C174.607 4.322 174.637 4.244 174.697 4.184L175.381 3.518C175.453 3.446 175.525 3.41 175.597 3.41C175.669 3.41 175.741 3.446 175.813 3.518L176.479 4.184C176.551 4.244 176.587 4.322 176.587 4.418C176.587 4.502 176.551 4.58 176.479 4.652L175.831 5.318ZM180.452 17.09C180.332 17.09 180.23 17.054 180.146 16.982C180.074 16.898 180.038 16.796 180.038 16.676V3.914C180.038 3.794 180.074 3.698 180.146 3.626C180.23 3.542 180.332 3.5 180.452 3.5H181.118C181.25 3.5 181.352 3.542 181.424 3.626C181.496 3.698 181.532 3.794 181.532 3.914V16.676C181.532 16.796 181.496 16.898 181.424 16.982C181.352 17.054 181.25 17.09 181.118 17.09H180.452ZM184.701 21.428C184.497 21.428 184.341 21.386 184.233 21.302C184.125 21.23 184.071 21.11 184.071 20.942V20.15C184.071 20.018 184.113 19.916 184.197 19.844C184.281 19.784 184.413 19.754 184.593 19.754H185.655C186.831 19.754 187.755 19.52 188.427 19.052C189.111 18.584 189.543 17.882 189.723 16.946H188.445C187.713 16.946 187.077 16.838 186.537 16.622C186.009 16.394 185.601 16.064 185.313 15.632C185.037 15.188 184.899 14.66 184.899 14.048C184.899 13.628 184.965 13.232 185.097 12.86C185.241 12.488 185.445 12.158 185.709 11.87C185.973 11.582 186.297 11.354 186.681 11.186C187.065 11.018 187.491 10.934 187.959 10.934C189.027 10.934 189.813 11.3 190.317 12.032C190.833 12.764 191.109 13.856 191.145 15.308H192.621C192.801 15.308 192.891 15.398 192.891 15.578V16.496C192.891 16.856 192.711 17.036 192.351 17.036H191.037C190.713 18.584 190.095 19.7 189.183 20.384C188.271 21.08 187.047 21.428 185.511 21.428H184.701ZM188.463 15.362H189.849C189.813 14.414 189.633 13.688 189.309 13.184C188.985 12.68 188.487 12.428 187.815 12.428C187.419 12.428 187.101 12.506 186.861 12.662C186.621 12.818 186.441 13.01 186.321 13.238C186.213 13.466 186.159 13.694 186.159 13.922C186.159 14.414 186.357 14.78 186.753 15.02C187.161 15.248 187.731 15.362 188.463 15.362ZM198.92 17.144C198.644 17.144 198.386 17.12 198.146 17.072C197.906 17.036 197.648 16.97 197.372 16.874C197.108 16.766 196.79 16.616 196.418 16.424C196.046 16.22 195.578 15.956 195.014 15.632C194.726 16.052 194.432 16.364 194.132 16.568C193.832 16.76 193.532 16.886 193.232 16.946C192.944 17.006 192.65 17.036 192.35 17.036C192.17 17.036 192.08 16.946 192.08 16.766V15.848C192.08 15.488 192.26 15.308 192.62 15.308C192.872 15.308 193.094 15.272 193.286 15.2C193.478 15.128 193.676 14.978 193.88 14.75C194.096 14.522 194.342 14.162 194.618 13.67C195.086 12.866 195.518 12.254 195.914 11.834C196.322 11.414 196.718 11.126 197.102 10.97C197.486 10.814 197.882 10.736 198.29 10.736C198.866 10.736 199.394 10.892 199.874 11.204C200.354 11.504 200.738 11.918 201.026 12.446C201.314 12.962 201.458 13.562 201.458 14.246C201.458 14.702 201.398 15.11 201.278 15.47C201.158 15.83 200.984 16.136 200.756 16.388C200.528 16.64 200.258 16.832 199.946 16.964C199.634 17.084 199.292 17.144 198.92 17.144ZM198.974 15.542C199.25 15.542 199.484 15.458 199.676 15.29C199.88 15.122 199.982 14.798 199.982 14.318C199.994 13.91 199.91 13.556 199.73 13.256C199.562 12.956 199.334 12.722 199.046 12.554C198.77 12.374 198.47 12.284 198.146 12.284C197.918 12.284 197.69 12.332 197.462 12.428C197.246 12.524 197.006 12.71 196.742 12.986C196.49 13.262 196.19 13.688 195.842 14.264C196.466 14.636 196.958 14.918 197.318 15.11C197.69 15.29 197.996 15.41 198.236 15.47C198.488 15.518 198.734 15.542 198.974 15.542ZM213.476 23.426C212.612 23.426 211.844 23.312 211.172 23.084C210.5 22.868 209.93 22.55 209.462 22.13C208.994 21.722 208.64 21.218 208.4 20.618C208.16 20.018 208.046 19.346 208.058 18.602C208.058 17.858 208.262 17.12 208.67 16.388C209.078 15.656 209.654 14.978 210.398 14.354C211.154 13.718 212.048 13.19 213.08 12.77C214.112 12.338 215.252 12.056 216.5 11.924L216.932 12.932C215.528 13.22 214.346 13.592 213.386 14.048C212.438 14.492 211.676 14.978 211.1 15.506C210.524 16.022 210.11 16.544 209.858 17.072C209.606 17.6 209.48 18.086 209.48 18.53C209.48 19.166 209.606 19.724 209.858 20.204C210.11 20.684 210.542 21.056 211.154 21.32C211.778 21.584 212.618 21.716 213.674 21.716H216.59C216.878 21.716 217.022 21.866 217.022 22.166V22.976C217.022 23.276 216.878 23.426 216.59 23.426H213.476ZM217.778 17.036C217.118 17.036 216.542 16.928 216.05 16.712C215.57 16.496 215.18 16.124 214.88 15.596C214.58 15.068 214.388 14.324 214.304 13.364L215.294 13.184C215.366 13.688 215.48 14.102 215.636 14.426C215.792 14.738 216.032 14.966 216.356 15.11C216.68 15.242 217.124 15.308 217.688 15.308H219.704C219.788 15.308 219.86 15.332 219.92 15.38C219.992 15.428 220.028 15.494 220.028 15.578V16.514C220.052 16.862 219.89 17.036 219.542 17.036H217.778ZM216.374 13.022V12.806C215.81 12.806 215.318 12.752 214.898 12.644C214.49 12.524 214.124 12.38 213.8 12.212C213.488 12.032 213.188 11.858 212.9 11.69C212.612 11.51 212.3 11.36 211.964 11.24C211.64 11.108 211.268 11.042 210.848 11.042C210.44 11.042 210.128 11.114 209.912 11.258C209.708 11.402 209.54 11.57 209.408 11.762C209.336 11.882 209.264 11.972 209.192 12.032C209.12 12.08 209.006 12.104 208.85 12.104H208.4C208.1 12.104 207.95 11.972 207.95 11.708C207.95 11.48 208.01 11.24 208.13 10.988C208.25 10.724 208.43 10.472 208.67 10.232C208.922 9.992 209.228 9.8 209.588 9.656C209.96 9.512 210.398 9.44 210.902 9.44C211.394 9.44 211.838 9.506 212.234 9.638C212.63 9.77 213.002 9.938 213.35 10.142C213.71 10.346 214.064 10.55 214.412 10.754C214.772 10.958 215.162 11.126 215.582 11.258C216.002 11.39 216.482 11.456 217.022 11.456H217.58C217.76 11.456 217.874 11.492 217.922 11.564C217.982 11.636 218.012 11.756 218.012 11.924V12.59C218.012 12.71 217.97 12.812 217.886 12.896C217.802 12.98 217.694 13.022 217.562 13.022H216.374ZM219.508 17.036C219.316 17.036 219.22 16.94 219.22 16.748V15.812C219.22 15.656 219.268 15.536 219.364 15.452C219.448 15.356 219.568 15.308 219.724 15.308C220.228 15.308 220.666 15.302 221.038 15.29C221.422 15.266 221.752 15.236 222.028 15.2C222.316 15.152 222.562 15.104 222.766 15.056C222.538 14.876 222.304 14.666 222.064 14.426C221.836 14.174 221.644 13.892 221.488 13.58C221.344 13.256 221.266 12.884 221.254 12.464C221.254 11.828 221.404 11.276 221.704 10.808C222.016 10.34 222.418 9.974 222.91 9.71C223.414 9.446 223.954 9.314 224.53 9.314C225.094 9.314 225.604 9.446 226.06 9.71C226.516 9.974 226.882 10.334 227.158 10.79C227.434 11.246 227.572 11.768 227.572 12.356C227.572 12.908 227.44 13.4 227.176 13.832C226.912 14.252 226.522 14.666 226.006 15.074C226.402 15.146 226.744 15.2 227.032 15.236C227.332 15.26 227.662 15.278 228.022 15.29C228.382 15.302 228.838 15.308 229.39 15.308C229.474 15.308 229.54 15.332 229.588 15.38C229.648 15.428 229.678 15.5 229.678 15.596V16.46C229.678 16.844 229.486 17.036 229.102 17.036C228.454 17.036 227.902 17.024 227.446 17C227.002 16.964 226.606 16.916 226.258 16.856C225.922 16.796 225.598 16.718 225.286 16.622C224.974 16.514 224.632 16.376 224.26 16.208C223.948 16.364 223.654 16.496 223.378 16.604C223.102 16.712 222.796 16.796 222.46 16.856C222.124 16.916 221.722 16.964 221.254 17C220.786 17.024 220.204 17.036 219.508 17.036ZM224.458 14.588C225.01 14.288 225.424 13.952 225.7 13.58C225.988 13.208 226.132 12.836 226.132 12.464C226.132 11.972 225.982 11.582 225.682 11.294C225.394 10.994 224.986 10.844 224.458 10.844C224.014 10.844 223.612 10.982 223.252 11.258C222.904 11.534 222.73 11.918 222.73 12.41C222.73 12.902 222.892 13.316 223.216 13.652C223.54 13.976 223.954 14.288 224.458 14.588ZM224.764 7.532C224.704 7.592 224.632 7.622 224.548 7.622C224.464 7.61 224.386 7.574 224.314 7.514L223.63 6.83C223.57 6.758 223.54 6.68 223.54 6.596C223.54 6.512 223.57 6.44 223.63 6.38L224.314 5.696C224.386 5.624 224.458 5.588 224.53 5.588C224.614 5.588 224.686 5.624 224.746 5.696L225.43 6.38C225.598 6.536 225.604 6.692 225.448 6.848L224.764 7.532ZM245.053 17.036C244.177 17.036 243.445 16.976 242.857 16.856C242.269 16.724 241.735 16.532 241.255 16.28L242.587 14.966C242.827 15.05 243.067 15.116 243.307 15.164C243.547 15.212 243.823 15.248 244.135 15.272C244.459 15.296 244.855 15.308 245.323 15.308C245.503 15.308 245.593 15.398 245.593 15.578V16.496C245.593 16.856 245.413 17.036 245.053 17.036ZM229.285 17.036C229.165 17.036 229.069 17.018 228.997 16.982C228.913 16.934 228.871 16.808 228.871 16.604V15.704C228.871 15.536 228.919 15.428 229.015 15.38C229.111 15.332 229.243 15.308 229.411 15.308C229.963 15.308 230.377 15.266 230.653 15.182C230.941 15.086 231.133 14.9 231.229 14.624C231.325 14.336 231.373 13.916 231.373 13.364V12.086C231.373 11.81 231.505 11.672 231.769 11.672H232.453C232.717 11.672 232.849 11.81 232.849 12.086V13.292C232.849 13.772 232.915 14.162 233.047 14.462C233.191 14.762 233.431 14.978 233.767 15.11C234.103 15.242 234.553 15.308 235.117 15.308H238.609C239.713 15.308 240.565 15.14 241.165 14.804C241.777 14.468 242.083 13.982 242.083 13.346C242.083 12.842 241.891 12.416 241.507 12.068C241.135 11.708 240.595 11.528 239.887 11.528C239.215 11.528 238.573 11.708 237.961 12.068C237.349 12.428 236.797 12.914 236.305 13.526C235.813 14.138 235.387 14.834 235.027 15.614L233.749 15.47C234.229 14.234 234.811 13.214 235.495 12.41C236.179 11.594 236.923 10.988 237.727 10.592C238.531 10.184 239.347 9.98 240.175 9.98C240.907 9.98 241.519 10.13 242.011 10.43C242.503 10.718 242.875 11.102 243.127 11.582C243.379 12.062 243.505 12.584 243.505 13.148C243.505 14.06 243.283 14.804 242.839 15.38C242.395 15.944 241.771 16.364 240.967 16.64C240.163 16.904 239.215 17.036 238.123 17.036H235.171C234.391 17.036 233.725 16.916 233.173 16.676C232.633 16.424 232.231 15.986 231.967 15.362C231.787 15.974 231.457 16.406 230.977 16.658C230.497 16.91 229.933 17.036 229.285 17.036ZM245.085 17.036C244.977 17.036 244.899 17 244.851 16.928C244.803 16.856 244.779 16.778 244.779 16.694V15.704C244.779 15.536 244.827 15.428 244.923 15.38C245.019 15.332 245.151 15.308 245.319 15.308H245.535C246.123 15.308 246.537 15.152 246.777 14.84C247.029 14.528 247.155 14.06 247.155 13.436C247.155 13.22 247.143 13.022 247.119 12.842C247.107 12.65 247.071 12.446 247.011 12.23L246.705 10.862C246.669 10.718 246.681 10.616 246.741 10.556C246.801 10.484 246.897 10.43 247.029 10.394L247.695 10.25C247.959 10.19 248.121 10.298 248.181 10.574L248.523 12.158C248.583 12.398 248.625 12.674 248.649 12.986C248.685 13.298 248.703 13.532 248.703 13.688C248.703 14.684 248.463 15.494 247.983 16.118C247.503 16.73 246.795 17.036 245.859 17.036H245.085ZM246.093 8.72C246.033 8.78 245.961 8.81 245.877 8.81C245.793 8.81 245.715 8.774 245.643 8.702L244.995 8.036C244.935 7.964 244.905 7.892 244.905 7.82C244.905 7.736 244.935 7.658 244.995 7.586L245.643 6.92C245.715 6.848 245.793 6.812 245.877 6.812C245.961 6.812 246.033 6.848 246.093 6.92L246.759 7.586C246.831 7.646 246.867 7.724 246.867 7.82C246.879 7.904 246.849 7.982 246.777 8.054L246.093 8.72ZM248.775 8.72C248.715 8.792 248.643 8.822 248.559 8.81C248.475 8.798 248.397 8.762 248.325 8.702L247.641 8.036C247.581 7.976 247.551 7.904 247.551 7.82C247.551 7.724 247.581 7.646 247.641 7.586L248.325 6.92C248.397 6.848 248.469 6.812 248.541 6.812C248.613 6.812 248.685 6.848 248.757 6.92L249.423 7.586C249.495 7.646 249.531 7.724 249.531 7.82C249.531 7.904 249.495 7.982 249.423 8.054L248.775 8.72Z" fill="#F15A24"/>
<path d="M388.028 12L398.028 16.7735V5.2265L388.028 10V12ZM254.014 12H389.028V10H254.014V12Z" fill="#CD2727"/>
</svg>
