<svg width="147" height="167" viewBox="0 0 147 167" fill="none" xmlns="http://www.w3.org/2000/svg">
<path d="M139.133 114.628C139.133 114.628 132.566 114.849 129.565 111.183L126.042 116.019C126.042 116.019 130.876 120.517 139.133 120.192V114.628Z" fill="#ED1C24"/>
<path d="M7.48052 29.5429C7.48052 29.5429 4.06152 32.9359 0.603516 32.4549L1.12352 36.8229C1.12352 36.8229 5.97252 36.8359 10.2625 32.5459L7.48052 29.5429Z" fill="#F15A24"/>
<path d="M102.953 5.31071C102.953 5.31071 107.607 6.55871 108.933 9.76971L112.443 7.11771C112.443 7.11771 109.999 2.91871 104.135 1.39771L102.953 5.31071Z" fill="#F15A24"/>
<path d="M17.2182 91.2795C17.2182 91.2795 14.5012 85.4945 13.9162 82.9205C13.9162 82.9205 10.7702 82.7775 8.63818 83.7265C8.63818 83.7265 9.58718 89.6675 11.3552 92.6705C11.3552 92.6705 13.9292 92.0855 17.2182 91.2795Z" fill="#ED1C24"/>
<path d="M141.666 54.8929C141.666 54.8929 139.066 59.7159 137.597 61.4319C137.597 61.4319 139.105 63.6809 140.847 64.6559C140.847 64.6559 144.449 60.9639 145.618 58.2209C145.632 58.2079 143.915 56.7519 141.666 54.8929Z" fill="#ED1C24"/>
<path d="M35.3135 152.275C35.3135 152.275 40.6695 153.434 42.7235 154.368C42.7235 154.368 44.4655 152.303 44.9205 150.353C44.9205 150.353 40.3835 147.909 37.4195 147.556C37.4065 147.556 36.4705 149.61 35.3135 152.275Z" fill="#ED1C24"/>
<path d="M75.7826 148.194C76.3676 151.977 77.9406 165.549 85.8966 165.419C88.6786 165.367 90.3166 163.911 91.2266 161.792C92.9556 157.84 92.2146 151.613 91.8246 147.999L78.0316 142.825C78.0316 142.825 77.6546 143.033 77.2126 143.475C76.4326 144.267 75.4056 145.776 75.7826 148.194Z" fill="#F15A24"/>
<path d="M75.7826 148.194C76.3676 151.977 77.9406 165.549 85.8966 165.419C88.6786 165.367 90.3166 163.911 91.2266 161.792C91.2266 161.792 86.7416 165.315 83.5046 160.128C80.2806 154.94 77.9536 143.397 77.9536 143.397C77.9536 143.397 77.6546 143.423 77.2126 143.475C76.4326 144.267 75.4056 145.776 75.7826 148.194Z" fill="#F15A24"/>
<path d="M78.2015 144.046C78.1352 144.098 78.0585 144.178 77.9935 144.241C77.3162 144.917 76.5765 146.113 76.8625 148.026C76.8872 148.234 76.9275 148.455 76.9665 148.713C77.6035 152.99 79.2805 164.328 85.7935 164.328H85.8845C87.9892 164.287 89.3815 163.353 90.2395 161.351C91.7475 157.891 91.2015 152.288 90.8245 148.765L78.2015 144.046ZM85.7805 166.51C77.4085 166.51 75.5222 153.835 74.8085 149.038C74.7682 148.791 74.7435 148.559 74.7045 148.362C74.2495 145.413 75.6015 143.552 76.4452 142.709C76.9795 142.176 77.4475 141.903 77.4995 141.875C77.7725 141.719 78.1105 141.693 78.4095 141.81L92.2025 146.986C92.5912 147.127 92.8525 147.48 92.9045 147.881L92.9435 148.245C93.3335 151.95 93.9952 158.138 92.2142 162.22C91.0182 164.978 88.8355 166.445 85.8975 166.499C85.8702 166.51 85.8182 166.51 85.7805 166.51Z" fill="#F15A24"/>
<path d="M77.2515 145.242C76.9005 145.92 76.6808 146.841 76.8615 148.026C76.8875 148.234 76.9265 148.455 76.9655 148.713C77.6038 152.99 79.2808 164.328 85.7925 164.328H85.8848C86.5205 164.313 87.0925 164.224 87.5995 164.04C87.3785 164.027 87.1445 164.003 86.9235 163.962C85.2075 163.663 83.7515 162.558 82.5945 160.701C80.0075 156.552 78.0185 148.663 77.2515 145.242ZM85.7808 166.51C77.4075 166.51 75.5225 153.835 74.8075 149.038C74.7685 148.791 74.7425 148.559 74.7035 148.362C74.2485 145.413 75.6005 143.552 76.4455 142.709C76.6145 142.538 76.8485 142.421 77.0825 142.397C77.5505 142.345 77.8495 142.317 77.8495 142.317C78.3955 142.265 78.9038 142.642 79.0195 143.188C79.0455 143.307 81.3465 154.602 84.4288 159.557C85.2465 160.87 86.1955 161.635 87.2745 161.817C88.9788 162.129 90.5375 160.933 90.5635 160.922C90.9535 160.621 91.5125 160.621 91.9038 160.922C92.2925 161.219 92.4355 161.752 92.2288 162.209C91.0328 164.963 88.8475 166.434 85.9095 166.486C85.8705 166.51 85.8185 166.51 85.7808 166.51Z" fill="#F15A24"/>
<path d="M60.3652 116.513C60.7032 118.359 61.1062 119.62 61.1062 119.62L61.9902 127.251L78.0321 129.214C78.0711 125.977 77.2001 122.337 75.7831 118.45C75.7831 118.45 83.9991 119.815 83.8041 128.044C83.6741 133.647 80.5411 138.886 78.5521 141.655C77.5901 142.994 77.7981 144.853 79.0331 145.932C81.4901 148.09 86.0141 150.665 91.8251 148.012L93.5151 146.036L98.6761 139.992C98.6761 139.992 97.9091 126.523 87.9121 115.72C77.9021 104.917 71.2071 100.159 64.4211 102.993C59.1432 105.19 59.5852 112.34 60.3652 116.513Z" fill="#F15A24"/>
<mask id="mask0_197_1312" style="mask-type:luminance" maskUnits="userSpaceOnUse" x="59" y="102" width="40" height="45">
<path d="M59.897 102.189H98.689V146.036H59.897V102.189Z" fill="white"/>
</mask>
<g mask="url(#mask0_197_1312)">
<g opacity="0.199997">
<path d="M60.3647 116.513C61.2097 114.576 62.4837 112.847 64.4337 112.275C69.6597 110.728 75.3407 117.579 75.3407 117.579C87.1577 121.401 83.3864 131.359 87.9247 136.364C90.9797 139.744 92.7217 143.774 93.5277 146.036L98.6887 139.991C98.6887 139.991 97.9217 126.523 87.9247 115.72C77.9147 104.917 71.2197 100.159 64.4337 102.993C59.1427 105.19 59.5847 112.34 60.3647 116.513Z" fill="#F15A24"/>
</g>
</g>
<path d="M75.7825 117.358C75.8475 117.358 75.8995 117.358 75.9645 117.371C79.1235 117.904 85.0645 120.816 84.8955 128.057C84.7525 133.998 81.4245 139.511 79.4485 142.279C78.8115 143.176 78.9415 144.386 79.7605 145.113C82.1915 147.245 86.1435 149.299 91.1745 147.115L97.5705 139.627C97.3365 137.3 95.7635 125.769 87.1315 116.461C76.4065 104.878 70.5695 101.615 64.8625 104.007C58.2455 106.776 62.1065 119.191 62.1585 119.308C62.1845 119.373 62.1975 119.438 62.1975 119.516L62.9905 126.302L76.9395 128.005C76.7848 125.405 76.0815 122.389 74.7815 118.84C74.6515 118.476 74.7165 118.073 74.9635 117.774C75.1598 117.501 75.4705 117.358 75.7825 117.358ZM86.9365 150.209C83.0365 150.209 80.0348 148.233 78.3305 146.738C76.6665 145.282 76.3805 142.813 77.6805 141.005C79.5135 138.444 82.5945 133.361 82.7245 128.005C82.8415 123.143 79.6565 120.998 77.4985 120.101C78.6165 123.585 79.1495 126.588 79.1235 129.214C79.1235 129.526 78.9805 129.813 78.7465 130.02C78.5125 130.228 78.2005 130.319 77.9015 130.28L61.8595 128.317C61.3655 128.252 60.9625 127.863 60.9105 127.368L60.0395 119.841C59.6105 118.437 55.8405 105.385 64.0175 101.979C71.6615 98.7937 78.8635 104.332 88.7175 114.966C98.8705 125.925 99.7415 139.354 99.7675 139.913C99.7805 140.186 99.6895 140.472 99.5075 140.68L92.6565 148.701C92.5525 148.818 92.4225 148.922 92.2795 148.988C90.3685 149.871 88.5615 150.209 86.9365 150.209Z" fill="#F15A24"/>
<path d="M74.8081 118.931L72.6761 113.146C72.5071 112.691 73.1441 112.379 73.4041 112.782L76.7451 117.956C77.0701 118.463 76.9271 119.139 76.4201 119.464C75.8611 119.854 75.0421 119.581 74.8081 118.931Z" fill="#F15A24"/>
<path d="M59.7669 134.037C60.2869 136.285 63.0429 140.367 69.6469 141.148C76.2509 141.927 78.1619 139.588 79.2929 137.365C79.6309 136.702 79.7869 135.908 79.7739 135.05C79.7089 131.371 76.4069 126.483 69.4519 125.665C65.4089 125.183 62.7699 126.562 61.2619 128.446C59.8319 130.227 59.4029 132.477 59.7669 134.037Z" fill="#F15A24"/>
<path d="M59.7669 134.037C60.2869 136.285 63.0429 140.367 69.6469 141.148C76.2509 141.927 78.1619 139.588 79.2929 137.365C79.6309 136.702 79.7869 135.908 79.7739 135.05C79.6959 134.869 76.9386 129.031 67.5539 128.069C65.2659 127.835 62.9129 128.265 61.2619 128.433C59.8319 130.227 59.4029 132.477 59.7669 134.037Z" fill="#F15A24"/>
<path d="M67.8918 126.64C64.9798 126.64 63.2638 127.81 62.3278 128.863C60.8848 130.475 60.5468 132.542 60.8328 133.777C61.2618 135.636 63.6928 139.328 69.7768 140.056C75.7958 140.771 77.3428 138.782 78.3308 136.858C78.9548 135.623 78.7598 133.686 77.8368 131.944C76.3028 129.084 73.2088 127.173 69.3478 126.718C68.8148 126.679 68.3468 126.64 67.8918 126.64ZM72.0778 142.396C71.2978 142.396 70.4528 142.344 69.5298 142.24C62.2628 141.382 59.3118 136.845 58.7268 134.297C58.2978 132.463 58.7528 129.63 60.7158 127.433C62.1458 125.821 64.8628 124.027 69.5948 124.586C74.1708 125.119 77.8758 127.446 79.7478 130.943C81.0218 133.335 81.2298 135.987 80.2678 137.872C79.0978 140.147 77.1998 142.396 72.0778 142.396Z" fill="#F15A24"/>
<path d="M66.1888 132.152C65.3308 132.152 64.5118 132.243 63.7708 132.413C62.2238 132.776 61.2098 133.491 60.9888 134.388C60.7678 135.286 61.3398 136.39 62.5358 137.43C63.8878 138.588 65.8378 139.523 68.0348 140.056C70.2318 140.589 72.4028 140.667 74.1318 140.264C75.6788 139.9 76.6928 139.186 76.9138 138.288C77.1348 137.391 76.5615 136.286 75.3668 135.246C74.0148 134.089 72.0648 133.153 69.8678 132.62C68.6068 132.309 67.3588 132.152 66.1888 132.152ZM71.7398 141.889C70.4658 141.889 69.1008 141.72 67.7358 141.382C65.3308 140.797 63.1728 139.757 61.6648 138.457C60.0398 137.053 59.3248 135.493 59.6758 134.063C60.0268 132.634 61.3658 131.567 63.4718 131.086C65.4088 130.631 67.8008 130.709 70.2058 131.294C72.6108 131.879 74.7688 132.919 76.2768 134.219C77.9018 135.623 78.6168 137.184 78.2658 138.613C77.9148 140.043 76.5758 141.109 74.4698 141.59C73.6248 141.798 72.7018 141.889 71.7398 141.889Z" fill="#F15A24"/>
<path d="M60.4298 133.881C60.8848 135.831 63.4198 139.717 69.7248 140.471C75.7178 141.187 77.5768 139.25 78.6831 137.052C78.9418 136.533 79.0848 135.896 79.0978 135.207C78.6298 134.336 75.7178 129.577 67.4888 128.746C66.5658 128.654 65.5518 128.654 64.3168 128.771C63.1338 128.875 62.0288 129.461 61.2748 130.371C60.5598 131.242 60.2348 132.321 60.3518 133.425C60.3648 133.582 60.3908 133.738 60.4298 133.881ZM72.0518 141.979C71.2978 141.979 70.4658 141.927 69.5688 141.823C62.5098 140.992 59.6368 136.467 59.1168 134.192C59.0648 133.998 59.0388 133.777 59.0128 133.569C58.8568 132.113 59.2858 130.669 60.2348 129.513C61.2098 128.317 62.6658 127.55 64.1998 127.419C65.5258 127.302 66.6178 127.29 67.6318 127.394C77.0828 128.356 80.0858 134.102 80.3978 134.752C80.4368 134.842 80.4628 134.946 80.4628 135.05C80.4758 136.013 80.2938 136.936 79.9038 137.677C78.7988 139.848 76.9788 141.979 72.0518 141.979Z" fill="#F15A24"/>
<path d="M60.4169 136.338C60.0919 136.338 59.8059 136.104 59.7409 135.766C59.6759 135.402 59.9359 135.051 60.2999 134.986L73.7809 132.763C74.1579 132.698 74.4959 132.958 74.5596 133.322C74.6259 133.686 74.3659 134.037 74.0019 134.102L60.5209 136.325C60.4949 136.338 60.4559 136.338 60.4169 136.338Z" fill="#F15A24"/>
<path d="M63.6672 139.731C63.3552 139.731 63.0692 139.51 63.0042 139.185C62.9262 138.821 63.1732 138.457 63.5372 138.379L77.0832 135.675C77.4472 135.596 77.8099 135.844 77.8892 136.208C77.9672 136.571 77.7202 136.936 77.3562 137.013L63.8102 139.717C63.7452 139.717 63.7062 139.731 63.6672 139.731Z" fill="#F15A24"/>
<path d="M46.3246 116.578C46.9746 119.061 47.9106 120.751 49.1716 120.985C51.3036 121.375 53.6176 121.037 55.6196 120.504C55.6326 120.504 55.6456 120.491 55.6586 120.491C58.6226 119.685 60.8976 118.437 60.8976 118.437C60.8976 118.437 60.1436 115.005 60.5986 111.612C61.0146 108.583 62.4056 105.58 66.1886 105.125C68.0346 104.904 70.0236 105.203 72.0386 105.892C78.7856 108.219 85.9096 114.953 89.6809 121.141C92.4226 125.652 93.3196 129.344 94.4766 132.659C95.3866 135.259 96.4539 137.625 98.6886 139.952L91.8376 147.973C91.8376 147.973 97.4809 152.68 106.593 150.236C106.606 150.236 106.606 150.236 106.619 150.222C109.245 149.507 112.17 148.207 115.329 146.011C115.329 146.011 105.735 135.441 105.931 122.714C106.125 109.987 102.992 96.4796 100.444 92.1766C100.444 92.1766 116.837 79.9566 123.363 67.8276C123.948 66.7486 124.325 65.5916 124.494 64.4086C124.754 62.6016 124.546 60.7296 123.858 58.9876C121.712 53.5796 116.929 44.3756 107.698 38.7856C107.698 38.7856 104.617 50.3166 91.6309 59.5986C89.2116 61.3276 86.4556 62.9786 83.3226 64.4476C83.1536 64.5256 82.9716 64.6166 82.8039 64.6946C82.3476 64.9026 81.8926 65.1106 81.4246 65.3056C81.2686 65.3706 81.1126 65.4356 80.9579 65.5006C80.2676 65.7866 79.5539 66.0726 78.8246 66.3456C78.6426 66.4106 78.4606 66.4756 78.2786 66.5536C77.9289 66.6836 77.5636 66.8136 77.1996 66.9306C77.0059 66.9956 76.7966 67.0606 76.6016 67.1386C76.4196 67.2036 76.2519 67.2556 76.0686 67.3206C75.9269 67.3726 75.7826 67.4246 75.6396 67.4766C75.5226 67.5156 75.4056 67.5676 75.2886 67.6066C75.1079 67.6846 74.9116 67.7496 74.7309 67.8276C74.5606 67.8926 74.3786 67.9706 74.2096 68.0486C74.1446 68.0746 74.0926 68.1006 74.0276 68.1266C73.8456 68.2046 73.6636 68.2826 73.4946 68.3736C73.2866 68.4646 73.0916 68.5686 72.8836 68.6726C72.4806 68.8676 72.0776 69.0886 71.6746 69.3096C71.4796 69.4136 71.2716 69.5306 71.0766 69.6476C70.6866 69.8686 70.2966 70.1156 69.9196 70.3626C69.9066 70.3756 69.8936 70.3756 69.8806 70.3886C69.6986 70.5056 69.5166 70.6356 69.3216 70.7526C69.1266 70.8826 68.9446 71.0126 68.7496 71.1426C68.7366 71.1426 68.7366 71.1556 68.7236 71.1556C68.5416 71.2856 68.3726 71.4156 68.1906 71.5456C68.0216 71.6626 67.8526 71.7926 67.6966 71.9226C67.5016 72.0786 67.2936 72.2346 67.0986 72.4036C66.7476 72.6896 66.3966 72.9886 66.0456 73.3006C66.0196 73.3136 66.0066 73.3396 65.9806 73.3526C65.8116 73.4956 65.6556 73.6516 65.4996 73.7946C65.3306 73.9506 65.1616 74.1066 65.0056 74.2626L64.9796 74.2886C64.8236 74.4446 64.6676 74.6006 64.5116 74.7566C64.2906 74.9776 64.0696 75.2116 63.8486 75.4456C63.6016 75.7186 63.3546 75.9916 63.1076 76.2646C63.0166 76.3686 62.9256 76.4726 62.8346 76.5896C62.3276 77.1876 61.8336 77.8246 61.3526 78.4746C61.2486 78.6176 61.1316 78.7736 61.0276 78.9296C60.9236 79.0856 60.8066 79.2416 60.7026 79.3976C60.4816 79.7096 60.2736 80.0346 60.0786 80.3596C60.0006 80.4766 59.9226 80.5936 59.8576 80.7236C59.8056 80.8146 59.7406 80.9186 59.6886 81.0096C59.6496 81.0746 59.6106 81.1266 59.5846 81.1916C57.4006 84.8966 55.8146 89.1736 55.0606 93.9576C55.0606 93.9576 51.6286 88.9656 48.2096 91.0196C45.2066 92.8266 44.2706 108.687 46.3246 116.578Z" fill="black"/>
<mask id="mask1_197_1312" style="mask-type:luminance" maskUnits="userSpaceOnUse" x="56" y="45" width="69" height="106">
<path d="M56.855 45.5458H124.108V150.951H56.855V45.5458Z" fill="white"/>
</mask>
<g mask="url(#mask1_197_1312)">
<g opacity="0.199997">
<path d="M74.86 102.174C80.762 100.341 81.009 95.1931 82.309 94.4521C85.585 92.5931 89.654 92.9441 91.799 96.0381C92.644 97.2471 93.853 98.2351 95.608 98.4951C97.246 98.7421 98.624 99.8731 99.157 101.433C100.106 104.189 101.185 109.129 101.185 117.293C101.198 131.658 110.597 142.694 110.818 142.955C110.675 142.903 106.853 144.696 102.602 139.965C100.327 137.417 97.402 134.999 94.503 132.671C95.413 135.271 96.479 137.638 98.715 139.965L91.864 147.986C91.864 147.986 97.506 152.692 106.619 150.248C106.632 150.248 106.632 150.248 106.645 150.235C109.141 149.494 111.884 148.219 114.835 146.165C114.835 146.165 105.241 135.596 105.436 122.87C105.631 110.143 102.498 96.6361 99.95 92.3331C99.95 92.3331 116.343 80.1131 122.869 67.9841C123.454 66.9051 123.831 65.7481 124 64.5651C124.26 62.7581 124.052 60.8861 123.363 59.1441C121.946 55.5561 119.359 50.3041 115.095 45.5461C112.547 47.0021 110.805 48.1461 110.805 48.1461C110.805 48.1461 112.118 51.6691 112.352 56.2451C112.729 63.4211 102.888 65.7741 99.95 59.2221L91.63 59.6121C89.212 61.3411 86.456 62.9921 83.323 64.4611C83.154 64.5391 82.972 64.6301 82.803 64.7081C82.348 64.9161 81.893 65.1241 81.425 65.3191C81.269 65.3841 81.113 65.4491 80.957 65.5141C80.268 65.8001 79.553 66.0861 78.825 66.3591C78.643 66.4241 78.461 66.4891 78.279 66.5671C77.928 66.6971 77.564 66.8271 77.2 66.9441C77.005 67.0091 76.797 67.0741 76.602 67.1521C76.42 67.2171 76.251 67.2691 76.069 67.3341C75.926 67.3861 75.783 67.4381 75.64 67.4901C75.523 67.5291 75.406 67.5811 75.289 67.6201C75.107 67.6981 74.912 67.7631 74.73 67.8411C74.561 67.9061 74.379 67.9841 74.21 68.0621C74.145 68.0881 74.093 68.1141 74.028 68.1401C73.846 68.2181 73.664 68.2961 73.495 68.3871C73.287 68.4781 73.092 68.5821 72.884 68.6861C72.481 68.8811 72.078 69.1021 71.675 69.3231C71.48 69.4271 71.272 69.5441 71.077 69.6611C70.687 69.8951 70.297 70.1291 69.92 70.3761C69.907 70.3891 69.894 70.3891 69.881 70.4021C69.699 70.5191 69.517 70.6491 69.322 70.7661C69.127 70.8961 68.945 71.0261 68.75 71.1561C68.737 71.1561 68.737 71.1691 68.724 71.1691C68.542 71.2991 68.373 71.4291 68.191 71.5591C68.022 71.6761 67.853 71.8061 67.697 71.9361C67.502 72.0921 67.294 72.2481 67.099 72.4171C66.748 72.7031 66.397 73.0021 66.046 73.3141C66.02 73.3271 66.007 73.3531 65.981 73.3661C65.812 73.5091 65.656 73.6651 65.5 73.8081C65.331 73.9641 65.162 74.1201 65.006 74.2761L64.98 74.3021C64.824 74.4581 64.668 74.6141 64.512 74.7701C64.291 74.9911 64.07 75.2251 63.849 75.4591C63.602 75.7321 63.355 76.0051 63.108 76.2781C63.017 76.3821 62.926 76.4861 62.835 76.6031C62.328 77.2011 61.834 77.8381 61.353 78.4881C61.249 78.6311 61.132 78.7871 61.028 78.9431C60.924 79.0991 60.807 79.2551 60.703 79.4111C60.482 79.7231 60.274 80.0481 60.079 80.3731C60.001 80.4901 59.923 80.6071 59.858 80.7371C59.806 80.8281 59.741 80.9321 59.689 81.0231C59.65 81.0881 59.611 81.1401 59.585 81.2051C59.143 87.4451 56.855 94.1141 56.855 94.1141C62.926 100.536 69.127 103.955 74.86 102.174Z" fill="black"/>
</g>
</g>
<mask id="mask2_197_1312" style="mask-type:luminance" maskUnits="userSpaceOnUse" x="45" y="104" width="28" height="18">
<path d="M45.7397 104.364H72.0647V121.314H45.7397V104.364Z" fill="white"/>
</mask>
<g mask="url(#mask2_197_1312)">
<g opacity="0.199997">
<path d="M45.7397 116.422C46.3897 119.061 47.3517 120.894 48.6647 121.141C50.9787 121.57 53.5137 121.141 55.6327 120.517C55.6457 120.517 55.6587 120.504 55.6717 120.504C58.3757 119.711 60.4037 118.593 60.4037 118.593C60.4037 118.593 59.4417 114.771 60.6247 111.625C61.0407 108.596 62.4317 105.593 66.2147 105.138C68.0607 104.917 70.0497 105.216 72.0647 105.905C70.2447 104.722 68.1387 104.176 65.4867 104.423C60.2477 104.93 57.9467 108.882 56.9457 112.002C55.9057 115.239 52.7597 117.358 49.3667 117.098C48.4437 117.033 47.4297 116.864 46.3377 116.578C46.1297 116.539 45.9347 116.474 45.7397 116.422Z" fill="#F15A24"/>
</g>
</g>
<path d="M93.4497 147.778C94.452 148.363 96.2187 149.234 98.5977 149.638C103.421 150.457 108.491 149.169 113.704 145.815C111.338 142.89 104.669 133.661 104.838 122.727C105.033 110.078 101.861 96.7526 99.5077 92.7616C99.2217 92.2806 99.3517 91.6696 99.7937 91.3316C99.9497 91.2146 116.07 79.1116 122.414 67.3336C122.934 66.3716 123.272 65.3446 123.415 64.2656C123.415 64.2396 123.429 64.2266 123.429 64.2006C123.649 62.5886 123.454 60.9246 122.843 59.3906C120.945 54.6196 116.59 46.0006 108.283 40.4496C107.568 42.3736 105.931 46.1176 102.681 50.3946C98.4287 55.9976 90.5117 63.6416 76.902 68.1786C66.0197 71.8056 58.0507 81.7506 56.1007 94.1266C56.0357 94.5686 55.6977 94.9196 55.2687 95.0236C54.8397 95.1276 54.3847 94.9456 54.1377 94.5816C54.1117 94.5426 51.2517 90.4606 48.7427 91.9686C46.9097 93.0606 45.3367 105.398 46.9877 114.511C47.6767 118.294 48.6907 119.789 49.3667 119.906C53.2407 120.621 57.9337 118.658 59.6757 117.826C59.3377 115.733 58.7527 110.286 61.1707 106.867C62.3147 105.242 63.9657 104.293 66.0587 104.033C74.3917 103.019 85.2857 111.833 90.604 120.569C92.879 124.3 93.9177 127.511 94.8407 130.332C95.9197 133.621 96.8427 136.468 99.4557 139.186C99.8457 139.588 99.8587 140.225 99.4947 140.641L93.4497 147.778ZM101.367 152.042C100.145 152.042 99.054 151.925 98.1037 151.757C93.7617 150.976 91.2397 148.922 91.1357 148.832C90.9147 148.649 90.7717 148.376 90.7457 148.09C90.7197 147.805 90.8107 147.518 91.0057 147.297L97.2327 140.005C94.764 137.144 93.802 134.18 92.7737 131.047C91.8897 128.33 90.8887 125.262 88.7437 121.739C83.7517 113.536 73.5597 105.346 66.3187 106.23C64.8367 106.412 63.7317 107.036 62.9387 108.154C60.5207 111.573 61.9377 118.164 61.9507 118.229C62.0547 118.697 61.8337 119.191 61.4047 119.412C61.1317 119.568 54.5537 123.104 48.9507 122.077C46.9747 121.713 45.6357 119.373 44.8297 114.927C43.3737 106.88 44.0627 92.2676 47.6117 90.1356C50.1077 88.6406 52.6167 89.9276 54.3717 91.5786C57.0107 79.4496 65.2267 69.8166 76.2117 66.1506C89.2377 61.8086 96.8167 54.5416 100.873 49.1986C105.281 43.4136 106.619 38.5776 106.633 38.5386C106.736 38.1746 107.022 37.8756 107.386 37.7716C107.646 37.6936 107.906 37.7196 108.14 37.8366C108.179 37.8496 108.206 37.8756 108.244 37.8886C117.852 43.7126 122.779 53.3846 124.858 58.6236C125.612 60.5216 125.86 62.5886 125.56 64.6036C125.56 64.6296 125.547 64.6426 125.547 64.6686C125.352 65.9816 124.936 67.2296 124.312 68.3996C118.462 79.2546 105.163 89.9666 101.822 92.5406C104.5 97.9616 107.179 111.066 106.996 122.792C106.814 134.921 116.018 145.23 116.11 145.334C116.317 145.568 116.421 145.88 116.383 146.192C116.343 146.505 116.174 146.777 115.927 146.959C110.194 150.924 105.177 152.042 101.367 152.042Z" fill="black"/>
<path d="M49.0026 92.7618C48.8466 92.8008 48.0276 93.5678 47.3126 96.5058C46.6756 99.1188 46.3116 102.551 46.3116 106.178C46.3116 109.805 46.6626 113.237 47.3126 115.85C48.0276 118.775 48.8466 119.542 49.0286 119.594C49.1846 119.555 50.0036 118.788 50.7186 115.85C51.3556 113.237 51.7196 109.805 51.7196 106.178C51.7196 102.551 51.3686 99.1188 50.7186 96.5058C50.0036 93.5678 49.1846 92.8008 49.0026 92.7618ZM49.0156 121.752C45.1676 121.752 44.1406 111.963 44.1406 106.165C44.1406 100.38 45.1676 90.5778 49.0156 90.5778C52.8636 90.5778 53.8906 100.367 53.8906 106.165C53.8906 111.95 52.8636 121.752 49.0156 121.752Z" fill="#F15A24"/>
<path d="M49.0157 91.6699C51.1113 91.6699 52.8117 98.1595 52.8117 106.165C52.8117 114.17 51.1113 120.66 49.0157 120.66C46.9188 120.66 45.2197 114.17 45.2197 106.165C45.2197 98.1595 46.9188 91.6699 49.0157 91.6699Z" fill="#F15A24"/>
<path d="M59.9355 118.97C56.5555 112.301 56.2825 104.085 63.9525 100.445L63.3415 101.342L64.6155 91.644C64.7195 90.916 65.7985 90.994 65.7855 91.735L65.4995 101.524C65.4865 101.94 65.2265 102.239 64.8885 102.421C64.2255 102.772 63.5625 103.123 62.9905 103.591C58.4275 106.958 59.5715 113.51 61.8335 117.956C62.5225 119.204 60.6635 120.231 59.9355 118.97Z" fill="black"/>
<path d="M64.0964 100.38C65.1754 100.081 66.4494 100.094 67.5674 100.146C67.8014 100.172 68.7374 100.276 68.9324 100.315C69.0884 100.354 69.5694 100.445 69.7384 100.484C70.0504 100.549 70.5054 100.627 70.7914 100.731C72.8584 101.29 74.8604 102.174 76.7064 103.201L78.5264 104.293C79.3974 104.878 80.2554 105.502 81.1121 106.113C81.6464 106.542 82.9984 107.66 83.5431 108.115C84.0644 108.583 84.5584 109.064 85.0784 109.545C86.0144 110.39 87.1584 111.586 88.0164 112.509C88.4064 112.938 89.0681 113.588 89.4204 114.043L92.0854 117.228C92.2934 117.475 92.2544 117.826 92.0061 118.034C91.7604 118.242 91.3964 118.203 91.1871 117.956L88.4714 114.901C88.1061 114.472 87.4431 113.861 87.0414 113.445C86.1704 112.561 85.0264 111.43 84.0891 110.637C83.5834 110.195 83.0764 109.727 82.5564 109.298L80.9431 108.063C80.4764 107.686 79.8004 107.205 79.3064 106.88C76.5894 105.021 73.5214 103.448 70.3234 102.681C70.0504 102.603 69.6474 102.538 69.3614 102.486C69.1014 102.447 68.6594 102.356 68.3994 102.343L67.4374 102.252H66.4884C65.8904 102.291 65.2664 102.33 64.6814 102.499C63.2904 102.85 62.7054 100.809 64.0964 100.38Z" fill="black"/>
<path d="M55.8928 93.295L60.0788 99.405C60.4428 99.951 59.6888 100.562 59.2338 100.081L54.2028 94.647C53.7998 94.205 53.8258 93.516 54.2678 93.1C54.7228 92.658 55.5158 92.749 55.8928 93.295Z" fill="black"/>
<path d="M91.8374 147.998C91.8374 147.998 101.236 155.826 115.328 146.035C103.589 145.45 98.6897 139.964 98.6897 139.964L91.8374 147.998Z" fill="black"/>
<path d="M93.4492 147.777C94.4515 148.375 96.2182 149.233 98.5972 149.638C102.902 150.377 107.4 149.43 112.026 146.83C104.696 145.84 100.482 142.982 98.7805 141.537L93.4492 147.777ZM101.366 152.041C100.146 152.041 99.0535 151.926 98.1032 151.757C93.7612 150.975 91.2392 148.921 91.1352 148.832C90.9142 148.648 90.7725 148.375 90.7452 148.089C90.7205 147.805 90.8102 147.517 91.0052 147.296L97.8575 139.275C98.0642 139.041 98.3645 138.898 98.6765 138.898H98.6895C99.0015 138.898 99.2992 139.03 99.4955 139.262C99.5345 139.314 104.291 144.41 115.38 144.969C115.85 144.995 116.24 145.309 116.368 145.762C116.5 146.204 116.331 146.685 115.939 146.958C110.193 150.923 105.177 152.041 101.366 152.041Z" fill="black"/>
<path d="M59.8975 92.6057C61.8215 95.0887 72.3255 97.2987 80.5545 91.6697C88.7705 86.0407 100.132 87.2497 100.132 87.2497C97.5975 76.6807 89.3035 69.2447 89.3035 69.2447L86.6645 69.9467L66.4625 75.2767L63.2515 76.1217C63.9535 87.3147 59.8975 92.6057 59.8975 92.6057Z" fill="black"/>
<path d="M64.5508 90.2659C64.5508 90.2659 69.6598 93.3859 78.0448 88.5629C86.6508 83.6099 94.7758 83.7399 94.7758 83.7399C92.8128 77.3439 86.6638 69.9469 86.6638 69.9469L66.4618 75.2769C67.7748 82.6089 64.5508 90.2659 64.5508 90.2659Z" fill="black"/>
<path d="M61.3007 92.424C63.9007 94.205 72.7667 95.674 79.931 90.773C86.6507 86.171 95.206 85.95 98.6757 86.067C96.285 78.02 90.5637 72.001 88.979 70.454L66.8127 76.304C66.7867 76.317 66.7607 76.317 66.7347 76.33L64.3687 76.954C64.7327 85.482 62.4057 90.552 61.3007 92.424ZM68.6977 96.272C64.1477 96.272 60.3387 94.946 59.0387 93.269C58.7397 92.879 58.7397 92.333 59.0387 91.943C59.1037 91.852 62.8347 86.73 62.1717 76.187C62.1327 75.667 62.4837 75.199 62.9777 75.069L66.1237 74.237C66.1497 74.224 66.1757 74.224 66.2017 74.211L89.031 68.179C89.3807 68.088 89.7577 68.179 90.0307 68.426C90.383 68.738 98.6107 76.213 101.198 86.99C101.276 87.328 101.185 87.692 100.951 87.965C100.717 88.225 100.366 88.368 100.015 88.329C99.9107 88.316 88.9517 87.224 81.179 92.554C77.2387 95.258 72.6887 96.272 68.6977 96.272Z" fill="black"/>
<path d="M65.9287 89.6939C67.5797 90.2659 71.6227 91.0069 77.4857 87.6269C84.1287 83.8049 90.435 82.9079 93.256 82.7129C91.3957 77.9159 87.5347 72.8199 86.2477 71.1819L67.6837 76.0829C68.4247 81.8159 66.7217 87.4579 65.9287 89.6939ZM69.1007 92.3459C65.9417 92.3459 64.1087 91.2669 63.9787 91.1889C63.5237 90.9029 63.3287 90.3309 63.5497 89.8369C63.5887 89.7329 66.6307 82.3619 65.3957 75.4719C65.3827 75.4069 65.3827 75.3419 65.3827 75.2769C65.3827 74.7829 65.7207 74.3539 66.1887 74.2239L86.3907 68.8939C86.7937 68.7899 87.2357 68.9199 87.51 69.2449C87.7687 69.5569 93.8267 76.8889 95.8287 83.4149C95.9327 83.7529 95.8677 84.1039 95.6597 84.3899C95.4517 84.6629 95.1267 84.8319 94.7757 84.8189C94.6977 84.8189 86.8197 84.7669 78.6037 89.4989C74.7427 91.7089 71.5317 92.3459 69.1007 92.3459Z" fill="black"/>
<mask id="mask3_197_1312" style="mask-type:luminance" maskUnits="userSpaceOnUse" x="63" y="71" width="32" height="15">
<path d="M63.3291 71.0648H94.5031V85.0385H63.3291V71.0648Z" fill="white"/>
</mask>
<g mask="url(#mask3_197_1312)">
<g opacity="0.199997">
<path d="M63.3291 78.3453C63.3811 79.0603 63.4071 79.7493 63.4071 80.4253C64.3431 81.5563 65.5781 82.5053 67.0081 83.2333C71.0381 85.3003 76.7191 85.6903 82.4261 83.8963C86.5601 82.6093 90.0181 80.3863 92.4231 77.7473C93.2421 76.8503 93.9441 75.9143 94.5031 74.9393C92.4881 72.4693 90.9151 71.0653 90.9151 71.0653L88.1201 71.8063L66.7351 77.4483L63.3291 78.3453Z" fill="black"/>
</g>
</g>
<path d="M36.7048 94.8807C36.5748 102.252 44.0108 102.174 44.0108 102.174L52.7988 107.478C53.2408 101.966 51.0568 93.9707 51.0568 93.9707L49.0028 93.1257C49.3018 90.3827 46.0908 88.3027 43.4778 87.6397C40.8778 86.9897 36.8348 87.5227 36.7048 94.8807Z" fill="#F15A24"/>
<path d="M44.011 101.082C44.206 101.082 44.401 101.134 44.57 101.238L51.772 105.58C51.72 101.355 50.537 96.3497 50.147 94.7637L48.6 94.1267C48.158 93.9447 47.885 93.4767 47.937 92.9957C48.171 90.9157 45.259 89.1997 43.231 88.6927C42.425 88.4977 40.904 88.2897 39.721 89.1867C38.512 90.1097 37.849 92.0857 37.797 94.8807C37.758 96.7267 38.265 98.1957 39.292 99.2357C41.073 101.069 43.959 101.082 44.011 101.082ZM52.812 108.57C52.617 108.57 52.422 108.518 52.253 108.414L43.699 103.253C42.724 103.201 39.812 102.876 37.758 100.796C36.302 99.3267 35.587 97.3247 35.626 94.8677C35.691 91.3317 36.627 88.8487 38.408 87.4837C39.812 86.4047 41.723 86.0927 43.764 86.5997C46.312 87.2367 49.874 89.2777 50.121 92.4107L51.486 92.9827C51.798 93.1127 52.032 93.3727 52.123 93.6977C52.214 94.0357 54.359 101.94 53.904 107.582C53.878 107.959 53.657 108.284 53.319 108.466C53.15 108.531 52.981 108.57 52.812 108.57Z" fill="#F15A24"/>
<path d="M109.895 41.6201C111.104 44.7791 113.093 49.7321 115.186 53.7491C118.125 59.4041 122.154 63.4861 123.481 63.8501C123.623 62.3551 123.415 60.8341 122.856 59.4171C121.075 54.9581 117.162 47.1451 109.895 41.6201ZM123.675 66.0471C120.711 66.0471 115.719 59.4821 113.262 54.7501C109.869 48.2241 106.71 39.2411 106.671 39.1631C106.554 38.8251 106.619 38.4611 106.814 38.1751C107.022 37.8891 107.347 37.7201 107.698 37.7201C107.893 37.7201 108.088 37.7721 108.257 37.8761C117.864 43.7001 122.791 53.3721 124.871 58.6111C125.625 60.5091 125.872 62.5761 125.573 64.5911C125.56 64.7081 125.521 64.8251 125.456 64.9421C125.106 65.6441 124.456 66.0471 123.675 66.0471Z" fill="#F15A24"/>
<path d="M107.698 38.799C108.479 41.685 111.156 47.522 113.185 51.734C114.536 54.555 115.602 56.661 115.602 56.661C118.423 53.086 118.163 48.588 118.163 48.588C124.208 47.314 125.183 39.488 125.183 39.488C126.327 37.824 126.197 36.446 125.677 35.419C125.027 34.106 123.754 33.365 123.754 33.365C124.273 30.635 120.62 28.919 120.62 28.919C120.62 25.786 116.708 25.786 116.708 25.786C115.927 24.486 113.835 23.303 111.625 25.253C109.402 27.203 109.791 30.518 109.791 30.518C109.791 30.518 107.958 30.219 106.658 33.209C105.345 36.212 107.698 38.799 107.698 38.799Z" fill="#F15A24"/>
<mask id="mask4_197_1312" style="mask-type:luminance" maskUnits="userSpaceOnUse" x="106" y="33" width="21" height="24">
<path d="M106.241 33.2218H126.049V56.6738H106.241V33.2218Z" fill="white"/>
</mask>
<g mask="url(#mask4_197_1312)">
<g opacity="0.199997">
<path d="M113.236 51.591C113.21 51.643 113.198 51.695 113.171 51.747C114.523 54.568 115.59 56.674 115.59 56.674C118.41 53.099 118.15 48.601 118.15 48.601C124.196 47.327 125.171 39.501 125.171 39.501C126.315 37.837 126.185 36.459 125.665 35.432C125.665 35.432 122.129 40.71 119.021 40.45L118.45 37.941C118.45 37.941 110.377 37.46 106.633 33.222C105.333 36.212 107.685 38.812 107.685 38.812C107.685 38.812 108.829 39.839 110.285 40.957C113.575 43.427 114.783 47.795 113.236 51.591Z" fill="#F15A24"/>
</g>
</g>
<path d="M109.623 31.6097C109.454 31.6097 108.491 31.7137 107.646 33.6507C106.645 35.9387 108.427 37.9797 108.504 38.0707C108.621 38.2007 108.7 38.3567 108.738 38.5127C109.727 42.1527 113.912 50.7977 115.719 54.4767C117.214 51.6297 117.071 48.6917 117.071 48.6527C117.045 48.1197 117.41 47.6387 117.929 47.5217C123.129 46.4297 124.079 39.4227 124.091 39.3447C124.117 39.1757 124.183 39.0067 124.273 38.8637C124.858 38.0057 125.066 37.2257 124.898 36.4847C124.598 35.1587 123.194 34.3137 123.181 34.3137C122.779 34.0797 122.57 33.6247 122.661 33.1697C123.012 31.3367 120.165 29.9197 120.127 29.9067C119.75 29.7247 119.502 29.3477 119.502 28.9187C119.502 26.9557 116.954 26.8777 116.668 26.8777C116.291 26.8777 115.94 26.6697 115.745 26.3447C115.511 25.9417 114.979 25.4347 114.277 25.3307C113.639 25.2267 112.977 25.4737 112.3 26.0717C110.545 27.6057 110.831 30.3747 110.831 30.4007C110.87 30.7517 110.779 31.1157 110.506 31.3497C110.273 31.5967 109.96 31.6877 109.623 31.6097ZM115.602 57.7657H115.498C115.135 57.7267 114.81 57.5057 114.64 57.1807C114.367 56.6477 108.166 44.3627 106.723 39.3317C106.125 38.5647 104.318 35.8867 105.67 32.8057C106.581 30.7257 107.789 29.9197 108.686 29.6207C108.738 28.3077 109.102 26.0327 110.91 24.4597C112.379 23.1727 113.756 23.0687 114.654 23.2117C115.681 23.3677 116.629 23.9397 117.292 24.7587C118.943 24.9277 121.296 25.7987 121.66 28.2817C122.727 28.9187 124.898 30.5177 124.898 32.8707C125.6 33.4167 126.704 34.4957 127.042 36.0427C127.329 37.3167 127.056 38.6297 126.223 39.9167C125.989 41.3337 124.663 47.7297 119.256 49.4587C119.19 51.0577 118.761 54.4637 116.46 57.3627C116.252 57.6097 115.927 57.7657 115.602 57.7657Z" fill="#F15A24"/>
<path d="M113.431 40.0471C112.872 40.0471 112.3 39.9041 111.806 39.6051C111.286 39.2931 111.117 38.6301 111.429 38.1101C111.741 37.5901 112.404 37.4211 112.924 37.7331C113.34 37.9801 113.899 37.9021 114.25 37.5381C114.731 37.0441 114.64 36.1601 114.029 35.1851C112.274 32.4031 109.518 31.5841 109.492 31.5841C108.92 31.4151 108.583 30.8171 108.751 30.2451C108.92 29.6731 109.505 29.3351 110.09 29.4911C110.233 29.5301 113.652 30.5181 115.875 34.0281C117.279 36.2511 116.772 38.0841 115.823 39.0591C115.16 39.7091 114.302 40.0471 113.431 40.0471Z" fill="#F15A24"/>
<path d="M113.34 33.768H113.275C112.677 33.729 112.223 33.222 112.248 32.624C112.496 28.152 115.823 25.123 115.967 24.993C116.408 24.59 117.098 24.629 117.5 25.084C117.904 25.526 117.864 26.215 117.423 26.618C117.396 26.644 114.627 29.192 114.419 32.754C114.394 33.313 113.912 33.768 113.34 33.768Z" fill="#F15A24"/>
<path d="M115.355 36.5108C115.264 36.5108 115.16 36.4978 115.056 36.4718C114.484 36.3158 114.145 35.7048 114.301 35.1328C115.316 31.5318 119.762 28.1908 119.943 28.0478C120.424 27.6838 121.101 27.7878 121.464 28.2688C121.828 28.7498 121.724 29.4258 121.243 29.7898C121.178 29.8418 117.201 32.8318 116.395 35.7048C116.278 36.1988 115.835 36.5108 115.355 36.5108Z" fill="#F15A24"/>
<path d="M120.906 43.2189C120.061 43.2189 119.281 42.8809 118.67 42.2569C117.877 41.4509 117.825 40.3459 118.111 39.2539C117.683 39.3839 117.253 39.4359 116.837 39.4489C115.433 39.4359 114.666 38.6559 114.575 38.5649L116.161 37.0829C116.161 37.0829 116.148 37.0699 116.135 37.0569C116.577 37.4469 117.994 37.5639 120.283 35.1589C120.685 34.7429 121.335 34.7039 121.777 35.0809C122.219 35.4579 122.285 36.1079 121.933 36.5759C120.646 38.2529 119.801 40.3069 120.217 40.7359C120.425 40.9569 120.646 41.0479 120.906 41.0479C121.374 41.0479 122.453 40.7489 124.39 38.7469C124.806 38.3179 125.495 38.3049 125.924 38.7209C126.353 39.1369 126.366 39.8259 125.95 40.2549C124.026 42.2439 122.375 43.2189 120.906 43.2189Z" fill="#F15A24"/>
<path d="M121.062 36.992C120.776 36.992 120.49 36.875 120.269 36.654C119.853 36.212 119.879 35.523 120.308 35.12L122.985 32.585C123.428 32.169 124.104 32.195 124.52 32.624C124.935 33.066 124.91 33.755 124.481 34.158L121.803 36.693C121.608 36.901 121.335 36.992 121.062 36.992Z" fill="#F15A24"/>
<path d="M37.6934 122.753C40.6704 122.389 42.0874 120.309 42.8674 117.267C44.2974 111.703 43.6084 102.915 46.4554 95.5046C49.3674 87.9256 49.1854 81.6336 48.7304 78.2406C48.4314 76.0046 47.1184 74.0416 45.1554 72.9366C43.5564 72.0396 41.5934 71.2726 39.6824 70.7786C36.2764 69.8816 33.0394 69.8296 32.4024 71.3636C31.1024 74.4966 39.7084 80.8926 39.8384 93.0476C39.9424 102.993 34.1184 108.7 30.6344 111.521C29.8544 112.145 29.2044 112.639 28.7494 112.99C26.2664 114.914 29.2694 123.793 37.6934 122.753Z" fill="black"/>
<path d="M35.4563 71.2211C34.1953 71.2211 33.5193 71.4941 33.4023 71.7671C33.0903 72.5081 34.1823 74.3411 35.3523 76.2781C37.5363 79.9311 40.8513 85.4301 40.9293 93.0221C41.0073 100.627 37.7703 107.127 31.3223 112.353C30.8153 112.769 30.3473 113.12 29.9703 113.406C29.7623 113.562 29.5803 113.705 29.4243 113.822C28.9173 114.225 28.7873 115.655 29.4633 117.28C30.5033 119.763 33.1683 122.22 37.5623 121.674C39.7593 121.401 41.0333 120.01 41.8133 117.046C41.8133 117.033 41.8263 117.007 41.8263 116.994C42.3723 114.875 42.6063 112.171 42.8533 109.311C43.2433 104.813 43.6723 99.7301 45.4533 95.1151C48.3263 87.6271 48.0663 81.4131 47.6633 78.3841C47.4163 76.4991 46.2723 74.8091 44.6343 73.8861C43.1653 73.0541 41.3193 72.3261 39.4343 71.8321C39.4083 71.8191 39.3823 71.8191 39.3563 71.8061C37.7053 71.3641 36.4183 71.2211 35.4563 71.2211ZM36.3533 123.923C31.6083 123.923 28.6183 120.907 27.4483 118.125C26.4083 115.642 26.6553 113.224 28.0723 112.119C28.2413 111.989 28.4233 111.846 28.6443 111.677C29.0213 111.378 29.4633 111.053 29.9443 110.65C35.9503 105.788 38.8233 100.029 38.7453 93.0351C38.6673 86.0411 35.6643 81.0361 33.4803 77.3831C31.8423 74.6531 30.6593 72.6771 31.3873 70.9221C32.5573 68.1141 37.7573 69.1411 39.9413 69.7131C39.9673 69.7131 39.9803 69.7261 40.0063 69.7261C42.0473 70.2591 44.0493 71.0651 45.6743 71.9751C47.9103 73.2361 49.4573 75.5241 49.7953 78.0851C50.2243 81.3221 50.4973 87.9391 47.4553 95.8821C45.7913 100.211 45.3753 105.138 44.9983 109.48C44.7513 112.418 44.5043 115.187 43.9193 117.475C43.9193 117.488 43.9063 117.514 43.9063 117.527C43.2693 119.984 41.9563 123.312 37.8093 123.819C37.3153 123.897 36.8213 123.923 36.3533 123.923Z" fill="black"/>
<path d="M33.1815 110.702C35.9375 111.365 37.7575 113.016 38.8365 114.342C39.6685 111.599 41.0595 105.541 42.6065 95.3226C44.2835 84.2336 39.9285 73.8986 38.9145 71.6756C35.4045 70.8306 33.5975 71.2856 33.4025 71.7406C33.0905 72.4816 34.1825 74.3146 35.3525 76.2516C37.5365 79.9046 40.8515 85.4036 40.9295 92.9956C40.9945 99.8336 38.3945 105.775 33.1815 110.702ZM39.0835 117.774H38.9795C38.6025 117.735 38.2645 117.501 38.0955 117.15C38.0045 116.968 35.8595 112.587 30.6205 112.587C30.1655 112.587 29.7495 112.301 29.5935 111.859C29.4375 111.43 29.5805 110.936 29.9315 110.65C35.9245 105.788 38.8105 100.029 38.7325 93.0346C38.6545 86.0406 35.6515 81.0356 33.4675 77.3826C31.8295 74.6526 30.6465 72.6766 31.3745 70.9216C32.5445 68.1136 37.7445 69.1406 39.9285 69.7126C40.1105 69.7646 40.2795 69.8556 40.4095 69.9856C40.5005 70.0636 40.5785 70.1676 40.6305 70.2846C40.8775 70.7786 46.7275 82.5176 44.7385 95.6736C43.0225 107.049 41.0985 115.759 39.9415 117.345C39.7595 117.605 39.4345 117.774 39.0835 117.774Z" fill="black"/>
<path d="M30.2183 113.211C30.1273 113.276 30.0493 113.341 29.9713 113.406C29.7633 113.562 29.5813 113.705 29.4253 113.822C28.9183 114.225 28.7883 115.655 29.4643 117.28C30.5043 119.763 33.1693 122.22 37.5633 121.674C38.8633 121.518 39.8253 120.972 40.5663 119.945C39.3963 120.218 37.9403 120.166 36.2763 119.451C33.0913 118.086 31.1283 114.992 30.2183 113.211ZM36.3543 123.923C31.6093 123.923 28.6193 120.907 27.4493 118.125C26.4093 115.642 26.6563 113.224 28.0733 112.119C28.2423 111.989 28.4243 111.846 28.6453 111.677C29.0223 111.378 29.4643 111.053 29.9453 110.65C30.2183 110.429 30.5823 110.351 30.9203 110.442C31.2583 110.533 31.5313 110.78 31.6483 111.118C31.6613 111.17 33.4813 115.889 37.1213 117.449C40.3063 118.801 41.8143 116.864 41.9703 116.643C42.2433 116.266 42.7373 116.097 43.1923 116.24C43.6473 116.383 43.9463 116.799 43.9463 117.267C43.9463 117.358 43.9333 117.449 43.9073 117.54C43.2703 119.997 41.9573 123.325 37.8103 123.832C37.3163 123.897 36.8223 123.923 36.3543 123.923Z" fill="black"/>
<path d="M39.9299 55.3913C42.5845 53.9912 46.3597 55.936 48.3617 59.7346C50.3637 63.5319 49.8346 67.7452 47.18 69.1453C44.5254 70.5441 40.7502 68.6006 38.7482 64.802C36.7462 61.0034 37.2753 56.7901 39.9299 55.3913Z" fill="#F15A24"/>
<path d="M41.8265 56.0628C41.3455 56.0628 40.8255 56.1668 40.3315 56.4528C38.2905 57.6618 38.0695 61.3668 39.8505 64.5518C40.9425 66.5148 42.6065 67.9578 44.2965 68.3998C44.9595 68.5818 45.9215 68.6728 46.8185 68.1398C48.8595 66.9308 49.0805 63.2128 47.2995 60.0408C46.2075 58.0778 44.5435 56.6348 42.8535 56.1928C42.5545 56.1278 42.2035 56.0628 41.8265 56.0628ZM45.3235 70.7268C44.8035 70.7268 44.2705 70.6488 43.7375 70.5058C41.5015 69.9078 39.3435 68.0748 37.9655 65.6178C35.5475 61.3018 36.1065 56.4528 39.2265 54.5938C40.4485 53.8658 41.8915 53.6968 43.4255 54.1128C45.6615 54.7108 47.8195 56.5438 49.1975 59.0008C51.6155 63.3168 51.0565 68.1658 47.9365 70.0248C47.1305 70.4928 46.2465 70.7268 45.3235 70.7268Z" fill="#F15A24"/>
<path d="M73.8724 59.7679C73.8724 59.7679 95.5304 46.4169 103.668 22.6659C104.37 20.6119 103.616 18.3369 101.86 17.1409C95.3874 12.7339 78.5641 2.71095 57.5704 1.11195C56.5174 1.03395 55.4514 1.29395 54.5414 1.85295C49.9134 4.71295 35.4834 15.5679 24.2514 45.3639C23.4974 47.3659 24.5244 49.6019 26.5004 50.2779C35.0674 53.1509 57.2974 60.0279 73.8724 59.7679Z" fill="black"/>
<mask id="mask5_197_1312" style="mask-type:luminance" maskUnits="userSpaceOnUse" x="23" y="1" width="81" height="48">
<path d="M23.9985 1.09882H103.919V48.3148H23.9985V1.09882Z" fill="white"/>
</mask>
<g mask="url(#mask5_197_1312)">
<g opacity="0.399994">
<path d="M24.3426 48.3148C24.3816 48.0808 24.4466 47.8468 24.5376 47.6128C35.7696 17.8168 50.1996 6.94882 54.8276 4.10182C55.7376 3.54282 56.7906 3.28282 57.8566 3.36082C78.8516 4.97282 95.6736 14.9958 102.148 19.3898C102.967 19.9488 103.565 20.7288 103.89 21.6258C104.085 19.8838 103.318 18.1418 101.849 17.1408C95.3746 12.7338 78.5526 2.71082 57.5576 1.11182C56.5046 1.03382 55.4386 1.29382 54.5286 1.85282C49.9006 4.71282 35.4706 15.5678 24.2386 45.3638C23.8746 46.3518 23.9396 47.4178 24.3426 48.3148Z" fill="black"/>
</g>
</g>
<mask id="mask6_197_1312" style="mask-type:luminance" maskUnits="userSpaceOnUse" x="27" y="5" width="78" height="54">
<path d="M27.4746 5.58121H104.318V58.2923H27.4746V5.58121Z" fill="white"/>
</mask>
<g mask="url(#mask6_197_1312)">
<g opacity="0.199997">
<path d="M27.4736 50.6029C36.4436 53.0599 60.9226 59.3389 77.1726 58.1429C77.1726 58.1429 97.1666 44.0639 104.317 20.5989C97.8816 16.7509 68.6706 3.56885 57.5816 5.84385C47.1816 7.97585 31.3086 36.9659 27.4736 50.6029Z" fill="black"/>
</g>
</g>
<path d="M57.1798 2.17758C56.4518 2.17758 55.7368 2.38558 55.1128 2.76258C50.9398 5.33658 36.4578 16.0356 25.2648 45.7406C25.0048 46.4426 25.0308 47.2226 25.3558 47.8986C25.6548 48.5486 26.1878 49.0166 26.8508 49.2376C35.4828 52.1366 57.2188 58.8446 73.5598 58.6756C75.9648 57.1156 95.2048 44.0506 102.654 22.3016C103.2 20.7156 102.628 18.9606 101.263 18.0376C95.0358 13.7996 78.3048 3.77657 57.5048 2.19057C57.3878 2.17757 57.2838 2.17758 57.1798 2.17758ZM72.9358 60.8596C56.3478 60.8596 34.7678 54.2036 26.1488 51.3046C24.9268 50.8886 23.9518 50.0176 23.3928 48.8346C22.8208 47.6386 22.7688 46.2346 23.2368 44.9866C28.0988 32.0906 34.0918 21.2746 41.0338 12.8116C46.7148 5.90858 51.5768 2.39857 53.9688 0.916575C55.0868 0.227575 56.3478 -0.0844234 57.6478 0.0195766C78.9808 1.65758 96.1018 11.9016 102.472 16.2436C104.643 17.7126 105.553 20.5076 104.695 23.0166C100.418 35.4836 92.4358 45.0646 86.4831 50.9016C80.0351 57.2196 74.6648 60.5606 74.4438 60.6906C74.2748 60.7946 74.0798 60.8466 73.8848 60.8466C73.5728 60.8596 73.2608 60.8596 72.9358 60.8596Z" fill="black"/>
<path d="M40.3189 43.8817L40.8909 46.3777L42.0089 51.2787L44.1409 60.6387C45.2849 74.4317 60.2479 82.2967 79.4099 77.4997C97.1549 73.0667 103.356 61.0937 101.939 53.7487C101.627 52.1107 101.133 50.6677 100.56 49.4457C98.5849 45.1817 95.6729 43.3097 95.6729 43.3097C93.1119 35.9647 88.8349 26.5787 88.8349 26.5787C88.8349 26.5787 84.1679 17.8687 64.3949 22.0417C50.1729 25.0447 42.3859 34.2487 40.5659 39.4617C40.0589 40.8787 39.9809 42.4127 40.3189 43.8817Z" fill="#F15A24"/>
<mask id="mask7_197_1312" style="mask-type:luminance" maskUnits="userSpaceOnUse" x="41" y="49" width="62" height="30">
<path d="M41.9961 49.4458H102.121V78.9129H41.9961V49.4458Z" fill="white"/>
</mask>
<g mask="url(#mask7_197_1312)">
<g opacity="0.199997">
<path d="M41.9966 51.2786L44.1286 60.6386C45.2726 74.4316 60.2356 82.2966 79.3976 77.4996C97.1413 73.0666 103.344 61.0936 101.927 53.7486C101.615 52.1106 101.121 50.6676 100.549 49.4456C100.549 49.4456 102.068 65.9426 78.9816 71.0776C55.8936 76.2126 47.5476 67.0476 45.7406 60.7946C44.8176 57.6226 43.2966 54.0476 41.9966 51.2786Z" fill="#F15A24"/>
</g>
</g>
<path d="M73.794 21.5868C71.129 21.5868 67.957 21.8988 64.187 22.6918C50.576 25.5648 42.958 34.2618 41.164 39.4098C40.735 40.6318 40.67 41.9448 40.956 43.2318L44.765 59.9888C44.778 60.0408 44.778 60.0928 44.791 60.1448C45.22 65.3708 47.742 69.7778 52.071 72.8848C58.532 77.5128 68.243 78.6698 78.721 76.0438C95.881 71.7538 101.757 60.3138 100.444 53.5538C99.131 46.8068 94.698 43.8558 94.6577 43.8168C94.451 43.6868 94.295 43.4918 94.2157 43.2578C91.7847 36.3028 87.769 27.3718 87.444 26.6568C87.327 26.4488 86.144 24.6288 82.9577 23.2378C81.009 22.3668 78.058 21.5868 73.794 21.5868ZM68.061 79.5668C61.353 79.5668 55.36 77.8898 50.797 74.6268C45.948 71.1558 43.127 66.2288 42.62 60.3788L38.824 43.6998C38.447 42.0228 38.538 40.2808 39.097 38.6818C41.06 33.0788 49.237 23.6148 63.732 20.5598C84.077 16.2698 89.147 25.2658 89.355 25.6428C89.368 25.6688 89.381 25.6818 89.381 25.7078C89.42 25.7988 93.58 34.9508 96.141 42.2048C97.3097 43.0758 101.262 46.4428 102.562 53.1248C103.395 57.4148 101.796 62.6018 98.273 66.9698C95.335 70.6228 89.641 75.5238 79.241 78.1238C75.393 79.0988 71.623 79.5668 68.061 79.5668Z" fill="#F15A24"/>
<path d="M69.2961 58.8317C70.2061 61.7567 72.2081 64.0837 76.4461 63.1087C77.2521 62.9267 77.9021 62.6147 78.4221 62.2117C82.7771 58.8707 78.2141 49.0167 78.2141 49.0167C78.2141 49.0167 73.1571 52.4097 68.7241 50.4467C68.7241 50.4597 68.1261 55.1267 69.2961 58.8317Z" fill="black"/>
<path d="M69.2959 58.8317C70.2059 61.7567 72.2079 64.0837 76.4459 63.1087C77.2519 62.9267 77.9019 62.6147 78.4219 62.2117C78.4349 62.0427 78.4479 61.8737 78.4479 61.7177C78.4479 58.6627 76.2366 56.1797 73.5079 56.1797C71.7269 56.1797 70.1669 57.2457 69.2959 58.8317Z" fill="black"/>
<path d="M69.8028 51.9285C69.7248 53.5145 69.7248 56.2315 70.4268 58.5195C71.3888 61.6265 73.2348 62.7575 76.2248 62.0555C76.8358 61.9125 77.3558 61.6785 77.7601 61.3665C80.3718 59.3385 78.8768 53.6445 77.6938 50.5895C76.0831 51.4215 72.9618 52.6695 69.8028 51.9285ZM74.6648 64.4215C71.6228 64.4215 69.4258 62.6015 68.3468 59.1565C67.1378 55.2565 67.7228 50.5245 67.7358 50.3165C67.7748 49.9785 67.9828 49.6795 68.2818 49.5105C68.5808 49.3415 68.9448 49.3285 69.2568 49.4585C73.0528 51.1485 77.5638 48.1455 77.6158 48.1195C77.8758 47.9375 78.2138 47.8855 78.5128 47.9765C78.8248 48.0675 79.0718 48.2755 79.2018 48.5745C79.3968 49.0035 84.0248 59.2605 79.0848 63.0825C78.4218 63.5895 77.6288 63.9665 76.7058 64.1745C76.0038 64.3435 75.3148 64.4215 74.6648 64.4215Z" fill="black"/>
<path d="M62.107 49.2118C60.768 47.1188 58.74 45.6108 56.179 46.1828C55.984 46.2478 55.672 46.3128 55.49 46.4298C54.151 46.9758 53.358 48.3408 52.942 49.6928C52.89 49.8488 52.851 50.0048 52.812 50.1478C52.734 50.4468 52.409 50.6288 52.11 50.5508C51.863 50.4858 51.694 50.2518 51.694 50.0178C51.668 49.2898 51.785 48.6658 51.993 47.9898C52.591 46.0398 54.229 44.5318 56.296 44.2718C59.013 43.7908 61.626 45.4548 62.731 47.8988C62.913 48.3538 63.472 49.2378 62.744 49.4978C62.471 49.5498 62.224 49.4328 62.107 49.2118Z" fill="black"/>
<path d="M78.5389 44.2981C78.1619 41.3341 79.8259 37.8241 83.1019 37.6161C85.9619 37.2651 88.3929 39.4621 88.7569 42.2181C88.8219 42.7901 88.0549 43.0111 87.7819 42.5171C86.9759 41.2821 85.8709 40.0341 84.3499 39.8131C81.4249 39.3191 80.1509 41.9451 79.3839 44.3891C79.2539 44.8311 78.5909 44.7661 78.5389 44.2981Z" fill="black"/>
<path d="M61.4439 39.9557C61.4439 39.9557 59.9229 35.7177 55.6589 36.1337C51.1219 36.5887 50.6279 41.4897 50.6279 41.4897C50.6279 41.4897 54.9959 36.2377 61.4439 39.9557Z" fill="#F15A24"/>
<path d="M87.1059 32.9231C87.1059 32.9231 84.4799 29.3091 80.5019 30.9731C76.2769 32.7411 77.1739 37.5901 77.1739 37.5901C77.1739 37.5901 79.8909 31.2591 87.1059 32.9231Z" fill="#F15A24"/>
<path d="M83.3617 27.5929C83.3617 27.5929 90.7587 31.2199 89.4327 33.5599C88.1067 35.9129 71.2067 31.9739 71.2067 31.9739C71.2067 31.9739 72.9877 37.6289 58.9997 35.4969C58.9997 35.4969 51.2777 41.9319 39.5127 42.9329C39.5127 42.9329 50.9007 22.2109 83.3617 27.5929Z" fill="#F15A24"/>
<path d="M74.4309 28.542C63.5629 28.542 55.9839 31.779 51.2129 34.899C47.1309 37.564 44.5179 40.476 43.1009 42.322C53.0589 40.801 59.5849 35.471 59.6629 35.406C59.8969 35.211 60.2089 35.12 60.5209 35.172C68.3469 36.368 70.5699 34.964 71.1549 34.301C71.6879 33.716 71.5319 33.092 71.5189 33.027C71.4019 32.65 71.4929 32.26 71.7659 31.974C72.0259 31.688 72.4289 31.571 72.8189 31.662C72.8579 31.675 76.7449 32.572 80.8659 33.248C87.9639 34.405 89.5759 33.885 89.8619 33.729C89.8619 33.703 89.8619 33.651 89.8359 33.586C89.4602 32.39 86.4169 30.414 84.3759 29.4C80.7879 28.789 77.4729 28.542 74.4309 28.542ZM40.8649 44.766C40.5009 44.766 40.1499 44.584 39.9549 44.272C39.7339 43.934 39.7209 43.505 39.9159 43.154C40.0329 42.933 42.9709 37.681 50.0299 33.079C56.4909 28.854 67.7879 24.421 84.8959 27.268C84.9999 27.281 85.1039 27.32 85.1949 27.359C86.1829 27.84 91.1229 30.375 91.9159 32.936C92.1239 33.612 92.0602 34.275 91.7352 34.847C91.1099 35.952 89.3809 36.784 81.0102 35.471C78.1099 35.016 75.2499 34.418 73.6379 34.08C73.5209 34.6 73.2869 35.172 72.8319 35.692C71.0769 37.733 66.9819 38.305 60.6639 37.395C58.9219 38.734 51.5769 43.869 40.9559 44.766C40.9169 44.753 40.8909 44.766 40.8649 44.766Z" fill="#F15A24"/>
<path d="M36.159 21.3266C36.159 21.3266 38.837 27.3586 34.43 29.7116C30.023 32.0646 20.637 25.5126 20.637 25.5126L18.739 29.0486C18.739 29.0486 20.13 32.1426 26.084 34.0536C26.084 34.0536 21.274 34.6646 17.985 32.1816L17.231 34.7946C17.231 34.7946 28.242 43.9206 34.95 36.1076C40.423 29.7116 36.159 21.3266 36.159 21.3266Z" fill="black"/>
<path d="M18.4788 34.392C19.4408 35.094 21.5208 36.498 23.9908 37.382C28.2678 38.916 31.6738 38.253 34.1178 35.406C35.7688 33.469 36.4578 31.35 36.6268 29.361C36.1978 29.868 35.6388 30.31 34.9498 30.687C30.8548 32.884 23.7568 28.841 21.0398 27.099L19.9998 29.036C20.5978 29.855 22.3528 31.74 26.4218 33.04C26.9028 33.196 27.2148 33.664 27.1758 34.171C27.1238 34.678 26.7338 35.081 26.2268 35.146C26.0318 35.172 22.0408 35.64 18.6348 33.872L18.4788 34.392ZM28.1638 40.359C26.6168 40.359 24.9528 40.047 23.1978 39.41C19.4668 38.058 16.6458 35.744 16.5288 35.64C16.1908 35.367 16.0608 34.912 16.1778 34.496L16.9318 31.883C17.0358 31.545 17.2958 31.272 17.6338 31.155C17.9718 31.038 18.3488 31.103 18.6348 31.324C19.0638 31.649 19.5318 31.909 20.0128 32.13C18.3358 30.765 17.7898 29.595 17.7508 29.504C17.6078 29.192 17.6208 28.841 17.7898 28.542L19.6878 25.006C19.8308 24.733 20.0908 24.538 20.3898 24.46C20.6888 24.382 21.0138 24.447 21.2608 24.629C23.7178 26.345 30.7898 30.427 33.9228 28.75C37.3808 26.904 35.2618 21.977 35.1708 21.756C34.9368 21.223 35.1708 20.586 35.7038 20.339C36.2368 20.092 36.8738 20.3 37.1338 20.833C37.3158 21.197 41.6578 29.946 35.7688 36.81C33.7408 39.176 31.1668 40.359 28.1638 40.359Z" fill="black"/>
<path d="M39.8896 43.466L40.4616 45.962C57.0626 20.651 88.4056 26.163 88.4056 26.163C88.4056 26.163 83.7386 17.453 63.9656 21.626C49.7436 24.629 41.9566 33.833 40.1366 39.046C39.6426 40.463 39.5646 41.997 39.8896 43.466Z" fill="#F15A24"/>
<path d="M73.794 21.5868C71.129 21.5868 67.957 21.8988 64.187 22.6918C50.576 25.5648 42.958 34.2618 41.164 39.4098C40.735 40.6318 40.67 41.9448 40.956 43.2318L40.982 43.3228C49.692 31.4798 61.704 27.0858 70.466 25.4998C76.849 24.3558 82.335 24.4728 85.5577 24.7328C84.896 24.2388 84.051 23.7058 82.9577 23.2248C81.009 22.3668 78.058 21.5868 73.794 21.5868ZM40.462 47.0408C40.397 47.0408 40.332 47.0408 40.267 47.0278C39.838 46.9498 39.5 46.6248 39.396 46.1958L38.824 43.6998C38.447 42.0228 38.538 40.2808 39.097 38.6818C41.06 33.0788 49.237 23.6148 63.732 20.5598C84.077 16.2698 89.147 25.2658 89.355 25.6428C89.55 26.0068 89.524 26.4618 89.277 26.7998C89.03 27.1378 88.614 27.3068 88.2097 27.2288C88.133 27.2158 80.385 25.9028 70.765 27.6448C57.947 29.9718 48.054 36.3288 41.359 46.5468C41.164 46.8588 40.826 47.0408 40.462 47.0408Z" fill="#F15A24"/>
<path d="M36.7048 94.8807C36.5748 102.252 44.0108 102.174 44.0108 102.174C47.6248 103.019 47.1438 100.432 47.1438 100.432C48.8598 99.3397 47.4688 97.4547 47.4688 97.4547C49.4318 95.8557 47.4688 94.3607 47.4688 94.3607C49.0288 94.1007 49.0158 93.1257 49.0158 93.1257C49.3148 90.3827 46.1038 88.3027 43.4908 87.6397C40.8778 86.9897 36.8348 87.5227 36.7048 94.8807Z" fill="#F15A24"/>
<path d="M44.011 101.082C44.089 101.082 44.18 101.095 44.258 101.108C45.259 101.342 45.805 101.251 45.961 101.095C46.104 100.965 46.065 100.627 46.065 100.627C45.987 100.185 46.169 99.7427 46.546 99.5087C46.845 99.3137 46.884 99.1577 46.897 99.0927C46.962 98.7547 46.715 98.2737 46.585 98.0917C46.247 97.6237 46.325 96.9737 46.78 96.6097C46.962 96.4667 47.248 96.1807 47.248 95.9337C47.248 95.6607 46.936 95.3227 46.793 95.2187C46.468 94.9587 46.338 94.5167 46.442 94.1137C46.533 93.7107 46.884 93.3727 47.287 93.2817L47.924 93.1387L49.016 93.1127L47.937 92.9957C48.171 90.9157 45.259 89.1997 43.231 88.6927C42.425 88.4977 40.904 88.2897 39.721 89.1867C38.512 90.1097 37.849 92.0857 37.797 94.8807C37.758 96.7267 38.265 98.1957 39.292 99.2357C41.073 101.069 43.959 101.082 44.011 101.082ZM45.311 103.435C44.882 103.435 44.401 103.383 43.894 103.266C43.179 103.253 39.981 103.032 37.758 100.796C36.302 99.3267 35.587 97.3247 35.626 94.8677C35.691 91.3317 36.627 88.8487 38.408 87.4837C39.812 86.4047 41.723 86.0927 43.764 86.5997C46.52 87.2887 50.472 89.6157 50.108 93.2037C50.095 93.6717 49.861 94.3477 49.185 94.8417C49.328 95.1537 49.419 95.5047 49.432 95.9077C49.445 96.3627 49.328 96.9997 48.808 97.6627C49.016 98.1567 49.172 98.8067 49.042 99.5087C48.964 99.9247 48.756 100.471 48.236 100.965C48.197 101.472 48.028 102.148 47.469 102.694C46.949 103.175 46.221 103.435 45.311 103.435Z" fill="#F15A24"/>
<path d="M46.7149 95.1536C45.4539 93.8016 43.7899 92.8526 42.0739 92.1766C41.4759 91.9556 41.7229 91.0456 42.3469 91.1626C44.4399 91.5526 46.5069 92.2936 48.2099 93.5806L48.4309 93.7626C48.9119 94.1656 48.9639 94.8806 48.5739 95.3486C48.0929 95.9726 47.0659 95.8556 46.7149 95.1536Z" fill="#F15A24"/>
<path d="M47.0921 98.4817L44.4011 97.2337C43.5041 96.8177 42.5941 96.4147 41.6971 96.0247C41.0731 95.7517 41.3851 94.8157 42.0351 94.9587C43.7381 95.3357 46.1301 95.9857 47.8331 96.4407C49.3541 96.9217 48.5481 99.1057 47.0921 98.4817Z" fill="#F15A24"/>
<path d="M46.8576 101.485C44.8036 100.653 42.7496 99.9247 40.8516 98.7417C40.3836 98.4167 40.7866 97.7017 41.3066 97.9097C43.2436 98.6507 45.4016 98.9887 47.4296 99.3787C48.9766 99.7297 48.3656 101.979 46.8576 101.485Z" fill="#F15A24"/>
<mask id="mask8_197_1312" style="mask-type:luminance" maskUnits="userSpaceOnUse" x="76" y="148" width="17" height="18">
<path d="M76.0688 148.389H92.3215V165.667H76.0688V148.389Z" fill="white"/>
</mask>
<g mask="url(#mask8_197_1312)">
<g opacity="0.199997">
<path d="M76.0684 150.325C76.8744 155.473 78.9557 165.784 85.8977 165.665C88.6784 165.613 90.3164 164.159 91.2264 162.038C92.8124 158.413 92.3184 152.873 91.9284 149.194L91.3174 148.388C91.3174 148.388 92.7864 159.62 88.4977 159.011C85.2204 158.53 79.9307 155.967 76.0684 150.325Z" fill="#F15A24"/>
</g>
</g>
<mask id="mask9_197_1312" style="mask-type:luminance" maskUnits="userSpaceOnUse" x="60" y="131" width="18" height="11">
<path d="M60.2451 131.499H77.6287V141.228H60.2451V131.499Z" fill="white"/>
</mask>
<g mask="url(#mask9_197_1312)">
<g opacity="0.199997">
<path d="M60.3135 134.253C60.9063 131.834 65.247 130.816 70.0102 131.982C74.7734 133.147 78.1534 136.055 77.5619 138.475C76.9691 140.894 72.6284 141.912 67.8652 140.746C63.1033 139.581 59.7207 136.673 60.3135 134.253Z" fill="#F15A24"/>
</g>
</g>
<path d="M127.172 115.875C128.562 116.915 132.502 119.398 138.3 119.398H138.326V115.433C136.545 115.368 132.345 114.939 129.655 112.456L127.172 115.875ZM138.274 121.036C130.331 121.036 125.689 116.811 125.495 116.616C125.195 116.33 125.143 115.875 125.391 115.537L128.914 110.703C129.057 110.493 129.291 110.378 129.551 110.363C129.81 110.363 130.045 110.467 130.201 110.662C132.905 113.964 139.054 113.808 139.106 113.808C139.327 113.808 139.535 113.886 139.704 114.042C139.86 114.198 139.951 114.406 139.951 114.627V120.204C139.951 120.646 139.6 120.997 139.17 121.023C138.872 121.023 138.573 121.036 138.274 121.036Z" fill="#ED1C24"/>
<path d="M1.27965 33.1045L1.64365 36.1855C2.91765 36.0555 6.28465 35.4185 9.41765 32.5195L7.44165 30.3875C6.44065 31.2455 3.97065 33.1045 1.27965 33.1045ZM1.12365 37.4205C0.81165 37.4205 0.56465 37.1865 0.52565 36.8875L0.00564965 32.5195C-0.0203503 32.3375 0.0446496 32.1555 0.17465 32.0255C0.30465 31.8955 0.48665 31.8305 0.68165 31.8565C3.78865 32.2855 7.02565 29.1395 7.05165 29.1135C7.16865 28.9965 7.31165 28.9445 7.48065 28.9445C7.63665 28.9445 7.79265 29.0225 7.90965 29.1395L10.6916 32.1425C10.9126 32.3765 10.8996 32.7405 10.6786 32.9745C6.29765 37.3555 1.38365 37.4205 1.12365 37.4205Z" fill="#ED1C24"/>
<path d="M103.693 4.92101C104.941 5.35001 107.788 6.54601 109.153 8.86001L111.625 6.98801C110.871 5.96101 108.62 3.36101 104.538 2.12601L103.693 4.92101ZM108.932 10.368C108.88 10.368 108.828 10.355 108.776 10.342C108.596 10.29 108.451 10.16 108.386 9.99101C107.179 7.07901 102.85 5.89601 102.798 5.88301C102.64 5.84401 102.51 5.74001 102.432 5.59701C102.356 5.45401 102.341 5.28501 102.38 5.12901L103.563 1.21601C103.656 0.904012 103.981 0.735011 104.291 0.813011C110.325 2.38601 112.86 6.63701 112.962 6.81901C113.118 7.07901 113.053 7.41701 112.808 7.59901L109.298 10.251C109.192 10.329 109.062 10.368 108.932 10.368Z" fill="#ED1C24"/>
<path d="M9.56095 84.247C9.83395 85.729 10.6009 89.395 11.7709 91.735C12.5899 91.54 14.1629 91.176 16.0609 90.721C15.3459 89.135 13.9029 85.846 13.2789 83.727C12.4599 83.74 10.8739 83.818 9.56095 84.247ZM11.3549 93.49C11.0689 93.49 10.7959 93.334 10.6529 93.087C8.83295 89.98 7.88395 84.104 7.84495 83.857C7.77995 83.493 7.97495 83.129 8.31295 82.986C10.5879 81.959 13.8249 82.102 13.9679 82.115C14.3319 82.128 14.6439 82.388 14.7219 82.752C15.2809 85.209 17.9329 90.89 17.9589 90.942C18.0629 91.163 18.0629 91.423 17.9589 91.644C17.8549 91.865 17.6599 92.021 17.4129 92.086C14.1499 92.879 11.5629 93.477 11.5369 93.477C11.4849 93.49 11.4199 93.49 11.3549 93.49Z" fill="#ED1C24"/>
<path d="M138.482 61.4449C138.91 62.0169 139.782 63.0569 140.743 63.7459C141.614 62.7969 143.76 60.3919 144.76 58.3899C144.214 57.9219 143.162 57.0249 141.874 55.9589C141.147 57.2719 139.626 59.9499 138.482 61.4449ZM140.86 65.3449C140.743 65.3449 140.626 65.3189 140.522 65.2539C138.651 64.2139 137.091 61.9129 137.026 61.8089C136.857 61.5489 136.87 61.1979 137.078 60.9639C138.482 59.3259 141.03 54.5939 141.055 54.5419C141.16 54.3599 141.328 54.2299 141.537 54.1909C141.745 54.1519 141.953 54.2039 142.122 54.3339C144.345 56.1799 146.074 57.6489 146.087 57.6619C146.32 57.8569 146.399 58.1819 146.282 58.4679C145.072 61.3019 141.524 64.9679 141.368 65.1239C141.224 65.2799 141.043 65.3449 140.86 65.3449Z" fill="#ED1C24"/>
<path d="M36.289 151.782C37.745 152.12 40.735 152.848 42.49 153.524C42.919 152.952 43.686 151.834 44.076 150.716C42.919 150.131 40.02 148.753 37.823 148.324C37.537 148.988 36.965 150.248 36.289 151.782ZM42.724 155.071C42.62 155.071 42.529 155.045 42.438 155.006C40.475 154.109 35.223 152.965 35.171 152.952C34.963 152.913 34.794 152.77 34.703 152.588C34.612 152.406 34.599 152.186 34.69 151.99C35.847 149.351 36.783 147.284 36.796 147.259C36.926 146.986 37.212 146.816 37.524 146.855C40.579 147.232 45.09 149.638 45.272 149.728C45.545 149.884 45.688 150.196 45.623 150.509C45.129 152.588 43.361 154.72 43.283 154.811C43.127 154.98 42.919 155.071 42.724 155.071Z" fill="#ED1C24"/>
</svg>
