<svg width="48" height="48" viewBox="0 0 48 48" fill="none" xmlns="http://www.w3.org/2000/svg">
<path d="M23.55 17.3299L8.54997 9.68988C8.46807 9.64792 8.39934 9.58418 8.35135 9.50566C8.30335 9.42715 8.27795 9.33691 8.27795 9.24488C8.27795 9.15286 8.30335 9.06262 8.35135 8.98411C8.39934 8.90559 8.46807 8.84184 8.54997 8.79988L23.55 1.10988C23.6921 1.03624 23.8499 0.997803 24.01 0.997803C24.1701 0.997803 24.3278 1.03624 24.47 1.10988L39.47 8.79988C39.5519 8.84184 39.6206 8.90559 39.6686 8.98411C39.7166 9.06262 39.742 9.15286 39.742 9.24488C39.742 9.33691 39.7166 9.42715 39.6686 9.50566C39.6206 9.58418 39.5519 9.64792 39.47 9.68988L24.47 17.3299C24.3278 17.4035 24.1701 17.442 24.01 17.442C23.8499 17.442 23.6921 17.4035 23.55 17.3299Z" fill="#656769" stroke="#45413C" stroke-linecap="round" stroke-linejoin="round"/>
<path d="M8.30994 9.23999V17.19" stroke="#45413C" stroke-linecap="round" stroke-linejoin="round"/>
<path d="M9.27008 17.1801C9.2797 17.043 9.26096 16.9054 9.21503 16.7759C9.1691 16.6464 9.09697 16.5277 9.00313 16.4273C8.9093 16.3269 8.79577 16.2469 8.66965 16.1923C8.54352 16.1378 8.4075 16.1098 8.27008 16.1101C8.13265 16.1098 7.99663 16.1378 7.87051 16.1923C7.74438 16.2469 7.63086 16.3269 7.53702 16.4273C7.44319 16.5277 7.37106 16.6464 7.32513 16.7759C7.2792 16.9054 7.26046 17.043 7.27008 17.1801L7.08008 20.8701H9.46008L9.27008 17.1801Z" fill="#FFE500" stroke="#45413C" stroke-linecap="round" stroke-linejoin="round"/>
<path d="M31.54 34.09L24 31.22L16.46 34.09C15.1814 34.5778 14.0811 35.4423 13.3044 36.5689C12.5276 37.6956 12.1112 39.0315 12.11 40.4V45H35.89V40.4C35.8888 39.0315 35.4723 37.6956 34.6956 36.5689C33.9189 35.4423 32.8185 34.5778 31.54 34.09Z" fill="#656769"/>
<path d="M31.54 34.09L24 31.22L16.46 34.09C15.1814 34.5778 14.0811 35.4423 13.3044 36.5689C12.5276 37.6956 12.1112 39.0315 12.11 40.4V43.4C12.1112 42.0315 12.5276 40.6956 13.3044 39.5689C14.0811 38.4423 15.1814 37.5778 16.46 37.09L24 34.21L31.54 37.08C32.8185 37.5678 33.9189 38.4323 34.6956 39.5589C35.4723 40.6856 35.8888 42.0215 35.89 43.39V40.39C35.8868 39.0232 35.4694 37.6895 34.6928 36.5648C33.9162 35.4401 32.8169 34.5772 31.54 34.09Z" fill="#525252"/>
<path d="M31.54 34.09L24 31.22L16.46 34.09C15.1814 34.5778 14.0811 35.4423 13.3044 36.5689C12.5276 37.6956 12.1112 39.0315 12.11 40.4V45H35.89V40.4C35.8888 39.0315 35.4723 37.6956 34.6956 36.5689C33.9189 35.4423 32.8185 34.5778 31.54 34.09Z" stroke="#45413C" stroke-linecap="round" stroke-linejoin="round"/>
<path d="M23.9999 35.1099C23.9999 35.1099 21.4599 33.9999 21.4599 32.5699V29.7199C21.4585 29.3855 21.5233 29.0542 21.6503 28.7448C21.7774 28.4355 21.9643 28.1543 22.2003 27.9174C22.4363 27.6805 22.7167 27.4925 23.0255 27.3642C23.3343 27.2359 23.6655 27.1699 23.9999 27.1699C24.3343 27.1699 24.6654 27.2359 24.9742 27.3642C25.283 27.4925 25.5635 27.6805 25.7995 27.9174C26.0354 28.1543 26.2223 28.4355 26.3494 28.7448C26.4764 29.0542 26.5412 29.3855 26.5399 29.7199V32.5699C26.5399 33.9999 23.9999 35.1099 23.9999 35.1099Z" fill="#FFE500"/>
<path d="M23.9998 27.1699C23.3262 27.1699 22.6801 27.4375 22.2038 27.9139C21.7274 28.3902 21.4598 29.0363 21.4598 29.7099V30.3099C21.4598 30.9836 21.7274 31.6296 22.2038 32.106C22.6801 32.5823 23.3262 32.8499 23.9998 32.8499C24.6735 32.8499 25.3195 32.5823 25.7959 32.106C26.2722 31.6296 26.5398 30.9836 26.5398 30.3099V29.7199C26.5412 29.3855 26.4764 29.0542 26.3494 28.7448C26.2223 28.4355 26.0354 28.1543 25.7994 27.9174C25.5634 27.6805 25.283 27.4925 24.9742 27.3642C24.6654 27.2359 24.3342 27.1699 23.9998 27.1699Z" fill="#EBCB00"/>
<path d="M13.4503 36.3499L17.0603 44.9999M34.5503 36.3499L30.9403 44.9999M20.5403 40.4799L21.2703 44.9999M27.4603 40.4799L26.7303 44.9999M24.0003 35.1099C24.0003 35.1099 21.4603 33.9999 21.4603 32.5699V29.7199C21.459 29.3855 21.5237 29.0542 21.6508 28.7448C21.7778 28.4355 21.9647 28.1543 22.2007 27.9174C22.4367 27.6805 22.7172 27.4925 23.026 27.3642C23.3348 27.2359 23.6659 27.1699 24.0003 27.1699C24.3347 27.1699 24.6658 27.2359 24.9746 27.3642C25.2835 27.4925 25.5639 27.6805 25.7999 27.9174C26.0359 28.1543 26.2228 28.4355 26.3498 28.7448C26.4769 29.0542 26.5416 29.3855 26.5403 29.7199V32.5699C26.5403 33.9999 24.0003 35.1099 24.0003 35.1099Z" stroke="#45413C" stroke-linecap="round" stroke-linejoin="round"/>
<path opacity="0.15" d="M9 45.5C9 45.8978 10.5804 46.2794 13.3934 46.5607C16.2064 46.842 20.0218 47 24 47C27.9782 47 31.7936 46.842 34.6066 46.5607C37.4196 46.2794 39 45.8978 39 45.5C39 45.1022 37.4196 44.7206 34.6066 44.4393C31.7936 44.158 27.9782 44 24 44C20.0218 44 16.2064 44.158 13.3934 44.4393C10.5804 44.7206 9 45.1022 9 45.5Z" fill="#45413C"/>
<path d="M24.0003 6.90991C26.6047 6.90991 29.1025 7.94452 30.9441 9.78612C32.7857 11.6277 33.8203 14.1255 33.8203 16.7299V21.8699H14.1803V16.7299C14.1803 14.1255 15.2149 11.6277 17.0565 9.78612C18.8981 7.94452 21.3959 6.90991 24.0003 6.90991Z" fill="#724F3D" stroke="#45413C" stroke-linecap="round" stroke-linejoin="round"/>
<path d="M34.87 21.1201C34.8214 20.7529 34.6625 20.409 34.4143 20.1341C34.1661 19.8591 33.8403 19.6659 33.48 19.5801L32.89 19.4201C32.4553 19.2973 32.073 19.035 31.8019 18.6736C31.5309 18.3122 31.3861 17.8718 31.39 17.4201V15.3801C31.3889 14.9677 31.2522 14.5671 31.001 14.24C30.7499 13.913 30.3981 13.6776 30 13.5701C28.0934 14.3323 26.0529 14.703 24 14.6601C21.9471 14.703 19.9066 14.3323 18 13.5701C17.6 13.6757 17.246 13.9103 16.9929 14.2375C16.7398 14.5648 16.6017 14.9664 16.6 15.3801V17.4401C16.6038 17.8918 16.4591 18.3322 16.1881 18.6936C15.917 19.055 15.5347 19.3173 15.1 19.4401L14.51 19.6001C14.1497 19.6859 13.8239 19.8791 13.5757 20.1541C13.3275 20.429 13.1686 20.7729 13.12 21.1401C13.0933 21.3932 13.1202 21.6492 13.1992 21.8912C13.2781 22.1332 13.4071 22.3559 13.578 22.5446C13.7488 22.7334 13.9575 22.884 14.1905 22.9866C14.4234 23.0892 14.6754 23.1415 14.93 23.1401H15.04C15.274 25.3506 16.3178 27.3964 17.9703 28.8832C19.6228 30.37 21.7671 31.1927 23.99 31.1927C26.2129 31.1927 28.3572 30.37 30.0097 28.8832C31.6622 27.3964 32.706 25.3506 32.94 23.1401H33.05C33.3073 23.1432 33.5623 23.0915 33.798 22.9883C34.0337 22.8852 34.2447 22.7329 34.4169 22.5418C34.5892 22.3506 34.7187 22.1249 34.7968 21.8798C34.8749 21.6346 34.8999 21.3756 34.87 21.1201Z" fill="#FFE500" stroke="#45413C" stroke-linecap="round" stroke-linejoin="round"/>
<path d="M18.5698 20.91C18.5698 21.0623 18.6149 21.2111 18.6995 21.3377C18.7841 21.4644 18.9044 21.5631 19.0451 21.6213C19.1858 21.6796 19.3406 21.6949 19.49 21.6652C19.6394 21.6355 19.7766 21.5621 19.8842 21.4544C19.9919 21.3467 20.0653 21.2095 20.095 21.0602C20.1247 20.9108 20.1094 20.756 20.0512 20.6153C19.9929 20.4746 19.8942 20.3543 19.7676 20.2697C19.6409 20.1851 19.4921 20.14 19.3398 20.14C19.2383 20.1386 19.1375 20.1576 19.0435 20.1958C18.9495 20.2341 18.8641 20.2907 18.7923 20.3625C18.7205 20.4343 18.6639 20.5197 18.6256 20.6137C18.5874 20.7077 18.5684 20.8085 18.5698 20.91ZM29.4298 20.91C29.4298 21.0623 29.3846 21.2111 29.3 21.3377C29.2154 21.4644 29.0951 21.5631 28.9544 21.6213C28.8137 21.6796 28.6589 21.6949 28.5095 21.6652C28.3602 21.6355 28.223 21.5621 28.1153 21.4544C28.0076 21.3467 27.9343 21.2095 27.9046 21.0602C27.8749 20.9108 27.8901 20.756 27.9484 20.6153C28.0067 20.4746 28.1054 20.3543 28.232 20.2697C28.3586 20.1851 28.5075 20.14 28.6598 20.14C28.7613 20.1386 28.862 20.1576 28.956 20.1958C29.05 20.2341 29.1355 20.2907 29.2072 20.3625C29.279 20.4343 29.3357 20.5197 29.3739 20.6137C29.4121 20.7077 29.4311 20.8085 29.4298 20.91Z" fill="#45413C" stroke="#45413C" stroke-linecap="round" stroke-linejoin="round"/>
<path d="M21.16 25.6002C21.0968 25.6016 21.0345 25.6166 20.9776 25.6442C20.9206 25.6718 20.8703 25.7114 20.83 25.7602C20.7882 25.8073 20.7575 25.8632 20.7402 25.9238C20.7228 25.9844 20.7194 26.0481 20.73 26.1102C20.8651 26.8794 21.267 27.5764 21.865 28.0787C22.4631 28.5809 23.2191 28.8562 24 28.8562C24.781 28.8562 25.537 28.5809 26.1351 28.0787C26.7331 27.5764 27.135 26.8794 27.27 26.1102C27.2807 26.0481 27.2772 25.9844 27.2599 25.9238C27.2426 25.8632 27.2119 25.8073 27.17 25.7602C27.1298 25.7114 27.0795 25.6718 27.0225 25.6442C26.9656 25.6166 26.9033 25.6016 26.84 25.6002H21.16Z" fill="#FF6242"/>
<path d="M23.9999 26.9999C23.097 26.9646 22.2088 27.236 21.4799 27.7699C21.795 28.1208 22.1804 28.4014 22.6112 28.5936C23.0419 28.7857 23.5082 28.885 23.9799 28.885C24.4515 28.885 24.9178 28.7857 25.3486 28.5936C25.7793 28.4014 26.1647 28.1208 26.4799 27.7699C25.7618 27.2446 24.8892 26.9736 23.9999 26.9999Z" fill="#FFA694"/>
<path d="M21.16 25.6002C21.0968 25.6016 21.0345 25.6166 20.9776 25.6442C20.9206 25.6718 20.8703 25.7114 20.83 25.7602C20.7882 25.8073 20.7575 25.8632 20.7402 25.9238C20.7228 25.9844 20.7194 26.0481 20.73 26.1102C20.8651 26.8794 21.267 27.5764 21.865 28.0787C22.4631 28.5809 23.2191 28.8562 24 28.8562C24.781 28.8562 25.537 28.5809 26.1351 28.0787C26.7331 27.5764 27.135 26.8794 27.27 26.1102C27.2807 26.0481 27.2772 25.9844 27.2599 25.9238C27.2426 25.8632 27.2119 25.8073 27.17 25.7602C27.1298 25.7114 27.0795 25.6718 27.0225 25.6442C26.9656 25.6166 26.9033 25.6016 26.84 25.6002H21.16Z" stroke="#45413C" stroke-linecap="round" stroke-linejoin="round"/>
<path d="M17.0599 24.1901C17.0599 24.3492 17.1653 24.5018 17.3528 24.6144C17.5404 24.7269 17.7947 24.7901 18.0599 24.7901C18.3252 24.7901 18.5795 24.7269 18.767 24.6144C18.9546 24.5018 19.0599 24.3492 19.0599 24.1901C19.0599 24.031 18.9546 23.8783 18.767 23.7658C18.5795 23.6533 18.3252 23.5901 18.0599 23.5901C17.7947 23.5901 17.5404 23.6533 17.3528 23.7658C17.1653 23.8783 17.0599 24.031 17.0599 24.1901ZM28.9399 24.1901C28.9399 24.3492 29.0453 24.5018 29.2328 24.6144C29.4204 24.7269 29.6747 24.7901 29.9399 24.7901C30.2052 24.7901 30.4595 24.7269 30.647 24.6144C30.8346 24.5018 30.9399 24.3492 30.9399 24.1901C30.9399 24.031 30.8346 23.8783 30.647 23.7658C30.4595 23.6533 30.2052 23.5901 29.9399 23.5901C29.6747 23.5901 29.4204 23.6533 29.2328 23.7658C29.0453 23.8783 28.9399 24.031 28.9399 24.1901Z" fill="#FFAA54"/>
<path d="M14.6801 9.00004C14.6801 7.78004 18.5801 6.79004 24.0001 6.79004C29.4201 6.79004 33.3201 7.79004 33.3201 9.00004L34.3201 17.59C34.3201 16.31 29.7101 15.27 24.0201 15.27C18.3301 15.27 13.7201 16.27 13.7201 17.59L14.6801 9.00004Z" fill="#656769"/>
<path d="M24 10.07C28.62 10.07 32.22 10.67 33.61 11.5L33.32 9.00004C33.32 7.78004 29.42 6.79004 24 6.79004C18.58 6.79004 14.68 7.79004 14.68 9.00004L14.39 11.53C15.78 10.67 19.38 10.07 24 10.07Z" fill="#525252"/>
<path d="M14.6801 9.00004C14.6801 7.78004 18.5801 6.79004 24.0001 6.79004C29.4201 6.79004 33.3201 7.79004 33.3201 9.00004L34.3201 17.59C34.3201 16.31 29.7101 15.27 24.0201 15.27C18.3301 15.27 13.7201 16.27 13.7201 17.59L14.6801 9.00004Z" stroke="#45413C" stroke-linecap="round" stroke-linejoin="round"/>
</svg>
