<svg width="147" height="213" viewBox="0 0 147 213" fill="none" xmlns="http://www.w3.org/2000/svg">
<g clip-path="url(#clip0_29_1393)">
<path d="M69.647 148.194C70.232 151.977 71.805 165.549 79.761 165.419C82.543 165.367 84.181 163.911 85.091 161.792C86.82 157.84 86.079 151.613 85.689 147.999L71.896 142.825C71.896 142.825 71.519 143.033 71.077 143.475C70.297 144.267 69.27 145.776 69.647 148.194Z" fill="#F15A24"/>
<path d="M69.647 148.194C70.232 151.977 71.805 165.549 79.761 165.419C82.543 165.367 84.181 163.911 85.091 161.792C85.091 161.792 80.606 165.315 77.369 160.128C74.145 154.94 71.818 143.397 71.818 143.397C71.818 143.397 71.519 143.423 71.077 143.475C70.297 144.267 69.27 145.776 69.647 148.194Z" fill="#F15A24"/>
<path d="M72.0657 144.046C71.9994 144.098 71.9227 144.178 71.8577 144.241C71.1804 144.917 70.4407 146.113 70.7267 148.026C70.7514 148.234 70.7917 148.455 70.8307 148.713C71.4677 152.99 73.1447 164.328 79.6577 164.328H79.7487C81.8534 164.287 83.2457 163.353 84.1037 161.351C85.6117 157.891 85.0657 152.288 84.6887 148.765L72.0657 144.046ZM79.6447 166.51C71.2727 166.51 69.3864 153.835 68.6727 149.038C68.6324 148.791 68.6077 148.559 68.5687 148.362C68.1137 145.413 69.4657 143.552 70.3094 142.709C70.8437 142.176 71.3117 141.903 71.3637 141.875C71.6367 141.719 71.9747 141.693 72.2737 141.81L86.0667 146.986C86.4554 147.127 86.7167 147.48 86.7687 147.881L86.8077 148.245C87.1977 151.95 87.8594 158.138 86.0784 162.22C84.8824 164.978 82.6997 166.445 79.7617 166.499C79.7344 166.51 79.6824 166.51 79.6447 166.51Z" fill="#F15A24"/>
<path d="M71.1158 145.242C70.7648 145.92 70.5451 146.841 70.7258 148.026C70.7518 148.234 70.7908 148.455 70.8298 148.713C71.4681 152.99 73.1451 164.328 79.6568 164.328H79.7491C80.3848 164.313 80.9568 164.224 81.4638 164.04C81.2428 164.027 81.0088 164.003 80.7878 163.962C79.0718 163.663 77.6158 162.558 76.4588 160.701C73.8718 156.552 71.8828 148.663 71.1158 145.242ZM79.6451 166.51C71.2718 166.51 69.3868 153.835 68.6718 149.038C68.6328 148.791 68.6068 148.559 68.5678 148.362C68.1128 145.413 69.4648 143.552 70.3098 142.709C70.4788 142.538 70.7128 142.421 70.9468 142.397C71.4148 142.345 71.7138 142.317 71.7138 142.317C72.2598 142.265 72.7681 142.642 72.8838 143.188C72.9098 143.307 75.2108 154.602 78.2931 159.557C79.1108 160.87 80.0598 161.635 81.1388 161.817C82.8431 162.129 84.4018 160.933 84.4278 160.922C84.8178 160.621 85.3768 160.621 85.7681 160.922C86.1568 161.219 86.2998 161.752 86.0931 162.209C84.8971 164.963 82.7118 166.434 79.7738 166.486C79.7348 166.51 79.6828 166.51 79.6451 166.51Z" fill="#F15A24"/>
<path d="M54.2294 116.513C54.5674 118.359 54.9704 119.62 54.9704 119.62L55.8544 127.251L71.8964 129.214C71.9354 125.977 71.0644 122.337 69.6474 118.45C69.6474 118.45 77.8634 119.815 77.6684 128.044C77.5384 133.647 74.4054 138.886 72.4164 141.655C71.4544 142.994 71.6624 144.853 72.8974 145.932C75.3544 148.09 79.8784 150.665 85.6894 148.012L87.3794 146.036L92.5404 139.992C92.5404 139.992 91.7734 126.523 81.7764 115.72C71.7664 104.917 65.0714 100.159 58.2854 102.993C53.0074 105.19 53.4494 112.34 54.2294 116.513Z" fill="#F15A24"/>
<mask id="mask0_29_1393" style="mask-type:luminance" maskUnits="userSpaceOnUse" x="53" y="102" width="40" height="45">
<path d="M53.7611 102.189H92.5531V146.036H53.7611V102.189Z" fill="white"/>
</mask>
<g mask="url(#mask0_29_1393)">
<g opacity="0.199997">
<path d="M54.2288 116.513C55.0738 114.576 56.3478 112.847 58.2978 112.275C63.5238 110.728 69.2048 117.579 69.2048 117.579C81.0218 121.401 77.2505 131.359 81.7888 136.364C84.8438 139.744 86.5858 143.774 87.3918 146.036L92.5528 139.991C92.5528 139.991 91.7858 126.523 81.7888 115.72C71.7788 104.917 65.0838 100.159 58.2978 102.993C53.0068 105.19 53.4488 112.34 54.2288 116.513Z" fill="#F15A24"/>
</g>
</g>
<path d="M69.647 117.358C69.712 117.358 69.764 117.358 69.829 117.371C72.988 117.904 78.929 120.816 78.76 128.057C78.617 133.998 75.289 139.511 73.313 142.279C72.676 143.176 72.806 144.386 73.625 145.113C76.056 147.245 80.008 149.299 85.039 147.115L91.435 139.627C91.201 137.3 89.628 125.769 80.996 116.461C70.271 104.878 64.434 101.615 58.727 104.007C52.11 106.776 55.971 119.191 56.023 119.308C56.049 119.373 56.062 119.438 56.062 119.516L56.855 126.302L70.804 128.005C70.6493 125.405 69.946 122.389 68.646 118.84C68.516 118.476 68.581 118.073 68.828 117.774C69.0243 117.501 69.335 117.358 69.647 117.358ZM80.801 150.209C76.901 150.209 73.8993 148.233 72.195 146.738C70.531 145.282 70.245 142.813 71.545 141.005C73.378 138.444 76.459 133.361 76.589 128.005C76.706 123.143 73.521 120.998 71.363 120.101C72.481 123.585 73.014 126.588 72.988 129.214C72.988 129.526 72.845 129.813 72.611 130.02C72.377 130.228 72.065 130.319 71.766 130.28L55.724 128.317C55.23 128.252 54.827 127.863 54.775 127.368L53.904 119.841C53.475 118.437 49.705 105.385 57.882 101.979C65.526 98.7936 72.728 104.332 82.582 114.966C92.735 125.925 93.606 139.354 93.632 139.913C93.645 140.186 93.554 140.472 93.372 140.68L86.521 148.701C86.417 148.818 86.287 148.922 86.144 148.988C84.233 149.871 82.426 150.209 80.801 150.209Z" fill="#F15A24"/>
<path d="M68.6722 118.931L66.5402 113.146C66.3712 112.691 67.0082 112.379 67.2682 112.782L70.6092 117.956C70.9342 118.463 70.7912 119.139 70.2842 119.464C69.7252 119.854 68.9062 119.581 68.6722 118.931Z" fill="#F15A24"/>
<path d="M53.6312 134.038C54.1512 136.285 56.9072 140.367 63.5112 141.149C70.1152 141.927 72.0262 139.589 73.1572 137.366C73.4952 136.703 73.6512 135.908 73.6382 135.05C73.5732 131.371 70.2712 126.483 63.3162 125.666C59.2732 125.183 56.6342 126.563 55.1262 128.446C53.6962 130.227 53.2672 132.478 53.6312 134.038Z" fill="#F15A24"/>
<path d="M53.6312 134.038C54.1512 136.285 56.9072 140.367 63.5112 141.149C70.1152 141.927 72.0262 139.589 73.1572 137.366C73.4952 136.703 73.6512 135.908 73.6382 135.05C73.5602 134.87 70.8029 129.031 61.4182 128.069C59.1302 127.835 56.7772 128.266 55.1262 128.433C53.6962 130.227 53.2672 132.478 53.6312 134.038Z" fill="#F15A24"/>
<path d="M61.7562 126.64C58.8442 126.64 57.1282 127.81 56.1922 128.863C54.7492 130.475 54.4112 132.542 54.6972 133.777C55.1262 135.636 57.5572 139.328 63.6412 140.056C69.6602 140.771 71.2072 138.782 72.1952 136.858C72.8192 135.623 72.6242 133.686 71.7012 131.944C70.1672 129.084 67.0732 127.173 63.2122 126.718C62.6792 126.679 62.2112 126.64 61.7562 126.64ZM65.9422 142.396C65.1622 142.396 64.3172 142.344 63.3942 142.24C56.1272 141.382 53.1762 136.845 52.5912 134.297C52.1622 132.462 52.6172 129.63 54.5802 127.433C56.0102 125.821 58.7272 124.027 63.4592 124.586C68.0352 125.119 71.7402 127.446 73.6122 130.943C74.8862 133.335 75.0942 135.987 74.1322 137.872C72.9622 140.147 71.0642 142.396 65.9422 142.396Z" fill="#F15A24"/>
<path d="M60.053 132.152C59.195 132.152 58.376 132.243 57.635 132.413C56.088 132.776 55.074 133.491 54.853 134.388C54.632 135.286 55.204 136.39 56.4 137.43C57.752 138.588 59.702 139.523 61.899 140.056C64.096 140.589 66.267 140.667 67.996 140.264C69.543 139.9 70.557 139.186 70.778 138.288C70.999 137.391 70.4257 136.286 69.231 135.246C67.879 134.089 65.929 133.153 63.732 132.62C62.471 132.309 61.223 132.152 60.053 132.152ZM65.604 141.889C64.33 141.889 62.965 141.72 61.6 141.382C59.195 140.797 57.037 139.757 55.529 138.457C53.904 137.053 53.189 135.493 53.54 134.063C53.891 132.634 55.23 131.567 57.336 131.086C59.273 130.631 61.665 130.709 64.07 131.294C66.475 131.879 68.633 132.919 70.141 134.219C71.766 135.623 72.481 137.184 72.13 138.613C71.779 140.043 70.44 141.109 68.334 141.59C67.489 141.798 66.566 141.889 65.604 141.889Z" fill="#F15A24"/>
<path d="M54.2938 133.881C54.7488 135.831 57.2838 139.717 63.5888 140.471C69.5818 141.187 71.4408 139.25 72.5471 137.052C72.8058 136.533 72.9488 135.896 72.9618 135.207C72.4938 134.336 69.5818 129.577 61.3528 128.746C60.4298 128.654 59.4158 128.654 58.1808 128.771C56.9978 128.875 55.8928 129.461 55.1388 130.371C54.4238 131.242 54.0988 132.321 54.2158 133.425C54.2288 133.582 54.2548 133.738 54.2938 133.881ZM65.9158 141.979C65.1618 141.979 64.3298 141.927 63.4328 141.823C56.3738 140.992 53.5008 136.467 52.9808 134.192C52.9288 133.998 52.9028 133.777 52.8768 133.569C52.7208 132.113 53.1498 130.669 54.0988 129.513C55.0738 128.317 56.5298 127.55 58.0638 127.419C59.3898 127.302 60.4818 127.29 61.4958 127.394C70.9468 128.356 73.9498 134.102 74.2618 134.752C74.3008 134.842 74.3268 134.946 74.3268 135.05C74.3398 136.013 74.1578 136.936 73.7678 137.677C72.6628 139.848 70.8428 141.979 65.9158 141.979Z" fill="#F15A24"/>
<path d="M54.2811 136.338C53.9561 136.338 53.6701 136.104 53.6051 135.766C53.5401 135.402 53.8001 135.051 54.1641 134.986L67.6451 132.763C68.0221 132.698 68.3601 132.958 68.4238 133.322C68.4901 133.686 68.2301 134.037 67.8661 134.102L54.3851 136.325C54.3591 136.338 54.3201 136.338 54.2811 136.338Z" fill="#F15A24"/>
<path d="M57.5313 139.731C57.2193 139.731 56.9333 139.51 56.8683 139.185C56.7903 138.821 57.0373 138.457 57.4013 138.379L70.9473 135.675C71.3113 135.596 71.674 135.844 71.7533 136.208C71.8313 136.571 71.5843 136.936 71.2203 137.013L57.6743 139.717C57.6093 139.717 57.5703 139.731 57.5313 139.731Z" fill="#F15A24"/>
<path d="M40.1886 116.578C40.8386 119.061 41.7746 120.751 43.0356 120.985C45.1676 121.375 47.4816 121.037 49.4836 120.504C49.4966 120.504 49.5096 120.491 49.5226 120.491C52.4866 119.685 54.7616 118.437 54.7616 118.437C54.7616 118.437 54.0076 115.005 54.4626 111.612C54.8786 108.583 56.2696 105.58 60.0526 105.125C61.8986 104.904 63.8876 105.203 65.9026 105.892C72.6496 108.219 79.7736 114.953 83.5449 121.141C86.2866 125.652 87.1836 129.344 88.3406 132.659C89.2506 135.259 90.3179 137.625 92.5526 139.952L85.7016 147.973C85.7016 147.973 91.3449 152.68 100.457 150.236C100.47 150.236 100.47 150.236 100.483 150.222C103.109 149.507 106.034 148.207 109.193 146.011C109.193 146.011 99.5986 135.441 99.7949 122.714C99.9886 109.987 96.8556 96.4795 94.3076 92.1765C94.3076 92.1765 110.701 79.9565 117.227 67.8275C117.812 66.7485 118.189 65.5915 118.358 64.4085C118.618 62.6015 118.41 60.7295 117.722 58.9875C115.576 53.5795 110.793 44.3755 101.562 38.7855C101.562 38.7855 98.4806 50.3165 85.4949 59.5985C83.0756 61.3275 80.3196 62.9785 77.1866 64.4475C77.0176 64.5255 76.8356 64.6165 76.6679 64.6945C76.2116 64.9025 75.7566 65.1105 75.2886 65.3055C75.1326 65.3705 74.9766 65.4355 74.8219 65.5005C74.1316 65.7865 73.4179 66.0725 72.6886 66.3455C72.5066 66.4105 72.3246 66.4755 72.1426 66.5535C71.7929 66.6835 71.4276 66.8135 71.0636 66.9305C70.8699 66.9955 70.6606 67.0605 70.4656 67.1385C70.2836 67.2035 70.1159 67.2555 69.9326 67.3205C69.7909 67.3725 69.6466 67.4245 69.5036 67.4765C69.3866 67.5155 69.2696 67.5675 69.1526 67.6065C68.9719 67.6845 68.7756 67.7495 68.5949 67.8275C68.4246 67.8925 68.2426 67.9705 68.0736 68.0485C68.0086 68.0745 67.9566 68.1005 67.8916 68.1265C67.7096 68.2045 67.5276 68.2825 67.3586 68.3735C67.1506 68.4645 66.9556 68.5685 66.7476 68.6725C66.3446 68.8675 65.9416 69.0885 65.5386 69.3095C65.3436 69.4135 65.1356 69.5305 64.9406 69.6475C64.5506 69.8685 64.1606 70.1155 63.7836 70.3625C63.7706 70.3755 63.7576 70.3755 63.7446 70.3885C63.5626 70.5055 63.3806 70.6355 63.1856 70.7525C62.9906 70.8825 62.8086 71.0125 62.6136 71.1425C62.6006 71.1425 62.6006 71.1555 62.5876 71.1555C62.4056 71.2855 62.2366 71.4155 62.0546 71.5455C61.8856 71.6625 61.7166 71.7925 61.5606 71.9225C61.3656 72.0785 61.1576 72.2345 60.9626 72.4035C60.6116 72.6895 60.2606 72.9885 59.9096 73.3005C59.8836 73.3135 59.8706 73.3395 59.8446 73.3525C59.6756 73.4955 59.5196 73.6515 59.3636 73.7945C59.1946 73.9505 59.0256 74.1065 58.8696 74.2625L58.8436 74.2885C58.6876 74.4445 58.5316 74.6005 58.3756 74.7565C58.1546 74.9775 57.9336 75.2115 57.7126 75.4455C57.4656 75.7185 57.2186 75.9915 56.9716 76.2645C56.8806 76.3685 56.7896 76.4725 56.6986 76.5895C56.1916 77.1875 55.6976 77.8245 55.2166 78.4745C55.1126 78.6175 54.9956 78.7735 54.8916 78.9295C54.7876 79.0855 54.6706 79.2415 54.5666 79.3975C54.3456 79.7095 54.1376 80.0345 53.9426 80.3595C53.8646 80.4765 53.7866 80.5935 53.7216 80.7235C53.6696 80.8145 53.6046 80.9185 53.5526 81.0095C53.5136 81.0745 53.4746 81.1265 53.4486 81.1915C51.2646 84.8965 49.6786 89.1735 48.9246 93.9575C48.9246 93.9575 45.4926 88.9655 42.0736 91.0195C39.0706 92.8265 38.1346 108.687 40.1886 116.578Z" fill="black"/>
<mask id="mask1_29_1393" style="mask-type:luminance" maskUnits="userSpaceOnUse" x="50" y="45" width="68" height="106">
<path d="M50.7191 45.5458H117.972V150.951H50.7191V45.5458Z" fill="white"/>
</mask>
<g mask="url(#mask1_29_1393)">
<g opacity="0.199997">
<path d="M68.7241 102.174C74.6261 100.341 74.8731 95.193 76.1731 94.452C79.4491 92.593 83.5181 92.944 85.6631 96.038C86.5081 97.247 87.7171 98.235 89.4721 98.495C91.1101 98.742 92.4881 99.873 93.0211 101.433C93.9701 104.189 95.0491 109.129 95.0491 117.293C95.0621 131.658 104.461 142.694 104.682 142.955C104.539 142.903 100.717 144.696 96.4661 139.965C94.1911 137.417 91.2661 134.999 88.3671 132.671C89.2771 135.271 90.3431 137.638 92.5791 139.965L85.7281 147.986C85.7281 147.986 91.3701 152.692 100.483 150.248C100.496 150.248 100.496 150.248 100.509 150.235C103.005 149.494 105.748 148.219 108.699 146.165C108.699 146.165 99.1051 135.596 99.3001 122.87C99.4951 110.143 96.3621 96.636 93.8141 92.333C93.8141 92.333 110.207 80.113 116.733 67.984C117.318 66.905 117.695 65.748 117.864 64.565C118.124 62.758 117.916 60.886 117.227 59.144C115.81 55.556 113.223 50.304 108.959 45.546C106.411 47.002 104.669 48.146 104.669 48.146C104.669 48.146 105.982 51.669 106.216 56.245C106.593 63.421 96.7521 65.774 93.8141 59.222L85.4941 59.612C83.0761 61.341 80.3201 62.992 77.1871 64.461C77.0181 64.539 76.8361 64.63 76.6671 64.708C76.2121 64.916 75.7571 65.124 75.2891 65.319C75.1331 65.384 74.9771 65.449 74.8211 65.514C74.1321 65.8 73.4171 66.086 72.6891 66.359C72.5071 66.424 72.3251 66.489 72.1431 66.567C71.7921 66.697 71.4281 66.827 71.0641 66.944C70.8691 67.009 70.6611 67.074 70.4661 67.152C70.2841 67.217 70.1151 67.269 69.9331 67.334C69.7901 67.386 69.6471 67.438 69.5041 67.49C69.3871 67.529 69.2701 67.581 69.1531 67.62C68.9711 67.698 68.7761 67.763 68.5941 67.841C68.4251 67.906 68.2431 67.984 68.0741 68.062C68.0091 68.088 67.9571 68.114 67.8921 68.14C67.7101 68.218 67.5281 68.296 67.3591 68.387C67.1511 68.478 66.9561 68.582 66.7481 68.686C66.3451 68.881 65.9421 69.102 65.5391 69.323C65.3441 69.427 65.1361 69.544 64.9411 69.661C64.5511 69.895 64.1611 70.129 63.7841 70.376C63.7711 70.389 63.7581 70.389 63.7451 70.402C63.5631 70.519 63.3811 70.649 63.1861 70.766C62.9911 70.896 62.8091 71.026 62.6141 71.156C62.6011 71.156 62.6011 71.169 62.5881 71.169C62.4061 71.299 62.2371 71.429 62.0551 71.559C61.8861 71.676 61.7171 71.806 61.5611 71.936C61.3661 72.092 61.1581 72.248 60.9631 72.417C60.6121 72.703 60.2611 73.002 59.9101 73.314C59.8841 73.327 59.8711 73.353 59.8451 73.366C59.6761 73.509 59.5201 73.665 59.3641 73.808C59.1951 73.964 59.0261 74.12 58.8701 74.276L58.8441 74.302C58.6881 74.458 58.5321 74.614 58.3761 74.77C58.1551 74.991 57.9341 75.225 57.7131 75.459C57.4661 75.732 57.2191 76.005 56.9721 76.278C56.8811 76.382 56.7901 76.486 56.6991 76.603C56.1921 77.201 55.6981 77.838 55.2171 78.488C55.1131 78.631 54.9961 78.787 54.8921 78.943C54.7881 79.099 54.6711 79.255 54.5671 79.411C54.3461 79.723 54.1381 80.048 53.9431 80.373C53.8651 80.49 53.7871 80.607 53.7221 80.737C53.6701 80.828 53.6051 80.932 53.5531 81.023C53.5141 81.088 53.4751 81.14 53.4491 81.205C53.0071 87.445 50.7191 94.114 50.7191 94.114C56.7901 100.536 62.9911 103.955 68.7241 102.174Z" fill="black"/>
</g>
</g>
<mask id="mask2_29_1393" style="mask-type:luminance" maskUnits="userSpaceOnUse" x="39" y="104" width="27" height="18">
<path d="M39.6039 104.364H65.9289V121.314H39.6039V104.364Z" fill="white"/>
</mask>
<g mask="url(#mask2_29_1393)">
<g opacity="0.199997">
<path d="M39.6039 116.422C40.2539 119.061 41.2159 120.894 42.5289 121.141C44.8429 121.57 47.3779 121.141 49.4969 120.517C49.5099 120.517 49.5229 120.504 49.5359 120.504C52.2399 119.711 54.2679 118.593 54.2679 118.593C54.2679 118.593 53.3059 114.771 54.4889 111.625C54.9049 108.596 56.2959 105.593 60.0789 105.138C61.9249 104.917 63.9139 105.216 65.9289 105.905C64.1089 104.722 62.0029 104.176 59.3509 104.423C54.1119 104.93 51.8109 108.882 50.8099 112.002C49.7699 115.239 46.6239 117.358 43.2309 117.098C42.3079 117.033 41.2939 116.864 40.2019 116.578C39.9939 116.539 39.7989 116.474 39.6039 116.422Z" fill="#F15A24"/>
</g>
</g>
<path d="M87.3138 147.778C88.3161 148.363 90.0828 149.234 92.4618 149.638C97.2848 150.457 102.355 149.169 107.568 145.815C105.202 142.89 98.5328 133.661 98.7018 122.727C98.8968 110.077 95.7248 96.7525 93.3718 92.7615C93.0858 92.2805 93.2158 91.6695 93.6578 91.3315C93.8138 91.2145 109.934 79.1115 116.278 67.3335C116.798 66.3715 117.136 65.3445 117.279 64.2655C117.279 64.2395 117.293 64.2265 117.293 64.2005C117.513 62.5885 117.318 60.9245 116.707 59.3905C114.809 54.6195 110.454 46.0005 102.147 40.4495C101.432 42.3735 99.7951 46.1175 96.5451 50.3945C92.2928 55.9975 84.3758 63.6415 70.7661 68.1785C59.8838 71.8055 51.9148 81.7505 49.9648 94.1265C49.8998 94.5685 49.5618 94.9195 49.1328 95.0235C48.7038 95.1275 48.2488 94.9455 48.0018 94.5815C47.9758 94.5425 45.1158 90.4605 42.6068 91.9685C40.7738 93.0605 39.2008 105.397 40.8518 114.511C41.5408 118.294 42.5548 119.789 43.2308 119.906C47.1048 120.621 51.7978 118.658 53.5398 117.826C53.2018 115.732 52.6168 110.286 55.0348 106.867C56.1788 105.242 57.8298 104.292 59.9228 104.033C68.2558 103.019 79.1498 111.833 84.4681 120.569C86.7431 124.3 87.7818 127.511 88.7048 130.332C89.7838 133.621 90.7068 136.468 93.3198 139.186C93.7098 139.588 93.7228 140.225 93.3588 140.641L87.3138 147.778ZM95.2308 152.042C94.0088 152.042 92.9181 151.925 91.9678 151.757C87.6258 150.976 85.1038 148.922 84.9998 148.832C84.7788 148.649 84.6358 148.376 84.6098 148.09C84.5838 147.805 84.6748 147.518 84.8698 147.297L91.0968 140.005C88.6281 137.144 87.6661 134.18 86.6378 131.047C85.7538 128.33 84.7528 125.262 82.6078 121.739C77.6158 113.535 67.4238 105.346 60.1828 106.23C58.7008 106.412 57.5958 107.036 56.8028 108.154C54.3848 111.573 55.8018 118.164 55.8148 118.229C55.9188 118.697 55.6978 119.191 55.2688 119.412C54.9958 119.568 48.4178 123.104 42.8148 122.076C40.8388 121.713 39.4998 119.373 38.6938 114.927C37.2378 106.88 37.9268 92.2675 41.4758 90.1355C43.9718 88.6405 46.4808 89.9275 48.2358 91.5785C50.8748 79.4495 59.0908 69.8165 70.0758 66.1505C83.1018 61.8085 90.6808 54.5415 94.7368 49.1985C99.1451 43.4135 100.483 38.5775 100.497 38.5385C100.6 38.1745 100.886 37.8755 101.25 37.7715C101.51 37.6935 101.77 37.7195 102.004 37.8365C102.043 37.8495 102.07 37.8755 102.108 37.8885C111.716 43.7125 116.643 53.3845 118.722 58.6235C119.476 60.5215 119.724 62.5885 119.424 64.6035C119.424 64.6295 119.411 64.6425 119.411 64.6685C119.216 65.9815 118.8 67.2295 118.176 68.3995C112.326 79.2545 99.0268 89.9665 95.6858 92.5405C98.3638 97.9615 101.043 111.066 100.86 122.792C100.678 134.921 109.882 145.23 109.974 145.334C110.181 145.568 110.285 145.88 110.247 146.192C110.207 146.505 110.038 146.777 109.791 146.959C104.058 150.924 99.0411 152.042 95.2308 152.042Z" fill="black"/>
<path d="M42.8668 92.7617C42.7108 92.8007 41.8918 93.5677 41.1768 96.5057C40.5398 99.1187 40.1758 102.551 40.1758 106.178C40.1758 109.805 40.5268 113.237 41.1768 115.85C41.8918 118.775 42.7108 119.542 42.8928 119.594C43.0488 119.555 43.8678 118.788 44.5828 115.85C45.2198 113.237 45.5838 109.805 45.5838 106.178C45.5838 102.551 45.2328 99.1187 44.5828 96.5057C43.8678 93.5677 43.0488 92.8007 42.8668 92.7617ZM42.8798 121.752C39.0318 121.752 38.0048 111.963 38.0048 106.165C38.0048 100.38 39.0318 90.5777 42.8798 90.5777C46.7278 90.5777 47.7548 100.367 47.7548 106.165C47.7548 111.95 46.7278 121.752 42.8798 121.752Z" fill="#F15A24"/>
<path d="M42.8801 91.6699C44.9757 91.6699 46.6761 98.1595 46.6761 106.165C46.6761 114.17 44.9757 120.66 42.8801 120.66C40.7832 120.66 39.0841 114.17 39.0841 106.165C39.0841 98.1595 40.7832 91.6699 42.8801 91.6699Z" fill="#F15A24"/>
<path d="M53.7998 118.97C50.4198 112.301 50.1468 104.085 57.8168 100.445L57.2058 101.342L58.4798 91.644C58.5838 90.916 59.6628 90.994 59.6498 91.735L59.3638 101.524C59.3508 101.94 59.0908 102.239 58.7528 102.421C58.0898 102.772 57.4268 103.123 56.8548 103.591C52.2918 106.958 53.4358 113.51 55.6978 117.956C56.3868 119.204 54.5278 120.231 53.7998 118.97Z" fill="black"/>
<path d="M57.9606 100.38C59.0396 100.081 60.3136 100.094 61.4316 100.146C61.6656 100.172 62.6016 100.276 62.7966 100.315C62.9526 100.354 63.4336 100.445 63.6026 100.484C63.9146 100.549 64.3696 100.627 64.6556 100.731C66.7226 101.29 68.7246 102.174 70.5706 103.201L72.3906 104.293C73.2616 104.878 74.1196 105.502 74.9763 106.113C75.5106 106.542 76.8626 107.66 77.4073 108.115C77.9286 108.583 78.4226 109.064 78.9426 109.545C79.8786 110.39 81.0226 111.586 81.8806 112.509C82.2706 112.938 82.9323 113.588 83.2846 114.043L85.9496 117.228C86.1576 117.475 86.1186 117.826 85.8703 118.034C85.6246 118.242 85.2606 118.203 85.0513 117.956L82.3356 114.901C81.9703 114.472 81.3073 113.861 80.9056 113.445C80.0346 112.561 78.8906 111.43 77.9533 110.637C77.4476 110.195 76.9406 109.727 76.4206 109.298L74.8073 108.063C74.3406 107.686 73.6646 107.205 73.1706 106.88C70.4536 105.021 67.3856 103.448 64.1876 102.681C63.9146 102.603 63.5116 102.538 63.2256 102.486C62.9656 102.447 62.5236 102.356 62.2636 102.343L61.3016 102.252H60.3526C59.7546 102.291 59.1306 102.33 58.5456 102.499C57.1546 102.85 56.5696 100.809 57.9606 100.38Z" fill="black"/>
<path d="M49.7572 93.295L53.9432 99.405C54.3072 99.951 53.5532 100.562 53.0982 100.081L48.0672 94.647C47.6642 94.205 47.6902 93.516 48.1322 93.1C48.5872 92.658 49.3802 92.749 49.7572 93.295Z" fill="black"/>
<path d="M85.7019 147.998C85.7019 147.998 95.1009 155.826 109.193 146.035C97.4539 145.45 92.5542 139.964 92.5542 139.964L85.7019 147.998Z" fill="black"/>
<path d="M87.3135 147.777C88.3158 148.375 90.0825 149.233 92.4615 149.638C96.7658 150.377 101.264 149.43 105.89 146.83C98.5598 145.84 94.3465 142.982 92.6448 141.537L87.3135 147.777ZM95.2305 152.041C94.0098 152.041 92.9178 151.926 91.9675 151.757C87.6255 150.975 85.1035 148.921 84.9995 148.832C84.7785 148.648 84.6368 148.375 84.6095 148.089C84.5848 147.805 84.6745 147.517 84.8695 147.296L91.7218 139.275C91.9285 139.041 92.2288 138.898 92.5408 138.898H92.5538C92.8658 138.898 93.1635 139.03 93.3598 139.262C93.3988 139.314 98.1555 144.41 109.244 144.969C109.714 144.995 110.104 145.309 110.232 145.762C110.364 146.204 110.195 146.685 109.803 146.958C104.057 150.923 99.0408 152.041 95.2305 152.041Z" fill="black"/>
<path d="M53.7615 92.6057C55.6855 95.0887 66.1895 97.2987 74.4185 91.6697C82.6345 86.0407 93.9965 87.2497 93.9965 87.2497C91.4615 76.6807 83.1675 69.2447 83.1675 69.2447L80.5285 69.9467L60.3265 75.2767L57.1155 76.1217C57.8175 87.3147 53.7615 92.6057 53.7615 92.6057Z" fill="black"/>
<path d="M58.4149 90.2659C58.4149 90.2659 63.5239 93.3859 71.9089 88.5629C80.5149 83.6099 88.6399 83.7399 88.6399 83.7399C86.6769 77.3439 80.5279 69.9469 80.5279 69.9469L60.3259 75.2769C61.6389 82.6089 58.4149 90.2659 58.4149 90.2659Z" fill="black"/>
<path d="M55.165 92.424C57.765 94.205 66.631 95.674 73.7953 90.773C80.515 86.171 89.0703 85.95 92.54 86.067C90.1493 78.02 84.428 72.001 82.8433 70.454L60.677 76.304C60.651 76.317 60.625 76.317 60.599 76.33L58.233 76.954C58.597 85.482 56.27 90.552 55.165 92.424ZM62.562 96.272C58.012 96.272 54.203 94.946 52.903 93.269C52.604 92.879 52.604 92.333 52.903 91.943C52.968 91.852 56.699 86.73 56.036 76.187C55.997 75.667 56.348 75.199 56.842 75.069L59.988 74.237C60.014 74.224 60.04 74.224 60.066 74.211L82.8953 68.179C83.245 68.088 83.622 68.179 83.895 68.426C84.2473 68.738 92.475 76.213 95.062 86.99C95.14 87.328 95.049 87.692 94.815 87.965C94.581 88.225 94.23 88.368 93.879 88.329C93.775 88.316 82.816 87.224 75.0433 92.554C71.103 95.258 66.553 96.272 62.562 96.272Z" fill="black"/>
<path d="M59.7931 89.6939C61.4441 90.2659 65.4871 91.0069 71.3501 87.6269C77.9931 83.8049 84.2994 82.9079 87.1204 82.7129C85.2601 77.9159 81.3991 72.8199 80.1121 71.1819L61.5481 76.0829C62.2891 81.8159 60.5861 87.4579 59.7931 89.6939ZM62.9651 92.3459C59.8061 92.3459 57.9731 91.2669 57.8431 91.1889C57.3881 90.9029 57.1931 90.3309 57.4141 89.8369C57.4531 89.7329 60.4951 82.3619 59.2601 75.4719C59.2471 75.4069 59.2471 75.3419 59.2471 75.2769C59.2471 74.7829 59.5851 74.3539 60.0531 74.2239L80.2551 68.8939C80.6581 68.7899 81.1001 68.9199 81.3744 69.2449C81.6331 69.5569 87.6911 76.8889 89.6931 83.4149C89.7971 83.7529 89.7321 84.1039 89.5241 84.3899C89.3161 84.6629 88.9911 84.8319 88.6401 84.8189C88.5621 84.8189 80.6841 84.7669 72.4681 89.4989C68.6071 91.7089 65.3961 92.3459 62.9651 92.3459Z" fill="black"/>
<mask id="mask3_29_1393" style="mask-type:luminance" maskUnits="userSpaceOnUse" x="57" y="71" width="32" height="15">
<path d="M57.1932 71.0648H88.3672V85.0385H57.1932V71.0648Z" fill="white"/>
</mask>
<g mask="url(#mask3_29_1393)">
<g opacity="0.199997">
<path d="M57.1932 78.3452C57.2452 79.0602 57.2712 79.7492 57.2712 80.4252C58.2072 81.5562 59.4422 82.5052 60.8722 83.2332C64.9022 85.3002 70.5832 85.6902 76.2902 83.8962C80.4242 82.6092 83.8822 80.3862 86.2872 77.7472C87.1062 76.8502 87.8082 75.9142 88.3672 74.9392C86.3522 72.4692 84.7792 71.0652 84.7792 71.0652L81.9842 71.8062L60.5992 77.4482L57.1932 78.3452Z" fill="black"/>
</g>
</g>
<path d="M30.5693 94.8807C30.4393 102.252 37.8753 102.174 37.8753 102.174L46.6633 107.478C47.1053 101.966 44.9213 93.9707 44.9213 93.9707L42.8673 93.1257C43.1663 90.3827 39.9553 88.3027 37.3423 87.6397C34.7423 86.9897 30.6993 87.5227 30.5693 94.8807Z" fill="#F15A24"/>
<path d="M37.8752 101.082C38.0702 101.082 38.2652 101.134 38.4342 101.238L45.6362 105.58C45.5842 101.355 44.4012 96.3497 44.0112 94.7637L42.4642 94.1267C42.0222 93.9447 41.7492 93.4767 41.8012 92.9957C42.0352 90.9157 39.1232 89.1997 37.0952 88.6927C36.2892 88.4977 34.7682 88.2897 33.5852 89.1867C32.3762 90.1097 31.7132 92.0857 31.6612 94.8807C31.6222 96.7267 32.1292 98.1957 33.1562 99.2357C34.9372 101.069 37.8232 101.082 37.8752 101.082ZM46.6762 108.57C46.4812 108.57 46.2862 108.518 46.1172 108.414L37.5632 103.253C36.5882 103.201 33.6762 102.876 31.6222 100.796C30.1662 99.3267 29.4512 97.3247 29.4902 94.8677C29.5552 91.3317 30.4912 88.8487 32.2722 87.4837C33.6762 86.4047 35.5872 86.0927 37.6282 86.5997C40.1762 87.2367 43.7382 89.2777 43.9852 92.4107L45.3502 92.9827C45.6622 93.1127 45.8962 93.3727 45.9872 93.6977C46.0782 94.0357 48.2232 101.94 47.7682 107.582C47.7422 107.959 47.5212 108.284 47.1832 108.466C47.0142 108.531 46.8452 108.57 46.6762 108.57Z" fill="#F15A24"/>
<path d="M103.759 41.62C104.968 44.779 106.957 49.732 109.05 53.749C111.989 59.404 116.018 63.486 117.345 63.85C117.487 62.355 117.279 60.834 116.72 59.417C114.939 54.958 111.026 47.145 103.759 41.62ZM117.539 66.047C114.575 66.047 109.583 59.482 107.126 54.75C103.733 48.224 100.574 39.241 100.535 39.163C100.418 38.825 100.483 38.461 100.678 38.175C100.886 37.889 101.211 37.72 101.562 37.72C101.757 37.72 101.952 37.772 102.121 37.876C111.728 43.7 116.655 53.372 118.735 58.611C119.489 60.509 119.736 62.576 119.437 64.591C119.424 64.708 119.385 64.825 119.32 64.942C118.97 65.644 118.32 66.047 117.539 66.047Z" fill="#F15A24"/>
<path d="M101.562 38.799C102.343 41.685 105.02 47.522 107.049 51.734C108.4 54.555 109.466 56.661 109.466 56.661C112.287 53.086 112.027 48.588 112.027 48.588C118.072 47.314 119.047 39.488 119.047 39.488C120.191 37.824 120.061 36.446 119.541 35.419C118.891 34.106 117.618 33.365 117.618 33.365C118.137 30.635 114.484 28.919 114.484 28.919C114.484 25.786 110.572 25.786 110.572 25.786C109.791 24.486 107.699 23.303 105.489 25.253C103.266 27.203 103.655 30.518 103.655 30.518C103.655 30.518 101.822 30.219 100.522 33.209C99.2088 36.212 101.562 38.799 101.562 38.799Z" fill="#F15A24"/>
<mask id="mask4_29_1393" style="mask-type:luminance" maskUnits="userSpaceOnUse" x="100" y="33" width="20" height="24">
<path d="M100.105 33.2218H119.913V56.6738H100.105V33.2218Z" fill="white"/>
</mask>
<g mask="url(#mask4_29_1393)">
<g opacity="0.199997">
<path d="M107.1 51.591C107.074 51.6429 107.062 51.6949 107.035 51.7469C108.387 54.568 109.454 56.674 109.454 56.674C112.274 53.0989 112.014 48.6009 112.014 48.6009C118.06 47.327 119.035 39.5009 119.035 39.5009C120.179 37.8369 120.049 36.4589 119.529 35.4319C119.529 35.4319 115.993 40.7099 112.885 40.4499L112.314 37.9409C112.314 37.9409 104.241 37.4599 100.497 33.2219C99.1971 36.2119 101.549 38.8119 101.549 38.8119C101.549 38.8119 102.693 39.8389 104.149 40.9569C107.439 43.4269 108.647 47.7949 107.1 51.591Z" fill="#F15A24"/>
</g>
</g>
<path d="M103.487 31.6096C103.318 31.6096 102.355 31.7136 101.51 33.6506C100.509 35.9386 102.291 37.9796 102.368 38.0706C102.485 38.2006 102.564 38.3566 102.602 38.5126C103.591 42.1526 107.776 50.7976 109.583 54.4766C111.078 51.6296 110.935 48.6916 110.935 48.6526C110.909 48.1196 111.274 47.6386 111.793 47.5216C116.993 46.4296 117.943 39.4226 117.955 39.3446C117.981 39.1756 118.047 39.0066 118.137 38.8636C118.722 38.0056 118.93 37.2256 118.762 36.4846C118.462 35.1586 117.058 34.3136 117.045 34.3136C116.643 34.0796 116.434 33.6246 116.525 33.1696C116.876 31.3366 114.029 29.9196 113.991 29.9066C113.614 29.7246 113.366 29.3476 113.366 28.9186C113.366 26.9556 110.818 26.8776 110.532 26.8776C110.155 26.8776 109.804 26.6696 109.609 26.3446C109.375 25.9416 108.843 25.4346 108.141 25.3306C107.503 25.2266 106.841 25.4736 106.164 26.0716C104.409 27.6056 104.695 30.3746 104.695 30.4006C104.734 30.7516 104.643 31.1156 104.37 31.3496C104.137 31.5966 103.824 31.6876 103.487 31.6096ZM109.466 57.7656H109.362C108.999 57.7266 108.674 57.5056 108.504 57.1806C108.231 56.6476 102.03 44.3626 100.587 39.3316C99.989 38.5646 98.182 35.8866 99.534 32.8056C100.445 30.7256 101.653 29.9196 102.55 29.6206C102.602 28.3076 102.966 26.0326 104.774 24.4596C106.243 23.1726 107.62 23.0686 108.518 23.2116C109.545 23.3676 110.493 23.9396 111.156 24.7586C112.807 24.9276 115.16 25.7986 115.524 28.2816C116.591 28.9186 118.762 30.5176 118.762 32.8706C119.464 33.4166 120.568 34.4956 120.906 36.0426C121.193 37.3166 120.92 38.6296 120.087 39.9166C119.853 41.3336 118.527 47.7296 113.12 49.4586C113.054 51.0576 112.625 54.4636 110.324 57.3626C110.116 57.6096 109.791 57.7656 109.466 57.7656Z" fill="#F15A24"/>
<path d="M107.295 40.047C106.736 40.047 106.164 39.904 105.67 39.605C105.15 39.293 104.981 38.63 105.293 38.11C105.605 37.59 106.268 37.421 106.788 37.733C107.204 37.98 107.763 37.902 108.114 37.538C108.595 37.044 108.504 36.16 107.893 35.185C106.138 32.403 103.382 31.584 103.356 31.584C102.784 31.415 102.447 30.817 102.615 30.245C102.784 29.673 103.369 29.335 103.954 29.491C104.097 29.53 107.516 30.518 109.739 34.028C111.143 36.251 110.636 38.084 109.687 39.059C109.024 39.709 108.166 40.047 107.295 40.047Z" fill="#F15A24"/>
<path d="M107.204 33.7679H107.139C106.541 33.7289 106.087 33.2219 106.112 32.6239C106.36 28.1519 109.687 25.1229 109.831 24.9929C110.272 24.5899 110.962 24.6289 111.364 25.0839C111.768 25.5259 111.728 26.2149 111.287 26.6179C111.26 26.6439 108.491 29.1919 108.283 32.7539C108.258 33.3129 107.776 33.7679 107.204 33.7679Z" fill="#F15A24"/>
<path d="M109.22 36.5107C109.129 36.5107 109.025 36.4977 108.921 36.4717C108.349 36.3157 108.01 35.7047 108.166 35.1327C109.181 31.5317 113.627 28.1907 113.808 28.0477C114.289 27.6837 114.966 27.7877 115.329 28.2687C115.693 28.7497 115.589 29.4257 115.108 29.7897C115.043 29.8417 111.066 32.8317 110.26 35.7047C110.143 36.1987 109.7 36.5107 109.22 36.5107Z" fill="#F15A24"/>
<path d="M114.77 43.2189C113.925 43.2189 113.145 42.8809 112.534 42.2569C111.741 41.4509 111.689 40.3459 111.975 39.2539C111.547 39.3839 111.117 39.4359 110.701 39.4489C109.297 39.4359 108.53 38.6559 108.439 38.5649L110.025 37.0829C110.025 37.0829 110.012 37.0699 109.999 37.0569C110.441 37.4469 111.858 37.5639 114.147 35.1589C114.549 34.7429 115.199 34.7039 115.641 35.0809C116.083 35.4579 116.149 36.1079 115.797 36.5759C114.51 38.2529 113.665 40.3069 114.081 40.7359C114.289 40.9569 114.51 41.0479 114.77 41.0479C115.238 41.0479 116.317 40.7489 118.254 38.7469C118.67 38.3179 119.359 38.3049 119.788 38.7209C120.217 39.1369 120.23 39.8259 119.814 40.2549C117.89 42.2439 116.239 43.2189 114.77 43.2189Z" fill="#F15A24"/>
<path d="M114.926 36.9919C114.64 36.9919 114.354 36.8749 114.133 36.6539C113.717 36.2119 113.743 35.5229 114.172 35.1199L116.849 32.5849C117.292 32.1689 117.968 32.1949 118.384 32.6239C118.799 33.0659 118.774 33.7549 118.345 34.1579L115.667 36.6929C115.472 36.9009 115.199 36.9919 114.926 36.9919Z" fill="#F15A24"/>
<path d="M31.5575 122.753C34.5345 122.389 35.9515 120.309 36.7315 117.267C38.1615 111.703 37.4725 102.915 40.3195 95.5045C43.2315 87.9255 43.0495 81.6335 42.5945 78.2405C42.2955 76.0045 40.9825 74.0415 39.0195 72.9365C37.4205 72.0395 35.4575 71.2725 33.5465 70.7785C30.1405 69.8815 26.9035 69.8295 26.2665 71.3635C24.9665 74.4965 33.5725 80.8925 33.7025 93.0475C33.8065 102.993 27.9825 108.7 24.4985 111.521C23.7185 112.145 23.0685 112.639 22.6135 112.99C20.1305 114.914 23.1335 123.793 31.5575 122.753Z" fill="black"/>
<path d="M29.3207 71.2211C28.0597 71.2211 27.3837 71.4941 27.2667 71.7671C26.9547 72.5081 28.0467 74.3411 29.2167 76.2781C31.4007 79.9311 34.7157 85.4301 34.7937 93.0221C34.8717 100.627 31.6347 107.127 25.1867 112.353C24.6797 112.769 24.2117 113.12 23.8347 113.406C23.6267 113.562 23.4447 113.705 23.2887 113.822C22.7817 114.225 22.6517 115.655 23.3277 117.28C24.3677 119.763 27.0327 122.22 31.4267 121.674C33.6237 121.401 34.8977 120.01 35.6777 117.046C35.6777 117.033 35.6907 117.007 35.6907 116.994C36.2367 114.875 36.4707 112.171 36.7177 109.311C37.1077 104.813 37.5367 99.7301 39.3177 95.1151C42.1907 87.6271 41.9307 81.4131 41.5277 78.3841C41.2807 76.4991 40.1367 74.8091 38.4987 73.8861C37.0297 73.0541 35.1837 72.3261 33.2987 71.8321C33.2727 71.8191 33.2467 71.8191 33.2207 71.8061C31.5697 71.3641 30.2827 71.2211 29.3207 71.2211ZM30.2177 123.923C25.4727 123.923 22.4827 120.907 21.3127 118.125C20.2727 115.642 20.5197 113.224 21.9367 112.119C22.1057 111.989 22.2877 111.846 22.5087 111.677C22.8857 111.378 23.3277 111.053 23.8087 110.65C29.8147 105.788 32.6877 100.029 32.6097 93.0351C32.5317 86.0411 29.5287 81.0361 27.3447 77.3831C25.7067 74.6531 24.5237 72.6771 25.2517 70.9221C26.4217 68.1141 31.6217 69.1411 33.8057 69.7131C33.8317 69.7131 33.8447 69.7261 33.8707 69.7261C35.9117 70.2591 37.9137 71.0651 39.5387 71.9751C41.7747 73.2361 43.3217 75.5241 43.6597 78.0851C44.0887 81.3221 44.3617 87.9391 41.3197 95.8821C39.6557 100.211 39.2397 105.138 38.8627 109.48C38.6157 112.418 38.3687 115.187 37.7837 117.475C37.7837 117.488 37.7707 117.514 37.7707 117.527C37.1337 119.984 35.8207 123.312 31.6737 123.819C31.1797 123.897 30.6857 123.923 30.2177 123.923Z" fill="black"/>
<path d="M27.0458 110.702C29.8018 111.365 31.6218 113.016 32.7008 114.342C33.5328 111.599 34.9238 105.541 36.4708 95.3226C38.1478 84.2336 33.7928 73.8986 32.7788 71.6756C29.2688 70.8306 27.4618 71.2856 27.2668 71.7406C26.9548 72.4816 28.0468 74.3146 29.2168 76.2516C31.4008 79.9046 34.7158 85.4036 34.7938 92.9956C34.8588 99.8336 32.2588 105.775 27.0458 110.702ZM32.9478 117.774H32.8438C32.4668 117.735 32.1288 117.501 31.9598 117.15C31.8688 116.968 29.7238 112.587 24.4848 112.587C24.0298 112.587 23.6138 112.301 23.4578 111.859C23.3018 111.43 23.4448 110.936 23.7958 110.65C29.7888 105.788 32.6748 100.029 32.5968 93.0346C32.5188 86.0406 29.5158 81.0356 27.3318 77.3826C25.6938 74.6526 24.5108 72.6766 25.2388 70.9216C26.4088 68.1136 31.6088 69.1406 33.7928 69.7126C33.9748 69.7646 34.1438 69.8556 34.2738 69.9856C34.3648 70.0636 34.4428 70.1676 34.4948 70.2846C34.7418 70.7786 40.5918 82.5176 38.6028 95.6736C36.8868 107.049 34.9628 115.759 33.8058 117.345C33.6238 117.605 33.2988 117.774 32.9478 117.774Z" fill="black"/>
<path d="M24.0826 113.211C23.9916 113.276 23.9136 113.341 23.8356 113.406C23.6276 113.562 23.4456 113.705 23.2896 113.822C22.7826 114.225 22.6526 115.655 23.3286 117.28C24.3686 119.763 27.0336 122.22 31.4276 121.674C32.7276 121.518 33.6896 120.972 34.4306 119.945C33.2606 120.218 31.8046 120.166 30.1406 119.451C26.9556 118.086 24.9926 114.992 24.0826 113.211ZM30.2186 123.923C25.4736 123.923 22.4836 120.907 21.3136 118.125C20.2736 115.642 20.5206 113.224 21.9376 112.119C22.1066 111.989 22.2886 111.846 22.5096 111.677C22.8866 111.378 23.3286 111.053 23.8096 110.65C24.0826 110.429 24.4466 110.351 24.7846 110.442C25.1226 110.533 25.3956 110.78 25.5126 111.118C25.5256 111.17 27.3456 115.889 30.9856 117.449C34.1706 118.801 35.6786 116.864 35.8346 116.643C36.1076 116.266 36.6016 116.097 37.0566 116.24C37.5116 116.383 37.8106 116.799 37.8106 117.267C37.8106 117.358 37.7976 117.449 37.7716 117.54C37.1346 119.997 35.8216 123.325 31.6746 123.832C31.1806 123.897 30.6866 123.923 30.2186 123.923Z" fill="black"/>
<path d="M33.7942 55.3913C36.4488 53.9912 40.224 55.936 42.2261 59.7346C44.2281 63.5319 43.6989 67.7452 41.0443 69.1453C38.3898 70.5441 34.6145 68.6006 32.6125 64.802C30.6105 61.0034 31.1396 56.7901 33.7942 55.3913Z" fill="#F15A24"/>
<path d="M35.6906 56.0628C35.2096 56.0628 34.6896 56.1668 34.1956 56.4528C32.1546 57.6618 31.9336 61.3668 33.7146 64.5518C34.8066 66.5148 36.4706 67.9578 38.1606 68.3998C38.8236 68.5818 39.7856 68.6728 40.6826 68.1398C42.7236 66.9308 42.9446 63.2128 41.1636 60.0408C40.0716 58.0778 38.4076 56.6348 36.7176 56.1928C36.4186 56.1278 36.0676 56.0628 35.6906 56.0628ZM39.1876 70.7268C38.6676 70.7268 38.1346 70.6488 37.6016 70.5058C35.3656 69.9078 33.2076 68.0748 31.8296 65.6178C29.4116 61.3018 29.9706 56.4528 33.0906 54.5938C34.3126 53.8658 35.7556 53.6968 37.2896 54.1128C39.5256 54.7108 41.6836 56.5438 43.0616 59.0008C45.4796 63.3168 44.9206 68.1658 41.8006 70.0248C40.9946 70.4928 40.1106 70.7268 39.1876 70.7268Z" fill="#F15A24"/>
<path d="M67.7364 59.768C67.7364 59.768 89.3944 46.417 97.5324 22.666C98.2344 20.612 97.4804 18.337 95.7241 17.141C89.2514 12.734 72.4281 2.71098 51.4344 1.11198C50.3814 1.03399 49.3154 1.29398 48.4054 1.85299C43.7774 4.71298 29.3474 15.568 18.1154 45.364C17.3614 47.366 18.3884 49.602 20.3644 50.278C28.9314 53.151 51.1614 60.028 67.7364 59.768Z" fill="black"/>
<mask id="mask5_29_1393" style="mask-type:luminance" maskUnits="userSpaceOnUse" x="17" y="1" width="81" height="48">
<path d="M17.8629 1.09882H97.783V48.3148H17.8629V1.09882Z" fill="white"/>
</mask>
<g mask="url(#mask5_29_1393)">
<g opacity="0.399994">
<path d="M18.2068 48.3148C18.2458 48.0808 18.3108 47.8468 18.4018 47.6128C29.6338 17.8168 44.0638 6.94882 48.6918 4.10182C49.6018 3.54282 50.6548 3.28282 51.7208 3.36082C72.7158 4.97282 89.5378 14.9958 96.0118 19.3898C96.8308 19.9488 97.4288 20.7288 97.7538 21.6258C97.9488 19.8838 97.1818 18.1418 95.7128 17.1408C89.2388 12.7338 72.4168 2.71082 51.4218 1.11182C50.3688 1.03382 49.3028 1.29382 48.3928 1.85282C43.7648 4.71282 29.3348 15.5678 18.1028 45.3638C17.7388 46.3518 17.8038 47.4178 18.2068 48.3148Z" fill="black"/>
</g>
</g>
<mask id="mask6_29_1393" style="mask-type:luminance" maskUnits="userSpaceOnUse" x="21" y="5" width="78" height="54">
<path d="M21.339 5.58114H98.182V58.2922H21.339V5.58114Z" fill="white"/>
</mask>
<g mask="url(#mask6_29_1393)">
<g opacity="0.199997">
<path d="M21.3383 50.6028C30.3083 53.0598 54.7873 59.3388 71.0373 58.1428C71.0373 58.1428 91.0313 44.0638 98.1813 20.5988C91.7463 16.7508 62.5353 3.56882 51.4463 5.84382C41.0463 7.97582 25.1733 36.9658 21.3383 50.6028Z" fill="black"/>
</g>
</g>
<path d="M51.044 2.1775C50.316 2.1775 49.601 2.3855 48.977 2.7625C44.804 5.3365 30.322 16.0355 19.129 45.7405C18.869 46.4425 18.895 47.2225 19.22 47.8985C19.519 48.5485 20.052 49.0165 20.715 49.2375C29.347 52.1365 51.083 58.8445 67.424 58.6755C69.829 57.1155 89.069 44.0505 96.518 22.3015C97.064 20.7155 96.492 18.9605 95.127 18.0375C88.9 13.7995 72.169 3.7765 51.369 2.1905C51.252 2.1775 51.148 2.1775 51.044 2.1775ZM66.8 60.8595C50.212 60.8595 28.632 54.2035 20.013 51.3045C18.791 50.8885 17.816 50.0175 17.257 48.8345C16.685 47.6385 16.633 46.2345 17.101 44.9865C21.963 32.0905 27.956 21.2745 34.898 12.8115C40.579 5.9085 45.441 2.3985 47.833 0.9165C48.951 0.227497 50.212 -0.0844994 51.512 0.0195007C72.845 1.6575 89.966 11.9015 96.336 16.2435C98.507 17.7125 99.417 20.5075 98.559 23.0165C94.282 35.4835 86.3 45.0645 80.3473 50.9015C73.8993 57.2195 68.529 60.5605 68.308 60.6905C68.139 60.7945 67.944 60.8465 67.749 60.8465C67.437 60.8595 67.125 60.8595 66.8 60.8595Z" fill="black"/>
<path d="M34.1833 43.8817L34.7553 46.3777L35.8733 51.2787L38.0053 60.6387C39.1493 74.4317 54.1123 82.2967 73.2743 77.4997C91.0193 73.0667 97.2203 61.0937 95.8033 53.7487C95.4913 52.1107 94.9973 50.6677 94.424 49.4457C92.4493 45.1817 89.5373 43.3097 89.5373 43.3097C86.9763 35.9647 82.6993 26.5787 82.6993 26.5787C82.6993 26.5787 78.0323 17.8687 58.2593 22.0417C44.0373 25.0447 36.2503 34.2487 34.4303 39.4617C33.9233 40.8787 33.8453 42.4127 34.1833 43.8817Z" fill="#F15A24"/>
<mask id="mask7_29_1393" style="mask-type:luminance" maskUnits="userSpaceOnUse" x="35" y="49" width="61" height="30">
<path d="M35.8602 49.4458H95.9852V78.9128H35.8602V49.4458Z" fill="white"/>
</mask>
<g mask="url(#mask7_29_1393)">
<g opacity="0.199997">
<path d="M35.8606 51.2785L37.9926 60.6385C39.1366 74.4315 54.0996 82.2965 73.2616 77.4995C91.0053 73.0665 97.2076 61.0935 95.7906 53.7485C95.4786 52.1105 94.9846 50.6675 94.4126 49.4455C94.4126 49.4455 95.9323 65.9425 72.8456 71.0775C49.7576 76.2125 41.4116 67.0475 39.6046 60.7945C38.6816 57.6225 37.1606 54.0475 35.8606 51.2785Z" fill="#F15A24"/>
</g>
</g>
<path d="M67.6585 21.5868C64.9935 21.5868 61.8215 21.8988 58.0515 22.6918C44.4405 25.5648 36.8225 34.2618 35.0285 39.4098C34.5995 40.6318 34.5345 41.9448 34.8205 43.2318L38.6295 59.9888C38.6425 60.0408 38.6425 60.0928 38.6555 60.1448C39.0845 65.3708 41.6065 69.7778 45.9355 72.8848C52.3965 77.5128 62.1075 78.6698 72.5855 76.0438C89.7455 71.7538 95.6215 60.3138 94.3085 53.5538C92.9955 46.8068 88.5625 43.8558 88.5222 43.8168C88.3155 43.6868 88.1595 43.4918 88.0802 43.2578C85.6492 36.3028 81.6335 27.3718 81.3085 26.6568C81.1915 26.4488 80.0085 24.6288 76.8222 23.2378C74.8735 22.3668 71.9225 21.5868 67.6585 21.5868ZM61.9255 79.5668C55.2175 79.5668 49.2245 77.8898 44.6615 74.6268C39.8125 71.1558 36.9915 66.2288 36.4845 60.3788L32.6885 43.6998C32.3115 42.0228 32.4025 40.2808 32.9615 38.6818C34.9245 33.0788 43.1015 23.6148 57.5965 20.5598C77.9415 16.2698 83.0115 25.2658 83.2195 25.6428C83.2325 25.6688 83.2455 25.6818 83.2455 25.7078C83.2845 25.7988 87.4445 34.9508 90.0055 42.2048C91.1742 43.0758 95.1262 46.4428 96.4262 53.1248C97.2595 57.4148 95.6605 62.6018 92.1375 66.9698C89.1995 70.6228 83.5055 75.5238 73.1055 78.1238C69.2575 79.0988 65.4875 79.5668 61.9255 79.5668Z" fill="#F15A24"/>
<path d="M63.1603 58.8316C64.0703 61.7566 66.0723 64.0836 70.3103 63.1086C71.1163 62.9266 71.7663 62.6146 72.2863 62.2116C76.6413 58.8706 72.0783 49.0166 72.0783 49.0166C72.0783 49.0166 67.0213 52.4096 62.5883 50.4466C62.5883 50.4596 61.9903 55.1266 63.1603 58.8316Z" fill="black"/>
<path d="M63.1603 58.8316C64.0703 61.7566 66.0723 64.0836 70.3103 63.1086C71.1163 62.9266 71.7663 62.6146 72.2863 62.2116C72.2993 62.0426 72.3123 61.8736 72.3123 61.7176C72.3123 58.6626 70.101 56.1796 67.3723 56.1796C65.5913 56.1796 64.0313 57.2456 63.1603 58.8316Z" fill="black"/>
<path d="M63.6669 51.9285C63.5889 53.5145 63.5889 56.2315 64.2909 58.5195C65.2529 61.6265 67.0989 62.7575 70.0889 62.0555C70.6999 61.9125 71.2199 61.6785 71.6242 61.3665C74.2359 59.3385 72.7409 53.6445 71.5579 50.5895C69.9472 51.4215 66.8259 52.6695 63.6669 51.9285ZM68.5289 64.4215C65.4869 64.4215 63.2899 62.6015 62.2109 59.1565C61.0019 55.2565 61.5869 50.5245 61.5999 50.3165C61.6389 49.9785 61.8469 49.6795 62.1459 49.5105C62.4449 49.3415 62.8089 49.3285 63.1209 49.4585C66.9169 51.1485 71.4279 48.1455 71.4799 48.1195C71.7399 47.9375 72.0779 47.8855 72.3769 47.9765C72.6889 48.0675 72.9359 48.2755 73.0659 48.5745C73.2609 49.0035 77.8889 59.2605 72.9489 63.0825C72.2859 63.5895 71.4929 63.9665 70.5699 64.1745C69.8679 64.3435 69.1789 64.4215 68.5289 64.4215Z" fill="black"/>
<path d="M55.971 49.2118C54.632 47.1188 52.604 45.6108 50.043 46.1828C49.848 46.2478 49.536 46.3128 49.354 46.4298C48.015 46.9758 47.222 48.3408 46.806 49.6928C46.754 49.8488 46.715 50.0048 46.676 50.1478C46.598 50.4468 46.273 50.6288 45.974 50.5508C45.727 50.4858 45.558 50.2518 45.558 50.0178C45.532 49.2898 45.649 48.6658 45.857 47.9898C46.455 46.0398 48.093 44.5318 50.16 44.2718C52.877 43.7908 55.49 45.4548 56.595 47.8988C56.777 48.3538 57.336 49.2378 56.608 49.4978C56.335 49.5498 56.088 49.4328 55.971 49.2118Z" fill="black"/>
<path d="M72.4032 44.298C72.0262 41.334 73.6902 37.824 76.9662 37.616C79.8262 37.265 82.2572 39.462 82.6212 42.218C82.6862 42.79 81.9192 43.011 81.6462 42.517C80.8402 41.282 79.7352 40.034 78.2142 39.813C75.2892 39.319 74.0152 41.945 73.2482 44.389C73.1182 44.831 72.4552 44.766 72.4032 44.298Z" fill="black"/>
<path d="M55.3083 39.9556C55.3083 39.9556 53.7873 35.7176 49.5233 36.1336C44.9863 36.5886 44.4923 41.4896 44.4923 41.4896C44.4923 41.4896 48.8603 36.2376 55.3083 39.9556Z" fill="#F15A24"/>
<path d="M80.9701 32.9231C80.9701 32.9231 78.3441 29.3091 74.3661 30.9731C70.1411 32.7411 71.0381 37.5901 71.0381 37.5901C71.0381 37.5901 73.7551 31.2591 80.9701 32.9231Z" fill="#F15A24"/>
<path d="M77.2261 27.5929C77.2261 27.5929 84.6231 31.2199 83.2971 33.5599C81.9711 35.9129 65.0711 31.9739 65.0711 31.9739C65.0711 31.9739 66.8521 37.6289 52.8641 35.4969C52.8641 35.4969 45.1421 41.9319 33.3771 42.9329C33.3771 42.9329 44.7651 22.2109 77.2261 27.5929Z" fill="#F15A24"/>
<path d="M68.2951 28.542C57.4271 28.542 49.8481 31.779 45.0771 34.899C40.9951 37.564 38.3821 40.476 36.9651 42.322C46.9231 40.801 53.4491 35.471 53.5271 35.406C53.7611 35.211 54.0731 35.12 54.3851 35.172C62.2111 36.368 64.4341 34.964 65.0191 34.301C65.5521 33.716 65.3961 33.092 65.3831 33.027C65.2661 32.65 65.3571 32.26 65.6301 31.974C65.8901 31.688 66.2931 31.571 66.6831 31.662C66.7221 31.675 70.6091 32.572 74.7301 33.248C81.8281 34.405 83.4401 33.885 83.7261 33.729C83.7261 33.703 83.7261 33.651 83.7001 33.586C83.3244 32.39 80.2811 30.414 78.2401 29.4C74.6521 28.789 71.3371 28.542 68.2951 28.542ZM34.7291 44.766C34.3651 44.766 34.0141 44.584 33.8191 44.272C33.5981 43.934 33.5851 43.505 33.7801 43.154C33.8971 42.933 36.8351 37.681 43.8941 33.079C50.3551 28.854 61.6521 24.421 78.7601 27.268C78.8641 27.281 78.9681 27.32 79.0591 27.359C80.0471 27.84 84.9871 30.375 85.7801 32.936C85.9881 33.612 85.9244 34.275 85.5994 34.847C84.9741 35.952 83.2451 36.784 74.8744 35.471C71.9741 35.016 69.1141 34.418 67.5021 34.08C67.3851 34.6 67.1511 35.172 66.6961 35.692C64.9411 37.733 60.8461 38.305 54.5281 37.395C52.7861 38.734 45.4411 43.869 34.8201 44.766C34.7811 44.753 34.7551 44.766 34.7291 44.766Z" fill="#F15A24"/>
<path d="M30.0231 21.3265C30.0231 21.3265 32.7011 27.3585 28.2941 29.7115C23.8871 32.0645 14.5011 25.5125 14.5011 25.5125L12.6031 29.0485C12.6031 29.0485 13.9941 32.1425 19.9481 34.0535C19.9481 34.0535 15.1381 34.6645 11.8491 32.1815L11.0951 34.7945C11.0951 34.7945 22.1061 43.9205 28.8141 36.1075C34.2871 29.7115 30.0231 21.3265 30.0231 21.3265Z" fill="black"/>
<path d="M12.3431 34.3919C13.3051 35.0939 15.3851 36.4979 17.8551 37.3819C22.1321 38.9159 25.5381 38.2529 27.9821 35.4059C29.6331 33.4689 30.3221 31.3499 30.4911 29.3609C30.0621 29.8679 29.5031 30.3099 28.8141 30.6869C24.7191 32.8839 17.6211 28.8409 14.9041 27.0989L13.8641 29.0359C14.4621 29.8549 16.2171 31.7399 20.2861 33.0399C20.7671 33.1959 21.0791 33.6639 21.0401 34.1709C20.9881 34.6779 20.5981 35.0809 20.0911 35.1459C19.8961 35.1719 15.9051 35.6399 12.4991 33.8719L12.3431 34.3919ZM22.0281 40.3589C20.4811 40.3589 18.8171 40.0469 17.0621 39.4099C13.3311 38.0579 10.5101 35.7439 10.3931 35.6399C10.0551 35.3669 9.92507 34.9119 10.0421 34.4959L10.7961 31.8829C10.9001 31.5449 11.1601 31.2719 11.4981 31.1549C11.8361 31.0379 12.2131 31.1029 12.4991 31.3239C12.9281 31.6489 13.3961 31.9089 13.8771 32.1299C12.2001 30.7649 11.6541 29.5949 11.6151 29.5039C11.4721 29.1919 11.4851 28.8409 11.6541 28.5419L13.5521 25.0059C13.6951 24.7329 13.9551 24.5379 14.2541 24.4599C14.5531 24.3819 14.8781 24.4469 15.1251 24.6289C17.5821 26.3449 24.6541 30.4269 27.7871 28.7499C31.2451 26.9039 29.1261 21.9769 29.0351 21.7559C28.8011 21.2229 29.0351 20.5859 29.5681 20.3389C30.1011 20.0919 30.7381 20.2999 30.9981 20.8329C31.1801 21.1969 35.5221 29.9459 29.6331 36.8099C27.6051 39.1759 25.0311 40.3589 22.0281 40.3589Z" fill="black"/>
<path d="M33.754 43.4659L34.326 45.9619C50.927 20.6509 82.27 26.1629 82.27 26.1629C82.27 26.1629 77.603 17.4529 57.83 21.6259C43.608 24.6289 35.821 33.8329 34.001 39.0459C33.507 40.4629 33.429 41.9969 33.754 43.4659Z" fill="#F15A24"/>
<path d="M67.6585 21.5868C64.9935 21.5868 61.8215 21.8988 58.0515 22.6918C44.4405 25.5648 36.8225 34.2618 35.0285 39.4098C34.5995 40.6318 34.5345 41.9448 34.8205 43.2318L34.8465 43.3228C43.5565 31.4798 55.5685 27.0858 64.3305 25.4998C70.7135 24.3558 76.1995 24.4728 79.4222 24.7328C78.7605 24.2388 77.9155 23.7058 76.8222 23.2248C74.8735 22.3668 71.9225 21.5868 67.6585 21.5868ZM34.3265 47.0408C34.2615 47.0408 34.1965 47.0408 34.1315 47.0278C33.7025 46.9498 33.3645 46.6248 33.2605 46.1958L32.6885 43.6998C32.3115 42.0228 32.4025 40.2808 32.9615 38.6818C34.9245 33.0788 43.1015 23.6148 57.5965 20.5598C77.9415 16.2698 83.0115 25.2658 83.2195 25.6428C83.4145 26.0068 83.3885 26.4618 83.1415 26.7998C82.8945 27.1378 82.4785 27.3068 82.0742 27.2288C81.9975 27.2158 74.2495 25.9028 64.6295 27.6448C51.8115 29.9718 41.9185 36.3288 35.2235 46.5468C35.0285 46.8588 34.6905 47.0408 34.3265 47.0408Z" fill="#F15A24"/>
<path d="M30.5693 94.8806C30.4393 102.252 37.8753 102.174 37.8753 102.174C41.4893 103.019 41.0083 100.432 41.0083 100.432C42.7243 99.3396 41.3333 97.4546 41.3333 97.4546C43.2963 95.8556 41.3333 94.3606 41.3333 94.3606C42.8933 94.1006 42.8803 93.1256 42.8803 93.1256C43.1793 90.3826 39.9683 88.3026 37.3553 87.6396C34.7423 86.9896 30.6993 87.5226 30.5693 94.8806Z" fill="#F15A24"/>
<path d="M37.8752 101.082C37.9532 101.082 38.0442 101.095 38.1222 101.108C39.1232 101.342 39.6692 101.251 39.8252 101.095C39.9682 100.965 39.9292 100.627 39.9292 100.627C39.8512 100.185 40.0332 99.7427 40.4102 99.5087C40.7092 99.3137 40.7482 99.1577 40.7612 99.0927C40.8262 98.7547 40.5792 98.2737 40.4492 98.0917C40.1112 97.6237 40.1892 96.9737 40.6442 96.6097C40.8262 96.4667 41.1122 96.1807 41.1122 95.9337C41.1122 95.6607 40.8002 95.3227 40.6572 95.2187C40.3322 94.9587 40.2022 94.5167 40.3062 94.1137C40.3972 93.7107 40.7482 93.3727 41.1512 93.2817L41.7882 93.1387L42.8802 93.1127L41.8012 92.9957C42.0352 90.9157 39.1232 89.1997 37.0952 88.6927C36.2892 88.4977 34.7682 88.2897 33.5852 89.1867C32.3762 90.1097 31.7132 92.0857 31.6612 94.8807C31.6222 96.7267 32.1292 98.1957 33.1562 99.2357C34.9372 101.069 37.8232 101.082 37.8752 101.082ZM39.1752 103.435C38.7462 103.435 38.2652 103.383 37.7582 103.266C37.0432 103.253 33.8452 103.032 31.6222 100.796C30.1662 99.3267 29.4512 97.3247 29.4902 94.8677C29.5552 91.3317 30.4912 88.8487 32.2722 87.4837C33.6762 86.4047 35.5872 86.0927 37.6282 86.5997C40.3842 87.2887 44.3362 89.6157 43.9722 93.2037C43.9592 93.6717 43.7252 94.3477 43.0492 94.8417C43.1922 95.1537 43.2832 95.5047 43.2962 95.9077C43.3092 96.3627 43.1922 96.9997 42.6722 97.6627C42.8802 98.1567 43.0362 98.8067 42.9062 99.5087C42.8282 99.9247 42.6202 100.471 42.1002 100.965C42.0612 101.472 41.8922 102.148 41.3332 102.694C40.8132 103.175 40.0852 103.435 39.1752 103.435Z" fill="#F15A24"/>
<path d="M40.579 95.1535C39.318 93.8015 37.654 92.8525 35.938 92.1765C35.34 91.9555 35.587 91.0455 36.211 91.1625C38.304 91.5525 40.371 92.2935 42.074 93.5805L42.295 93.7625C42.776 94.1655 42.828 94.8805 42.438 95.3485C41.957 95.9725 40.93 95.8555 40.579 95.1535Z" fill="#F15A24"/>
<path d="M40.9565 98.4816L38.2655 97.2336C37.3685 96.8176 36.4585 96.4146 35.5615 96.0246C34.9375 95.7516 35.2495 94.8156 35.8995 94.9586C37.6025 95.3356 39.9945 95.9856 41.6975 96.4406C43.2185 96.9216 42.4125 99.1056 40.9565 98.4816Z" fill="#F15A24"/>
<path d="M40.7221 101.485C38.6681 100.653 36.6141 99.9246 34.7161 98.7416C34.2481 98.4166 34.6511 97.7016 35.1711 97.9096C37.1081 98.6506 39.2661 98.9886 41.2941 99.3786C42.8411 99.7296 42.2301 101.979 40.7221 101.485Z" fill="#F15A24"/>
<mask id="mask8_29_1393" style="mask-type:luminance" maskUnits="userSpaceOnUse" x="69" y="148" width="18" height="18">
<path d="M69.9332 148.389H86.1858V165.667H69.9332V148.389Z" fill="white"/>
</mask>
<g mask="url(#mask8_29_1393)">
<g opacity="0.199997">
<path d="M69.9327 150.325C70.7387 155.473 72.82 165.784 79.762 165.665C82.5427 165.613 84.1807 164.159 85.0907 162.038C86.6767 158.413 86.1827 152.873 85.7927 149.194L85.1817 148.388C85.1817 148.388 86.6507 159.62 82.362 159.011C79.0847 158.53 73.795 155.967 69.9327 150.325Z" fill="#F15A24"/>
</g>
</g>
<mask id="mask9_29_1393" style="mask-type:luminance" maskUnits="userSpaceOnUse" x="54" y="131" width="18" height="11">
<path d="M54.1094 131.499H71.493V141.228H54.1094V131.499Z" fill="white"/>
</mask>
<g mask="url(#mask9_29_1393)">
<g opacity="0.199997">
<path d="M54.1776 134.253C54.7704 131.834 59.1111 130.816 63.8743 131.982C68.6375 133.147 72.0175 136.055 71.426 138.475C70.8332 140.894 66.4925 141.912 61.7293 140.746C56.9674 139.581 53.5848 136.673 54.1776 134.253Z" fill="#F15A24"/>
</g>
</g>
<path d="M135.132 108.833C135.132 108.833 128.566 109.054 125.564 105.388L122.041 110.224C122.041 110.224 126.876 114.722 135.132 114.397V108.833Z" fill="#ED1C24"/>
<path d="M123.172 110.081C124.562 111.121 128.502 113.604 134.3 113.604H134.326V109.639C132.545 109.574 128.345 109.145 125.655 106.662L123.172 110.081ZM134.274 115.242C126.331 115.242 121.689 111.017 121.495 110.822C121.195 110.536 121.143 110.081 121.391 109.743L124.914 104.909C125.057 104.699 125.291 104.584 125.551 104.569C125.81 104.569 126.045 104.673 126.201 104.868C128.905 108.17 135.054 108.014 135.106 108.014C135.327 108.014 135.535 108.092 135.704 108.248C135.86 108.404 135.951 108.612 135.951 108.833V114.41C135.951 114.852 135.6 115.203 135.17 115.229C134.872 115.229 134.573 115.242 134.274 115.242Z" fill="#ED1C24"/>
<path d="M3.48055 23.7488C3.48055 23.7488 0.0615461 27.1418 -3.39645 26.6608L-2.87645 31.0288C-2.87645 31.0288 1.97255 31.0418 6.26255 26.7518L3.48055 23.7488Z" fill="#F15A24"/>
<path d="M-2.72035 27.3103L-2.35635 30.3913C-1.08235 30.2613 2.28465 29.6243 5.41765 26.7253L3.44165 24.5933C2.44065 25.4513 -0.0293505 27.3103 -2.72035 27.3103ZM-2.87635 31.6263C-3.18835 31.6263 -3.43535 31.3923 -3.47435 31.0933L-3.99435 26.7253C-4.02035 26.5433 -3.95535 26.3613 -3.82535 26.2313C-3.69535 26.1013 -3.51335 26.0363 -3.31835 26.0623C-0.21135 26.4913 3.02565 23.3453 3.05165 23.3193C3.16865 23.2023 3.31165 23.1503 3.48065 23.1503C3.63665 23.1503 3.79265 23.2283 3.90965 23.3453L6.69165 26.3483C6.91265 26.5823 6.89965 26.9463 6.67865 27.1803C2.29765 31.5613 -2.61635 31.6263 -2.87635 31.6263Z" fill="#ED1C24"/>
<path d="M98.9532 -0.483414C98.9532 -0.483414 103.607 0.764586 104.933 3.97559L108.443 1.32359C108.443 1.32359 105.999 -2.87541 100.135 -4.39641L98.9532 -0.483414Z" fill="#F15A24"/>
<path d="M99.6934 -0.873025C100.941 -0.444025 103.788 0.751975 105.153 3.06597L107.625 1.19397C106.871 0.166975 104.62 -2.43303 100.538 -3.66803L99.6934 -0.873025ZM104.932 4.57397C104.88 4.57397 104.828 4.56097 104.776 4.54797C104.596 4.49597 104.451 4.36597 104.386 4.19697C103.179 1.28497 98.8497 0.101974 98.7977 0.0889745C98.6404 0.0499749 98.5104 -0.0540252 98.4324 -0.197025C98.3557 -0.340025 98.3414 -0.509026 98.3804 -0.665025L99.5634 -4.57802C99.6557 -4.89003 99.9807 -5.05903 100.291 -4.98103C106.325 -3.40803 108.86 0.842975 108.962 1.02497C109.118 1.28497 109.053 1.62297 108.808 1.80497L105.298 4.45697C105.192 4.53497 105.062 4.57397 104.932 4.57397Z" fill="#ED1C24"/>
<path d="M13.218 85.4853C13.218 85.4853 10.501 79.7003 9.91597 77.1263C9.91597 77.1263 6.76997 76.9833 4.63797 77.9323C4.63797 77.9323 5.58697 83.8733 7.35497 86.8763C7.35497 86.8763 9.92897 86.2913 13.218 85.4853Z" fill="#ED1C24"/>
<path d="M5.56085 78.4529C5.83385 79.9349 6.60085 83.6009 7.77085 85.9409C8.58985 85.7459 10.1629 85.3819 12.0609 84.9269C11.3459 83.3409 9.90285 80.0519 9.27885 77.9329C8.45985 77.9459 6.87385 78.0239 5.56085 78.4529ZM7.35485 87.6959C7.06885 87.6959 6.79585 87.5399 6.65285 87.2929C4.83285 84.1859 3.88385 78.3099 3.84485 78.0629C3.77985 77.6989 3.97485 77.3349 4.31285 77.1919C6.58785 76.1649 9.82485 76.3079 9.96785 76.3209C10.3319 76.3339 10.6439 76.5939 10.7219 76.9579C11.2809 79.4149 13.9329 85.0959 13.9589 85.1479C14.0629 85.3689 14.0629 85.6289 13.9589 85.8499C13.8549 86.0709 13.6599 86.2269 13.4129 86.2919C10.1499 87.0849 7.56285 87.6829 7.53685 87.6829C7.48485 87.6959 7.41985 87.6959 7.35485 87.6959Z" fill="#ED1C24"/>
<path d="M137.666 49.0988C137.666 49.0988 135.066 53.9218 133.597 55.6378C133.597 55.6378 135.105 57.8868 136.847 58.8618C136.847 58.8618 140.449 55.1698 141.618 52.4268C141.632 52.4138 139.915 50.9578 137.666 49.0988Z" fill="#ED1C24"/>
<path d="M134.482 55.6508C134.91 56.2228 135.782 57.2628 136.743 57.9518C137.614 57.0028 139.76 54.5978 140.76 52.5958C140.214 52.1278 139.162 51.2308 137.874 50.1648C137.147 51.4778 135.626 54.1558 134.482 55.6508ZM136.86 59.5508C136.743 59.5508 136.626 59.5248 136.522 59.4598C134.651 58.4198 133.091 56.1188 133.026 56.0148C132.857 55.7548 132.87 55.4038 133.078 55.1698C134.482 53.5318 137.03 48.7998 137.055 48.7478C137.16 48.5658 137.328 48.4358 137.537 48.3968C137.745 48.3578 137.953 48.4098 138.122 48.5398C140.345 50.3858 142.074 51.8548 142.087 51.8678C142.32 52.0628 142.399 52.3878 142.282 52.6738C141.072 55.5078 137.524 59.1738 137.368 59.3298C137.224 59.4858 137.043 59.5508 136.86 59.5508Z" fill="#ED1C24"/>
<path d="M31.3136 146.481C31.3136 146.481 36.6696 147.64 38.7236 148.574C38.7236 148.574 40.4656 146.509 40.9206 144.559C40.9206 144.559 36.3836 142.115 33.4196 141.762C33.4066 141.762 32.4706 143.816 31.3136 146.481Z" fill="#ED1C24"/>
<path d="M32.2889 145.987C33.7449 146.325 36.7349 147.053 38.4899 147.729C38.9189 147.157 39.6859 146.039 40.0759 144.921C38.9189 144.336 36.0199 142.958 33.8229 142.529C33.5369 143.194 32.9649 144.453 32.2889 145.987ZM38.7239 149.276C38.6199 149.276 38.5289 149.25 38.4379 149.211C36.4749 148.314 31.2229 147.17 31.1709 147.157C30.9629 147.118 30.7939 146.975 30.7029 146.793C30.6119 146.611 30.5989 146.392 30.6899 146.195C31.8469 143.556 32.7829 141.489 32.7959 141.465C32.9259 141.192 33.2119 141.021 33.5239 141.06C36.5789 141.437 41.0899 143.844 41.2719 143.933C41.5449 144.089 41.6879 144.401 41.6229 144.715C41.1289 146.793 39.3609 148.925 39.2829 149.016C39.1269 149.185 38.9189 149.276 38.7239 149.276Z" fill="#ED1C24"/>
<path d="M26.5168 199.827C26.5168 200.066 26.3666 200.186 26.0812 200.186H20.7337C20.4483 200.186 20.2981 200.054 20.2981 199.791C20.2981 199.023 20.3281 197.86 20.4182 196.314C20.4933 194.767 20.5384 193.605 20.5384 192.837C20.5384 192.621 20.4933 192.501 20.4032 192.477C20.2981 192.525 19.6221 193.7 18.3753 196.026C17.6543 197.393 16.9183 198.748 16.1973 200.102C16.0921 200.282 15.9719 200.378 15.8217 200.414C15.7767 200.426 15.5664 200.426 15.2209 200.426C14.6951 200.426 14.3797 200.354 14.2896 200.2C13.7488 199.359 13.0278 198.136 12.1415 196.529C11.1952 194.827 10.4892 193.605 10.0085 192.849C9.99348 192.813 9.94841 192.765 9.87331 192.717C9.7982 192.789 9.76816 192.897 9.76816 193.054C9.76816 193.796 9.7982 194.923 9.84326 196.422C9.88833 197.92 9.91837 199.049 9.91837 199.791C9.91837 200.054 9.78318 200.186 9.49778 200.186H4.45064C4.25536 200.186 4.12017 200.162 4.07511 200.114C4.03004 200.066 4 199.983 4 199.863C4 199.023 4.06008 197.776 4.16523 196.11C4.27038 194.443 4.33047 193.184 4.33047 192.358C4.33047 191.47 4.2854 189.803 4.18025 187.369C4.16523 186.734 4.12017 185.787 4.04506 184.54L4.03004 184.348C4.01502 184.192 4.22532 184.12 4.66093 184.12C5.21672 184.12 6.04289 184.108 7.15446 184.084C8.26603 184.061 9.0922 184.048 9.64799 184.048C9.75314 184.048 9.91837 184.204 10.1136 184.528L14.5299 191.877C14.8453 192.381 15.1007 192.621 15.311 192.621C15.4161 192.621 15.6565 192.333 16.017 191.759C17.0384 190.151 18.5406 187.729 20.5384 184.492C20.7036 184.192 20.8989 184.048 21.0942 184.048C21.3796 184.048 21.8302 184.061 22.416 184.084C23.0019 184.108 23.4525 184.12 23.7529 184.12C24.0083 184.12 24.3838 184.096 24.9096 184.061C25.4353 184.024 25.8109 184 26.0662 184C26.3666 184 26.5168 184.096 26.5168 184.276C26.5168 185.175 26.4718 186.53 26.3817 188.316C26.2915 190.104 26.2465 191.459 26.2465 192.358C26.2465 193.196 26.2915 194.443 26.3817 196.11C26.4718 197.754 26.5168 199.001 26.5168 199.827Z" fill="#CD2727"/>
<path d="M44.0619 191.997C44.0619 193.484 44.0018 194.383 43.8817 194.708C43.7314 195.09 42.6349 196.469 40.577 198.856C40.2615 199.227 39.4203 200.103 38.0835 201.458C36.5963 202.957 35.7552 203.748 35.5599 203.831C35.3195 203.952 33.7724 204 30.9183 204C30.4827 204 30.1973 203.963 30.0471 203.879C29.9119 203.567 29.7467 203.197 29.5514 202.764C29.3862 202.501 29.2359 202.224 29.0707 201.95C28.8454 201.554 28.7252 201.289 28.7252 201.158C28.7252 201.015 28.8153 200.941 28.9806 200.941C31.7745 200.941 33.1865 200.451 33.1865 199.491C33.1865 199.408 32.4955 198.639 31.1286 197.214C29.7016 195.738 28.9205 194.804 28.7853 194.408C28.7102 194.191 28.6651 193.401 28.6651 192.033C28.6651 191.758 28.6802 191.338 28.6952 190.786C28.7102 190.234 28.7252 189.816 28.7252 189.539C28.7252 189.335 28.8904 189.239 29.2209 189.239C29.7316 189.239 30.5127 189.251 31.5492 189.275C32.5857 189.299 33.3668 189.312 33.8775 189.312C34.0878 189.312 34.1929 189.431 34.1929 189.672C34.1929 189.887 34.1779 190.212 34.1479 190.642C34.1178 191.074 34.1028 191.397 34.1028 191.615C34.1028 192.572 34.1178 193.232 34.1629 193.58C34.1929 193.843 34.4934 194.347 35.0642 195.068C35.665 195.822 36.1006 196.207 36.3861 196.207C36.6114 196.207 37.0169 195.834 37.5577 195.078C38.0684 194.371 38.3538 193.891 38.3839 193.64C38.489 192.969 38.5341 192.237 38.5341 191.445C38.5341 191.242 38.504 190.93 38.459 190.498C38.4139 190.079 38.3839 189.756 38.3839 189.551C38.3839 189.408 38.489 189.335 38.6993 189.335C39.21 189.335 39.9761 189.324 40.9976 189.287C42.019 189.251 42.7851 189.239 43.2958 189.239C43.5512 189.239 43.7314 189.335 43.8216 189.539C43.9868 189.912 44.0619 190.726 44.0619 191.997Z" fill="#CD2727"/>
<path d="M65.7825 190.402C65.7825 188.617 64.6409 187.73 62.3577 187.73C60.7504 187.73 59.8942 187.8 59.8191 187.932C59.744 188.029 59.7139 188.917 59.7139 190.582C59.7139 190.823 59.729 191.171 59.759 191.637C59.789 192.106 59.789 192.452 59.789 192.692C59.789 192.848 60.6903 192.921 62.5079 192.921C64.686 192.921 65.7825 192.081 65.7825 190.402ZM71.806 190.224C71.806 192.07 71.1601 193.569 69.8833 194.72C68.5164 195.93 66.6237 196.541 64.2203 196.541C63.8147 196.541 63.2139 196.529 62.4027 196.493C61.5916 196.458 60.9907 196.445 60.5852 196.445C60.1495 196.445 59.9393 196.589 59.9393 196.866C59.9393 197.214 59.9843 197.74 60.0744 198.435C60.1646 199.131 60.2096 199.646 60.2096 199.994C60.2096 200.174 60.1045 200.259 59.8942 200.259C59.2783 200.259 58.362 200.246 57.1303 200.222C55.8985 200.199 54.9822 200.186 54.3664 200.186C54.081 200.186 53.9308 200.078 53.9308 199.851C53.9308 199 53.9458 197.728 53.9908 196.025C54.0209 194.324 54.0509 193.052 54.0509 192.201C54.0509 189.803 53.9157 187.274 53.6453 184.624L53.6303 184.468C53.6153 184.325 53.7655 184.239 54.081 184.203C54.8621 184.133 56.6045 184.084 59.2783 184.084C60.8555 184.084 62.3727 184.096 63.8298 184.133C66.2181 184.181 68.1409 184.755 69.5994 185.846C71.07 186.949 71.806 188.413 71.806 190.224Z" fill="#CD2727"/>
<path d="M83.7927 193.028C83.7927 193.328 83.5824 193.472 83.1468 193.472C82.9516 193.472 82.6827 193.46 82.3071 193.448C81.9316 193.424 81.6597 193.424 81.4795 193.424C80.6383 193.424 80.069 193.52 79.7671 193.724C79.4666 193.928 79.3179 194.323 79.3179 194.923C79.3179 195.247 79.3179 195.75 79.3465 196.422C79.363 197.093 79.363 197.585 79.363 197.92C79.363 198.148 79.378 198.472 79.4216 198.915C79.4666 199.359 79.4816 199.683 79.4816 199.899C79.4816 200.078 79.3179 200.186 78.9875 200.21C78.5053 200.246 77.7542 200.258 76.7628 200.258C75.8029 200.258 75.0354 200.234 74.4646 200.186C74.1341 200.15 73.9689 200.03 73.9689 199.803C73.9689 199.191 73.9689 198.28 73.9854 197.057C73.9989 195.834 73.9989 194.923 73.9989 194.311C73.9989 192.513 73.7901 191.038 73.3545 189.875C73.338 189.803 73.3229 189.743 73.3229 189.707C73.3229 189.587 73.398 189.515 73.5498 189.479C74.1055 189.431 74.9167 189.348 75.9832 189.228C77.574 188.988 78.4001 188.868 78.4452 188.868C78.6269 188.868 78.7471 189.108 78.7907 189.587C78.8357 190.067 78.9274 190.307 79.0626 190.307C78.9274 190.307 79.3314 190.103 80.3093 189.707C81.2842 189.312 82.2005 189.108 83.1018 189.108C83.6726 189.108 83.9445 189.204 83.9445 189.384C83.9445 189.611 83.9129 189.923 83.8528 190.331C83.7927 190.762 83.7627 191.074 83.7492 191.278C83.7492 191.494 83.7492 191.793 83.7627 192.165C83.7777 192.585 83.7927 192.885 83.7927 193.028Z" fill="#CD2727"/>
<path d="M95.1349 194.539C95.1349 193.939 94.8946 193.4 94.3989 192.944C93.9032 192.477 93.2723 192.249 92.4746 192.249C91.6785 192.249 91.0191 192.489 90.5084 192.957C90.0277 193.4 89.7858 193.927 89.7858 194.539C89.7858 195.164 90.0277 195.69 90.5084 196.134C91.0191 196.613 91.6785 196.841 92.4746 196.841C93.2572 196.841 93.9167 196.602 94.4274 196.134C94.9096 195.69 95.1349 195.15 95.1349 194.539ZM100.092 194.539C100.092 196.289 99.3844 197.705 97.9874 198.783C96.5769 199.874 94.7428 200.414 92.4461 200.414C90.2214 200.414 88.4054 199.874 86.9769 198.809C85.5498 197.74 84.8303 196.363 84.8303 194.671C84.8303 192.896 85.5213 191.459 86.8882 190.354C88.2552 189.251 90.1163 188.7 92.4461 188.7C94.7278 188.7 96.5604 189.239 97.9739 190.318C99.3844 191.398 100.092 192.8 100.092 194.539Z" fill="#CD2727"/>
<path d="M107.992 186.267C107.992 187.548 107.001 188.196 105.003 188.196C104.147 188.196 103.454 188.04 102.915 187.729C102.314 187.382 102.029 186.901 102.029 186.267C102.029 185.679 102.344 185.198 102.945 184.816C103.516 184.48 104.205 184.312 105.003 184.312C105.799 184.312 106.49 184.48 107.061 184.816C107.692 185.198 107.992 185.679 107.992 186.267ZM107.872 197.753C107.872 199.334 107.512 200.523 106.806 201.326C106.009 202.201 104.627 202.801 102.675 203.112C102.089 203.208 101.458 203.243 100.782 203.243C100.376 203.243 100.181 202.584 100.181 201.254C100.181 200.593 100.316 200.223 100.572 200.163C101.368 199.982 101.864 199.803 102.089 199.623C102.344 199.407 102.479 198.987 102.524 198.352C102.555 197.944 102.57 196.878 102.57 195.186C102.57 193.173 102.389 191.337 102.029 189.695C102.014 189.624 102.014 189.576 102.014 189.539C102.014 189.347 102.149 189.251 102.434 189.251C103.441 189.251 104.222 189.228 104.778 189.18C106.385 189.036 107.271 188.976 107.421 188.976C107.632 188.976 107.752 189.072 107.782 189.276C107.842 189.647 107.872 191.135 107.872 193.76V197.753Z" fill="#CD2727"/>
<path d="M119.078 193.244C119.078 192.766 118.853 192.358 118.419 191.997C117.983 191.637 117.441 191.459 116.825 191.459C116.194 191.459 115.668 191.662 115.248 192.07C114.872 192.441 114.677 192.884 114.677 193.388C114.677 193.592 114.812 193.7 115.097 193.7C115.848 193.7 117.005 193.617 118.567 193.436C118.913 193.4 119.078 193.328 119.078 193.244ZM124.367 193.951C124.367 194.719 124.035 195.163 123.389 195.27C123.284 195.282 122.232 195.367 120.265 195.522C119.078 195.618 117.306 195.738 114.947 195.882C115.082 196.385 115.518 196.758 116.239 197.021C116.825 197.237 117.486 197.344 118.237 197.344C119.138 197.344 120.039 197.166 120.941 196.793C121.316 196.614 121.707 196.421 122.082 196.241C122.293 196.314 122.653 196.71 123.149 197.416C123.644 198.124 123.9 198.567 123.9 198.76C123.9 198.808 123.825 198.904 123.676 199.023C122.443 200.03 120.535 200.522 117.951 200.522C115.548 200.522 113.625 199.994 112.153 198.927C110.636 197.848 109.885 196.41 109.885 194.599C109.885 192.836 110.561 191.397 111.913 190.272C113.295 189.109 115.142 188.521 117.441 188.521C119.378 188.521 121.016 189.061 122.368 190.127C123.69 191.194 124.367 192.477 124.367 193.951Z" fill="#CD2727"/>
<path d="M136.022 192.633C136.007 192.633 135.707 192.573 135.106 192.453C134.505 192.333 134.024 192.273 133.649 192.273C132.746 192.273 132.042 192.477 131.501 192.884C130.96 193.292 130.705 193.844 130.705 194.515C130.705 195.222 130.989 195.774 131.576 196.17C132.162 196.565 132.926 196.769 133.859 196.769C134.308 196.769 134.804 196.685 135.361 196.517C135.917 196.351 136.173 196.255 136.142 196.255C136.306 196.255 136.533 196.745 136.803 197.716C137.029 198.604 137.149 199.191 137.149 199.479C137.149 199.767 136.518 200.018 135.271 200.222C134.308 200.378 133.529 200.462 132.926 200.462C130.705 200.462 128.887 199.9 127.445 198.759C126.003 197.62 125.282 196.218 125.282 194.527C125.282 192.848 126.003 191.446 127.445 190.295C128.887 189.156 130.72 188.58 132.926 188.58C134.429 188.58 135.75 188.82 136.894 189.311C137.149 189.419 137.284 189.527 137.284 189.623C137.284 189.719 137.134 190.175 136.833 190.978C136.548 191.745 136.366 192.213 136.278 192.381C136.203 192.549 136.112 192.633 136.022 192.633Z" fill="#CD2727"/>
<path d="M149 196.818C149 197.044 148.955 197.392 148.88 197.861C148.805 198.328 148.76 198.664 148.76 198.891C148.76 199.108 148.73 199.251 148.67 199.311C148.609 199.371 148.444 199.455 148.174 199.575C146.867 200.115 145.44 200.389 143.848 200.389C140.934 200.389 139.477 199.551 139.477 197.861C139.477 197.357 139.507 196.602 139.552 195.583C139.597 194.575 139.627 193.808 139.627 193.304C139.627 192.969 139.371 192.8 138.861 192.8H138.665C138.577 192.813 138.517 192.813 138.47 192.813C138.095 192.813 137.899 192.705 137.899 192.5C137.899 192.381 137.914 192.189 137.929 191.938C137.959 191.686 137.974 191.494 137.974 191.374C137.974 191.218 137.959 190.966 137.929 190.643C137.899 190.319 137.899 190.067 137.899 189.911C137.899 189.754 138.215 189.672 138.861 189.66C139.221 189.648 139.416 189.576 139.448 189.432C139.507 189.144 139.522 188.676 139.507 188.052C139.462 187.07 139.448 186.59 139.448 186.638C139.448 185.751 139.552 185.307 139.777 185.307C140.047 185.307 140.438 185.354 140.934 185.451C141.504 185.547 141.91 185.607 142.12 185.619C142.631 185.667 143.412 185.751 144.449 185.835C144.705 185.847 144.824 185.919 144.824 186.027C144.824 186.326 144.794 186.794 144.719 187.417C144.659 188.041 144.614 188.509 144.614 188.82C144.614 189.192 144.764 189.384 145.049 189.384C145.396 189.384 145.936 189.372 146.657 189.348C147.378 189.324 147.905 189.312 148.28 189.312C148.504 189.312 148.609 189.372 148.609 189.48C148.609 189.66 148.579 189.923 148.534 190.271C148.489 190.619 148.461 190.883 148.461 191.062C148.461 191.242 148.461 191.518 148.474 191.866C148.489 192.213 148.489 192.489 148.489 192.669C148.489 192.825 148.341 192.909 148.054 192.909C147.858 192.909 147.513 192.909 147.047 192.897C146.583 192.885 146.236 192.885 146.041 192.885H144.914C144.764 192.885 144.689 193.053 144.689 193.388V194.204C144.705 194.575 144.705 194.839 144.705 195.019C144.705 195.666 144.794 196.11 144.989 196.35C145.26 196.674 145.8 196.841 146.597 196.841C146.852 196.841 147.214 196.792 147.678 196.71C148.144 196.626 148.474 196.578 148.67 196.578C148.895 196.566 149 196.648 149 196.818Z" fill="#CD2727"/>
</g>
<defs>
<clipPath id="clip0_29_1393">
<rect width="146.336" height="212.584" fill="white"/>
</clipPath>
</defs>
</svg>
