<svg width="37" height="37" viewBox="0 0 37 37" fill="none" xmlns="http://www.w3.org/2000/svg">
<path d="M18.1531 13.3585L6.5906 7.46931C6.52747 7.43697 6.47449 7.38783 6.43749 7.32731C6.4005 7.26678 6.38092 7.19722 6.38092 7.12629C6.38092 7.05536 6.4005 6.9858 6.43749 6.92527C6.47449 6.86475 6.52747 6.81561 6.5906 6.78327L18.1531 0.855561C18.2627 0.798794 18.3843 0.769165 18.5077 0.769165C18.6311 0.769165 18.7527 0.798794 18.8623 0.855561L30.4248 6.78327C30.4879 6.81561 30.5409 6.86475 30.5779 6.92527C30.6149 6.9858 30.6345 7.05536 30.6345 7.12629C30.6345 7.19722 30.6149 7.26678 30.5779 7.32731C30.5409 7.38783 30.4879 7.43697 30.4248 7.46931L18.8623 13.3585C18.7527 13.4152 18.6311 13.4449 18.5077 13.4449C18.3843 13.4449 18.2627 13.4152 18.1531 13.3585Z" fill="#656769" stroke="#45413C" stroke-width="0.770833" stroke-linecap="round" stroke-linejoin="round"/>
<path d="M6.40558 7.12256V13.2507" stroke="#45413C" stroke-width="0.770833" stroke-linecap="round" stroke-linejoin="round"/>
<path d="M7.14577 13.243C7.15318 13.1373 7.13874 13.0313 7.10333 12.9314C7.06793 12.8316 7.01233 12.7401 6.94 12.6627C6.86767 12.5853 6.78016 12.5237 6.68294 12.4816C6.58571 12.4395 6.48087 12.418 6.37493 12.4182C6.269 12.418 6.16415 12.4395 6.06693 12.4816C5.96971 12.5237 5.8822 12.5853 5.80987 12.6627C5.73754 12.7401 5.68194 12.8316 5.64653 12.9314C5.61113 13.0313 5.59668 13.1373 5.6041 13.243L5.45764 16.0874H7.29223L7.14577 13.243Z" fill="#FFE500" stroke="#45413C" stroke-width="0.770833" stroke-linecap="round" stroke-linejoin="round"/>
<path d="M24.3121 26.2777L18.5 24.0654L12.6879 26.2777C11.7024 26.6538 10.8542 27.3201 10.2554 28.1886C9.65672 29.0571 9.33569 30.0868 9.33478 31.1417V34.6875H27.6652V31.1417C27.6643 30.0868 27.3433 29.0571 26.7445 28.1886C26.1458 27.3201 25.2976 26.6538 24.3121 26.2777Z" fill="#656769"/>
<path d="M24.3121 26.2777L18.5 24.0654L12.6879 26.2777C11.7024 26.6538 10.8542 27.3201 10.2554 28.1886C9.65672 29.0571 9.33569 30.0868 9.33478 31.1417V33.4542C9.33569 32.3993 9.65672 31.3696 10.2554 30.5011C10.8542 29.6326 11.7024 28.9663 12.6879 28.5902L18.5 26.3702L24.3121 28.5825C25.2976 28.9586 26.1458 29.6249 26.7445 30.4934C27.3433 31.3619 27.6643 32.3916 27.6652 33.4465V31.134C27.6627 30.0804 27.341 29.0524 26.7424 28.1854C26.1437 27.3185 25.2964 26.6533 24.3121 26.2777Z" fill="#525252"/>
<path d="M24.3121 26.2777L18.5 24.0654L12.6879 26.2777C11.7024 26.6538 10.8542 27.3201 10.2554 28.1886C9.65672 29.0571 9.33569 30.0868 9.33478 31.1417V34.6875H27.6652V31.1417C27.6643 30.0868 27.3433 29.0571 26.7445 28.1886C26.1458 27.3201 25.2976 26.6538 24.3121 26.2777Z" stroke="#45413C" stroke-width="0.770833" stroke-linecap="round" stroke-linejoin="round"/>
<path d="M18.4999 27.0639C18.4999 27.0639 16.5419 26.2083 16.5419 25.106V22.9091C16.5409 22.6513 16.5908 22.3959 16.6888 22.1575C16.7867 21.919 16.9308 21.7023 17.1127 21.5197C17.2946 21.337 17.5108 21.1921 17.7488 21.0933C17.9869 20.9944 18.2421 20.9435 18.4999 20.9435C18.7576 20.9435 19.0129 20.9944 19.2509 21.0933C19.489 21.1921 19.7051 21.337 19.8871 21.5197C20.069 21.7023 20.213 21.919 20.311 22.1575C20.4089 22.3959 20.4588 22.6513 20.4578 22.9091V25.106C20.4578 26.2083 18.4999 27.0639 18.4999 27.0639Z" fill="#FFCEBF"/>
<path d="M18.4998 20.9435C17.9806 20.9435 17.4826 21.1498 17.1154 21.5169C16.7482 21.8841 16.5419 22.3821 16.5419 22.9014V23.3639C16.5419 23.8832 16.7482 24.3812 17.1154 24.7484C17.4826 25.1155 17.9806 25.3218 18.4998 25.3218C19.0191 25.3218 19.5171 25.1155 19.8843 24.7484C20.2515 24.3812 20.4578 23.8832 20.4578 23.3639V22.9091C20.4588 22.6513 20.4089 22.3959 20.3109 22.1575C20.213 21.919 20.0689 21.7023 19.887 21.5197C19.7051 21.337 19.4889 21.1921 19.2509 21.0933C19.0128 20.9944 18.7576 20.9435 18.4998 20.9435Z" fill="#FFB59E"/>
<path d="M10.368 28.0197L13.1507 34.6874M26.6326 28.0197L23.8499 34.6874M15.8332 31.2033L16.3959 34.6874M21.1674 31.2033L20.6046 34.6874M18.5003 27.0639C18.5003 27.0639 16.5424 26.2083 16.5424 25.106V22.9091C16.5413 22.6513 16.5912 22.3959 16.6892 22.1575C16.7871 21.919 16.9312 21.7023 17.1131 21.5197C17.295 21.337 17.5112 21.1921 17.7492 21.0933C17.9873 20.9944 18.2425 20.9435 18.5003 20.9435C18.758 20.9435 19.0133 20.9944 19.2513 21.0933C19.4894 21.1921 19.7056 21.337 19.8875 21.5197C20.0694 21.7023 20.2134 21.919 20.3114 22.1575C20.4093 22.3959 20.4592 22.6513 20.4582 22.9091V25.106C20.4582 26.2083 18.5003 27.0639 18.5003 27.0639Z" stroke="#45413C" stroke-width="0.770833" stroke-linecap="round" stroke-linejoin="round"/>
<path opacity="0.15" d="M6.9375 35.0729C6.9375 35.3795 8.15569 35.6736 10.3241 35.8905C12.4925 36.1073 15.4334 36.2291 18.5 36.2291C21.5666 36.2291 24.5075 36.1073 26.6759 35.8905C28.8443 35.6736 30.0625 35.3795 30.0625 35.0729C30.0625 34.7662 28.8443 34.4721 26.6759 34.2553C24.5075 34.0384 21.5666 33.9166 18.5 33.9166C15.4334 33.9166 12.4925 34.0384 10.3241 34.2553C8.15569 34.4721 6.9375 34.7662 6.9375 35.0729Z" fill="#45413C"/>
<path d="M18.5 5.32642C20.5076 5.32642 22.4329 6.12392 23.8525 7.5435C25.2721 8.96307 26.0696 10.8884 26.0696 12.896V16.8581H10.9304V12.896C10.9304 10.8884 11.7279 8.96307 13.1475 7.5435C14.5671 6.12392 16.4924 5.32642 18.5 5.32642Z" fill="#A86C4D" stroke="#45413C" stroke-width="0.770833" stroke-linecap="round" stroke-linejoin="round"/>
<path d="M26.8788 16.2801C26.8413 15.9971 26.7188 15.732 26.5275 15.5201C26.3362 15.3081 26.0851 15.1592 25.8073 15.093L25.3526 14.9697C25.0175 14.8751 24.7228 14.6729 24.5138 14.3943C24.3049 14.1158 24.1933 13.7762 24.1963 13.428V11.8555C24.1955 11.5377 24.0901 11.2289 23.8965 10.9768C23.7029 10.7246 23.4317 10.5432 23.1248 10.4603C21.6552 11.0479 20.0823 11.3337 18.4998 11.3005C16.9174 11.3337 15.3445 11.0479 13.8748 10.4603C13.5665 10.5417 13.2937 10.7226 13.0985 10.9748C12.9034 11.2271 12.797 11.5366 12.7957 11.8555V13.4435C12.7986 13.7916 12.6871 14.1312 12.4782 14.4097C12.2692 14.6883 11.9745 14.8905 11.6394 14.9851L11.1846 15.1085C10.9069 15.1746 10.6558 15.3235 10.4644 15.5355C10.2731 15.7475 10.1507 16.0125 10.1132 16.2955C10.0926 16.4907 10.1134 16.688 10.1742 16.8745C10.235 17.0611 10.3345 17.2327 10.4662 17.3782C10.5979 17.5237 10.7588 17.6398 10.9383 17.7189C11.1179 17.798 11.3122 17.8383 11.5084 17.8372H11.5932C11.7735 19.5412 12.5781 21.1181 13.8519 22.2642C15.1258 23.4103 16.7786 24.0444 18.4921 24.0444C20.2056 24.0444 21.8585 23.4103 23.1323 22.2642C24.4061 21.1181 25.2107 19.5412 25.3911 17.8372H25.4759C25.6742 17.8396 25.8708 17.7998 26.0525 17.7202C26.2342 17.6407 26.3968 17.5234 26.5296 17.376C26.6623 17.2287 26.7621 17.0547 26.8224 16.8657C26.8826 16.6768 26.9018 16.4771 26.8788 16.2801Z" fill="#FFCEBF" stroke="#45413C" stroke-width="0.770833" stroke-linecap="round" stroke-linejoin="round"/>
<path d="M14.3142 16.1181C14.3142 16.2355 14.349 16.3503 14.4142 16.4479C14.4794 16.5455 14.5721 16.6216 14.6806 16.6665C14.7891 16.7114 14.9084 16.7232 15.0235 16.7003C15.1387 16.6774 15.2444 16.6208 15.3274 16.5378C15.4104 16.4548 15.467 16.3491 15.4899 16.2339C15.5128 16.1188 15.501 15.9994 15.4561 15.891C15.4112 15.7825 15.3351 15.6898 15.2375 15.6246C15.1399 15.5594 15.0251 15.5246 14.9077 15.5246C14.8295 15.5236 14.7519 15.5382 14.6794 15.5677C14.6069 15.5971 14.5411 15.6408 14.4857 15.6961C14.4304 15.7514 14.3867 15.8173 14.3573 15.8898C14.3278 15.9623 14.3132 16.0399 14.3142 16.1181ZM22.6854 16.1181C22.6854 16.2355 22.6506 16.3503 22.5854 16.4479C22.5202 16.5455 22.4275 16.6216 22.319 16.6665C22.2106 16.7114 22.0912 16.7232 21.9761 16.7003C21.861 16.6774 21.7552 16.6208 21.6722 16.5378C21.5892 16.4548 21.5327 16.3491 21.5098 16.2339C21.4869 16.1188 21.4986 15.9994 21.5435 15.891C21.5885 15.7825 21.6645 15.6898 21.7622 15.6246C21.8598 15.5594 21.9745 15.5246 22.0919 15.5246C22.1701 15.5236 22.2478 15.5382 22.3203 15.5677C22.3927 15.5971 22.4586 15.6408 22.5139 15.6961C22.5692 15.7514 22.6129 15.8173 22.6424 15.8898C22.6718 15.9623 22.6865 16.0399 22.6854 16.1181Z" fill="#45413C" stroke="#45413C" stroke-width="0.770833" stroke-linecap="round" stroke-linejoin="round"/>
<path d="M16.3111 19.7334C16.2623 19.7345 16.2143 19.746 16.1704 19.7673C16.1265 19.7886 16.0878 19.8191 16.0567 19.8567C16.0245 19.893 16.0008 19.9361 15.9874 19.9828C15.9741 20.0295 15.9714 20.0787 15.9796 20.1265C16.0837 20.7195 16.3935 21.2567 16.8545 21.6439C17.3155 22.031 17.8983 22.2432 18.5003 22.2432C19.1023 22.2432 19.685 22.031 20.146 21.6439C20.607 21.2567 20.9168 20.7195 21.0209 20.1265C21.0291 20.0787 21.0264 20.0295 21.0131 19.9828C20.9997 19.9361 20.9761 19.893 20.9438 19.8567C20.9128 19.8191 20.874 19.7886 20.8301 19.7673C20.7862 19.746 20.7382 19.7345 20.6894 19.7334H16.3111Z" fill="#FF6242"/>
<path d="M18.5001 20.8124C17.8042 20.7852 17.1195 20.9944 16.5576 21.406C16.8005 21.6765 17.0976 21.8928 17.4297 22.0409C17.7617 22.189 18.1212 22.2655 18.4847 22.2655C18.8482 22.2655 19.2077 22.189 19.5397 22.0409C19.8718 21.8928 20.1689 21.6765 20.4118 21.406C19.8583 21.001 19.1856 20.7922 18.5001 20.8124Z" fill="#FFA694"/>
<path d="M16.3111 19.7334C16.2623 19.7345 16.2143 19.746 16.1704 19.7673C16.1265 19.7886 16.0878 19.8191 16.0567 19.8567C16.0245 19.893 16.0008 19.9361 15.9874 19.9828C15.9741 20.0295 15.9714 20.0787 15.9796 20.1265C16.0837 20.7195 16.3935 21.2567 16.8545 21.6439C17.3155 22.031 17.8983 22.2432 18.5003 22.2432C19.1023 22.2432 19.685 22.031 20.146 21.6439C20.607 21.2567 20.9168 20.7195 21.0209 20.1265C21.0291 20.0787 21.0264 20.0295 21.0131 19.9828C20.9997 19.9361 20.9761 19.893 20.9438 19.8567C20.9128 19.8191 20.874 19.7886 20.8301 19.7673C20.7862 19.746 20.7382 19.7345 20.6894 19.7334H16.3111Z" stroke="#45413C" stroke-width="0.770833" stroke-linecap="round" stroke-linejoin="round"/>
<path d="M13.1505 18.6465C13.1505 18.7691 13.2317 18.8868 13.3763 18.9735C13.5208 19.0602 13.7169 19.109 13.9213 19.109C14.1258 19.109 14.3218 19.0602 14.4664 18.9735C14.611 18.8868 14.6922 18.7691 14.6922 18.6465C14.6922 18.5238 14.611 18.4062 14.4664 18.3194C14.3218 18.2327 14.1258 18.184 13.9213 18.184C13.7169 18.184 13.5208 18.2327 13.3763 18.3194C13.2317 18.4062 13.1505 18.5238 13.1505 18.6465ZM22.308 18.6465C22.308 18.7691 22.3892 18.8868 22.5338 18.9735C22.6783 19.0602 22.8744 19.109 23.0788 19.109C23.2833 19.109 23.4793 19.0602 23.6239 18.9735C23.7685 18.8868 23.8497 18.7691 23.8497 18.6465C23.8497 18.5238 23.7685 18.4062 23.6239 18.3194C23.4793 18.2327 23.2833 18.184 23.0788 18.184C22.8744 18.184 22.6783 18.2327 22.5338 18.3194C22.3892 18.4062 22.308 18.5238 22.308 18.6465Z" fill="#FFB59E"/>
<path d="M11.316 6.93743C11.316 5.99701 14.3223 5.23389 18.5002 5.23389C22.6781 5.23389 25.6844 6.00472 25.6844 6.93743L26.4552 13.5589C26.4552 12.5722 22.9017 11.7706 18.5156 11.7706C14.1296 11.7706 10.576 12.5414 10.576 13.5589L11.316 6.93743Z" fill="#656769"/>
<path d="M18.5002 7.76222C22.0615 7.76222 24.8365 8.22472 25.9079 8.86451L25.6844 6.93743C25.6844 5.99701 22.6782 5.23389 18.5002 5.23389C14.3223 5.23389 11.3161 6.00472 11.3161 6.93743L11.0925 8.88764C12.164 8.22472 14.939 7.76222 18.5002 7.76222Z" fill="#525252"/>
<path d="M11.316 6.93743C11.316 5.99701 14.3223 5.23389 18.5002 5.23389C22.6781 5.23389 25.6844 6.00472 25.6844 6.93743L26.4552 13.5589C26.4552 12.5722 22.9017 11.7706 18.5156 11.7706C14.1296 11.7706 10.576 12.5414 10.576 13.5589L11.316 6.93743Z" stroke="#45413C" stroke-width="0.770833" stroke-linecap="round" stroke-linejoin="round"/>
</svg>
