<svg width="18" height="18" viewBox="0 0 18 18" fill="none" xmlns="http://www.w3.org/2000/svg">
<path d="M8.83912 0.746582C6.63813 0.746582 4.52729 1.62092 2.97096 3.17725C1.41462 4.73359 0.540283 6.84443 0.540283 9.04542C0.540283 11.2464 1.41462 13.3572 2.97096 14.9136C4.52729 16.4699 6.63813 17.3442 8.83912 17.3442C11.0401 17.3442 13.1509 16.4699 14.7073 14.9136C16.2636 13.3572 17.1379 11.2464 17.1379 9.04542C17.1379 6.84443 16.2636 4.73359 14.7073 3.17725C13.1509 1.62092 11.0401 0.746582 8.83912 0.746582ZM12.0296 11.7656C12.0296 13.1211 11.2919 14.8085 8.28586 16.0994C8.56249 12.2543 5.96219 12.6969 5.33516 11.489C5.39227 10.9892 5.57424 10.5119 5.8643 10.101C6.15436 9.69008 6.54318 9.35878 6.99493 9.13762C5.56415 8.89172 4.22978 8.25327 3.14058 7.29344C3.18669 7.72682 3.39785 8.12701 3.73072 8.40917C3.01012 8.13634 2.38728 7.65477 1.94186 7.02603C2.38149 5.57503 3.26075 4.29629 4.45823 3.36639C5.65572 2.43648 7.11236 1.90127 8.62704 1.83465C7.85248 3.10714 7.2439 5.64289 8.62704 6.97071C7.20701 7.20123 6.31258 5.35704 5.5288 6.0855C4.48684 7.06292 5.83309 8.39995 8.68236 8.92554C11.716 9.46958 12.0572 10.3824 12.0296 11.7656ZM13.2652 8.07722C12.9701 7.05369 13.8369 6.02095 14.8235 5.18185C15.4397 6.07002 15.8319 7.09404 15.9668 8.16657C16.1016 9.23911 15.9751 10.3283 15.5981 11.3414C14.888 9.59867 13.5971 9.20217 13.2652 8.04956V8.07722Z" fill="black"/>
</svg>
