<svg width="19" height="19" viewBox="0 0 19 19" fill="none" xmlns="http://www.w3.org/2000/svg">
<g clip-path="url(#clip0_124_682)">
<path d="M9.22073 6.78532L3.34772 3.794C3.31565 3.77757 3.28874 3.75261 3.26995 3.72187C3.25115 3.69112 3.24121 3.65579 3.24121 3.61976C3.24121 3.58373 3.25115 3.5484 3.26995 3.51766C3.28874 3.48692 3.31565 3.46196 3.34772 3.44553L9.22073 0.434631C9.27639 0.405797 9.33816 0.390747 9.40084 0.390747C9.46352 0.390747 9.52529 0.405797 9.58094 0.434631L15.454 3.44553C15.486 3.46196 15.5129 3.48692 15.5317 3.51766C15.5505 3.5484 15.5605 3.58373 15.5605 3.61976C15.5605 3.65579 15.5505 3.69112 15.5317 3.72187C15.5129 3.75261 15.486 3.77757 15.454 3.794L9.58094 6.78532C9.52529 6.81415 9.46352 6.8292 9.40084 6.8292C9.33816 6.8292 9.27639 6.81415 9.22073 6.78532Z" fill="#656769" stroke="#45413C" stroke-width="0.293651" stroke-linecap="round" stroke-linejoin="round"/>
<path d="M3.25391 3.6178V6.7305" stroke="#45413C" stroke-width="0.293651" stroke-linecap="round" stroke-linejoin="round"/>
<path d="M3.62992 6.72656C3.63369 6.67289 3.62635 6.61901 3.60837 6.5683C3.59039 6.51758 3.56214 6.47112 3.5254 6.43181C3.48866 6.3925 3.44421 6.36118 3.39483 6.33981C3.34545 6.31845 3.29219 6.30749 3.23839 6.30762C3.18458 6.30749 3.13132 6.31845 3.08194 6.33981C3.03256 6.36118 2.98811 6.3925 2.95137 6.43181C2.91463 6.47112 2.88639 6.51758 2.86841 6.5683C2.85042 6.61901 2.84309 6.67289 2.84685 6.72656L2.77246 8.17132H3.70431L3.62992 6.72656Z" fill="#FFE500" stroke="#45413C" stroke-width="0.293651" stroke-linecap="round" stroke-linejoin="round"/>
<path d="M9.39661 5.79858C7.43894 5.79858 5.61831 6.19012 5.13672 6.73044V12.2863C5.1373 12.3822 5.16624 12.4757 5.21989 12.5551C5.27354 12.6346 5.3495 12.6963 5.4382 12.7327C7.97832 13.754 10.8149 13.754 13.355 12.7327C13.4437 12.6963 13.5197 12.6346 13.5733 12.5551C13.627 12.4757 13.6559 12.3822 13.6565 12.2863V6.73044C13.1749 6.2097 11.3543 5.79858 9.39661 5.79858Z" fill="#724F3D" stroke="#45413C" stroke-width="0.293651" stroke-linecap="round" stroke-linejoin="round"/>
<path d="M12.3487 13.3475L9.39655 12.2238L6.44439 13.3475C5.94379 13.5385 5.51296 13.8769 5.20885 14.3181C4.90474 14.7592 4.74167 15.2822 4.74121 15.818V17.6191H14.0519V15.818C14.0514 15.2822 13.8884 14.7592 13.5843 14.3181C13.2802 13.8769 12.8493 13.5385 12.3487 13.3475Z" fill="#656769"/>
<path d="M12.3487 13.3475L9.39655 12.2238L6.44439 13.3475C5.94379 13.5385 5.51296 13.8769 5.20885 14.3181C4.90474 14.7592 4.74167 15.2822 4.74121 15.818V16.9926C4.74167 16.4568 4.90474 15.9338 5.20885 15.4927C5.51296 15.0515 5.94379 14.7131 6.44439 14.5221L9.39655 13.3944L12.3487 14.5181C12.8493 14.7092 13.2802 15.0476 13.5843 15.4887C13.8884 15.9299 14.0514 16.4529 14.0519 16.9887V15.8141C14.0506 15.279 13.8872 14.7568 13.5832 14.3164C13.2791 13.8761 12.8487 13.5382 12.3487 13.3475Z" fill="#525252"/>
<path d="M12.3487 13.3475L9.39655 12.2238L6.44439 13.3475C5.94379 13.5385 5.51296 13.8769 5.20885 14.3181C4.90474 14.7592 4.74167 15.2822 4.74121 15.818V17.6191H14.0519V15.818C14.0514 15.2822 13.8884 14.7592 13.5843 14.3181C13.2802 13.8769 12.8493 13.5385 12.3487 13.3475Z" stroke="#45413C" stroke-width="0.293651" stroke-linecap="round" stroke-linejoin="round"/>
<path d="M9.39685 13.7467C9.39685 13.7467 8.40235 13.3121 8.40235 12.7522V11.6364C8.40184 11.5054 8.42718 11.3757 8.47693 11.2546C8.52667 11.1335 8.59985 11.0234 8.69225 10.9306C8.78464 10.8378 8.89445 10.7642 9.01537 10.714C9.13628 10.6638 9.26592 10.6379 9.39685 10.6379C9.52778 10.6379 9.65742 10.6638 9.77833 10.714C9.89925 10.7642 10.0091 10.8378 10.1015 10.9306C10.1939 11.0234 10.267 11.1335 10.3168 11.2546C10.3665 11.3757 10.3919 11.5054 10.3913 11.6364V12.7522C10.3913 13.3121 9.39685 13.7467 9.39685 13.7467Z" fill="#FFE500"/>
<path d="M9.39684 10.6379C9.13308 10.6379 8.88013 10.7427 8.69363 10.9292C8.50712 11.1157 8.40234 11.3687 8.40234 11.6324V11.8674C8.40234 12.1311 8.50712 12.3841 8.69363 12.5706C8.88013 12.7571 9.13308 12.8619 9.39684 12.8619C9.6606 12.8619 9.91355 12.7571 10.1001 12.5706C10.2866 12.3841 10.3913 12.1311 10.3913 11.8674V11.6364C10.3919 11.5054 10.3665 11.3757 10.3168 11.2546C10.267 11.1335 10.1938 11.0234 10.1014 10.9306C10.009 10.8378 9.89924 10.7642 9.77833 10.714C9.65741 10.6638 9.52777 10.6379 9.39684 10.6379Z" fill="#EBCB00"/>
<path d="M5.26562 14.2322L6.67906 17.619M13.527 14.2322L12.1136 17.619M8.0416 15.8493L8.32742 17.619M10.751 15.8493L10.4652 17.619M9.39631 13.7467C9.39631 13.7467 8.40182 13.3121 8.40182 12.7522V11.6364C8.4013 11.5054 8.42664 11.3757 8.47639 11.2546C8.52614 11.1335 8.59931 11.0234 8.69171 10.9306C8.78411 10.8378 8.89392 10.7642 9.01483 10.714C9.13574 10.6638 9.26538 10.6379 9.39631 10.6379C9.52724 10.6379 9.65688 10.6638 9.7778 10.714C9.89871 10.7642 10.0085 10.8378 10.1009 10.9306C10.1933 11.0234 10.2665 11.1335 10.3162 11.2546C10.366 11.3757 10.3913 11.5054 10.3908 11.6364V12.7522C10.3908 13.3121 9.39631 13.7467 9.39631 13.7467Z" stroke="#45413C" stroke-width="0.293651" stroke-linecap="round" stroke-linejoin="round"/>
<path opacity="0.15" d="M3.52344 17.8148C3.52344 17.9706 4.1422 18.12 5.2436 18.2301C6.34501 18.3403 7.83883 18.4021 9.39645 18.4021C10.9541 18.4021 12.4479 18.3403 13.5493 18.2301C14.6507 18.12 15.2695 17.9706 15.2695 17.8148C15.2695 17.6591 14.6507 17.5097 13.5493 17.3996C12.4479 17.2894 10.9541 17.2275 9.39645 17.2275C7.83883 17.2275 6.34501 17.2894 5.2436 17.3996C4.1422 17.5097 3.52344 17.6591 3.52344 17.8148Z" fill="#45413C"/>
<path d="M12.9478 7.62319C12.4545 7.48361 11.9987 7.23532 11.6139 6.89656C11.229 6.5578 10.9249 6.13716 10.7239 5.66552L10.4812 5.08997C9.53724 6.36229 8.14428 7.22747 6.58539 7.50965L5.8493 7.64277C5.66135 7.64277 5.48109 7.71743 5.34819 7.85034C5.21529 7.98324 5.14063 8.16349 5.14062 8.35145C5.14063 8.5394 5.21529 8.71965 5.34819 8.85256C5.48109 8.98546 5.66135 9.06012 5.8493 9.06012H5.89237C5.98399 9.92564 6.39267 10.7266 7.03968 11.3088C7.68669 11.8909 8.52625 12.213 9.3966 12.213C10.267 12.213 11.1065 11.8909 11.7535 11.3088C12.4005 10.7266 12.8092 9.92564 12.9008 9.06012H12.9478C13.1358 9.06012 13.316 8.98546 13.4489 8.85256C13.5818 8.71965 13.6565 8.5394 13.6565 8.35145C13.6565 8.16349 13.5818 7.98324 13.4489 7.85034C13.316 7.71743 13.1358 7.64277 12.9478 7.64277V7.62319Z" fill="#FFE500" stroke="#45413C" stroke-width="0.293651" stroke-linecap="round" stroke-linejoin="round"/>
<path d="M7.27053 8.18701C7.27053 8.24663 7.28822 8.30492 7.32134 8.3545C7.35447 8.40408 7.40156 8.44272 7.45664 8.46554C7.51173 8.48836 7.57235 8.49433 7.63083 8.48269C7.68931 8.47106 7.74303 8.44235 7.7852 8.40019C7.82736 8.35802 7.85607 8.3043 7.8677 8.24582C7.87934 8.18734 7.87337 8.12672 7.85055 8.07163C7.82773 8.01655 7.78909 7.96946 7.73951 7.93633C7.68993 7.90321 7.63164 7.88552 7.57202 7.88552C7.53228 7.885 7.49284 7.89244 7.45602 7.9074C7.41921 7.92237 7.38576 7.94455 7.35766 7.97265C7.32956 8.00075 7.30737 8.0342 7.29241 8.07101C7.27745 8.10783 7.27001 8.14727 7.27053 8.18701ZM11.5226 8.18701C11.5226 8.24663 11.5049 8.30492 11.4718 8.3545C11.4387 8.40408 11.3916 8.44272 11.3365 8.46554C11.2814 8.48836 11.2208 8.49433 11.1623 8.48269C11.1038 8.47106 11.0501 8.44235 11.0079 8.40019C10.9658 8.35802 10.9371 8.3043 10.9254 8.24582C10.9138 8.18734 10.9198 8.12672 10.9426 8.07163C10.9654 8.01655 11.004 7.96946 11.0536 7.93633C11.1032 7.90321 11.1615 7.88552 11.2211 7.88552C11.2609 7.885 11.3003 7.89244 11.3371 7.9074C11.3739 7.92237 11.4074 7.94455 11.4355 7.97265C11.4636 8.00075 11.4858 8.0342 11.5007 8.07101C11.5157 8.10783 11.5231 8.14727 11.5226 8.18701Z" fill="#45413C" stroke="#45413C" stroke-width="0.293651" stroke-linecap="round" stroke-linejoin="round"/>
<path d="M8.28499 10.0233C8.26021 10.0239 8.23584 10.0297 8.21354 10.0405C8.19125 10.0513 8.17154 10.0668 8.15578 10.086C8.13939 10.1044 8.12736 10.1263 8.12058 10.15C8.11381 10.1737 8.11245 10.1987 8.11663 10.223C8.16949 10.5242 8.32684 10.7971 8.56101 10.9937C8.79517 11.1903 9.09116 11.2981 9.39694 11.2981C9.70272 11.2981 9.99871 11.1903 10.2329 10.9937C10.467 10.7971 10.6244 10.5242 10.6773 10.223C10.6814 10.1987 10.6801 10.1737 10.6733 10.15C10.6665 10.1263 10.6545 10.1044 10.6381 10.086C10.6227 10.0664 10.6031 10.0506 10.5807 10.0398C10.5583 10.0289 10.5338 10.0233 10.5089 10.0233H8.28499Z" fill="#FF6242"/>
<path d="M9.39682 10.5714C9.04332 10.5576 8.69556 10.6638 8.41016 10.8729C8.53353 11.0103 8.68445 11.1201 8.8531 11.1954C9.02174 11.2706 9.20433 11.3095 9.38899 11.3095C9.57365 11.3095 9.75624 11.2706 9.92489 11.1954C10.0935 11.1201 10.2445 11.0103 10.3678 10.8729C10.0867 10.6672 9.74501 10.5611 9.39682 10.5714Z" fill="#FFA694"/>
<path d="M8.28499 10.0233C8.26021 10.0239 8.23584 10.0297 8.21354 10.0405C8.19125 10.0513 8.17154 10.0668 8.15578 10.086C8.13939 10.1044 8.12736 10.1263 8.12058 10.15C8.11381 10.1737 8.11245 10.1987 8.11663 10.223C8.16949 10.5242 8.32684 10.7971 8.56101 10.9937C8.79517 11.1903 9.09116 11.2981 9.39694 11.2981C9.70272 11.2981 9.99871 11.1903 10.2329 10.9937C10.467 10.7971 10.6244 10.5242 10.6773 10.223C10.6814 10.1987 10.6801 10.1737 10.6733 10.15C10.6665 10.1263 10.6545 10.1044 10.6381 10.086C10.6227 10.0664 10.6031 10.0506 10.5807 10.0398C10.5583 10.0289 10.5338 10.0233 10.5089 10.0233H8.28499Z" stroke="#45413C" stroke-width="0.293651" stroke-linecap="round" stroke-linejoin="round"/>
<path d="M6.67969 9.47125C6.67969 9.53355 6.72094 9.59331 6.79437 9.63736C6.86779 9.68142 6.96738 9.70617 7.07122 9.70617C7.17506 9.70617 7.27465 9.68142 7.34808 9.63736C7.42151 9.59331 7.46276 9.53355 7.46276 9.47125C7.46276 9.40894 7.42151 9.34919 7.34808 9.30513C7.27465 9.26108 7.17506 9.23633 7.07122 9.23633C6.96738 9.23633 6.86779 9.26108 6.79437 9.30513C6.72094 9.34919 6.67969 9.40894 6.67969 9.47125ZM11.3311 9.47125C11.3311 9.53355 11.3724 9.59331 11.4458 9.63736C11.5192 9.68142 11.6188 9.70617 11.7227 9.70617C11.8265 9.70617 11.9261 9.68142 11.9995 9.63736C12.0729 9.59331 12.1142 9.53355 12.1142 9.47125C12.1142 9.40894 12.0729 9.34919 11.9995 9.30513C11.9261 9.26108 11.8265 9.23633 11.7227 9.23633C11.6188 9.23633 11.5192 9.26108 11.4458 9.30513C11.3724 9.34919 11.3311 9.40894 11.3311 9.47125Z" fill="#FFAA54"/>
<path d="M13.2532 3.52385C13.1475 3.01877 11.6401 2.66248 9.39659 2.66248C7.15309 2.66248 5.64569 3.01877 5.53997 3.52385C5.35115 4.58087 5.22044 5.64744 5.14844 6.71877C5.61828 6.20978 7.43891 5.79867 9.39659 5.79867C11.3543 5.79867 13.1749 6.1902 13.6565 6.73052C13.581 5.65504 13.4464 4.58453 13.2532 3.52385Z" fill="#656769"/>
<path d="M9.39697 3.72745C10.7542 3.71057 12.1045 3.92371 13.3906 4.35782L13.2536 3.52385C13.1479 3.01877 11.6405 2.66248 9.39697 2.66248C7.15348 2.66248 5.64607 3.01877 5.54036 3.52385C5.54036 3.52385 5.47771 3.8684 5.40332 4.34607C6.69008 3.91596 8.04038 3.70679 9.39697 3.72745Z" fill="#525252"/>
<path d="M13.2532 3.52385C13.1475 3.01877 11.6401 2.66248 9.39659 2.66248C7.15309 2.66248 5.64569 3.01877 5.53997 3.52385C5.35115 4.58087 5.22044 5.64744 5.14844 6.71877C5.61828 6.20978 7.43891 5.79867 9.39659 5.79867C11.3543 5.79867 13.1749 6.1902 13.6565 6.73052C13.581 5.65504 13.4464 4.58453 13.2532 3.52385Z" stroke="#45413C" stroke-width="0.293651" stroke-linecap="round" stroke-linejoin="round"/>
</g>
<defs>
<clipPath id="clip0_124_682">
<rect width="18.7937" height="18.7937" fill="white"/>
</clipPath>
</defs>
</svg>
