<svg width="20" height="16" viewBox="0 0 20 16" fill="none" xmlns="http://www.w3.org/2000/svg">
<path fill-rule="evenodd" clip-rule="evenodd" d="M9.84446 0.668701C10.6329 0.668701 11.4415 0.688987 12.2253 0.722183L13.1511 0.766443L14.0372 0.819002L14.8671 0.87525L15.6251 0.934264C16.4477 0.996866 17.2219 1.34776 17.8113 1.92515C18.4007 2.50253 18.7674 3.26937 18.8469 4.09059L18.8837 4.48248L18.9529 5.32158C19.0174 6.19111 19.0654 7.13902 19.0654 8.04544C19.0654 8.95186 19.0174 9.89977 18.9529 10.7693L18.8837 11.6084L18.8469 12.0003C18.7673 12.8217 18.4005 13.5886 17.811 14.166C17.2214 14.7434 16.447 15.0942 15.6241 15.1566L14.868 15.2147L14.0381 15.2719L13.1511 15.3244L12.2253 15.3687C11.4321 15.4031 10.6384 15.4209 9.84446 15.4222C9.05056 15.4209 8.25678 15.4031 7.46362 15.3687L6.53784 15.3244L5.65171 15.2719L4.82182 15.2147L4.06386 15.1566C3.24118 15.094 2.46698 14.7431 1.87762 14.1657C1.28826 13.5884 0.921547 12.8215 0.842071 12.0003L0.805187 11.6084L0.73603 10.7693C0.665797 9.863 0.628274 8.95445 0.623535 8.04544C0.623535 7.13902 0.671484 6.19111 0.73603 5.32158L0.805187 4.48248L0.842071 4.09059C0.921516 3.26951 1.2881 2.50279 1.87727 1.92543C2.46644 1.34806 3.24043 0.997073 4.06294 0.934264L4.81998 0.87525L5.64986 0.819002L6.53692 0.766443L7.4627 0.722183C8.25616 0.687814 9.05025 0.669982 9.84446 0.668701ZM8.00028 5.80937V10.2815C8.00028 10.7075 8.46132 10.9731 8.83016 10.761L12.7029 8.52493C12.7872 8.47642 12.8572 8.40656 12.9059 8.32238C12.9546 8.2382 12.9802 8.14268 12.9802 8.04544C12.9802 7.9482 12.9546 7.85268 12.9059 7.76851C12.8572 7.68433 12.7872 7.61446 12.7029 7.56595L8.83016 5.3308C8.74603 5.28223 8.65059 5.25666 8.55344 5.25668C8.4563 5.25669 8.36087 5.28229 8.27675 5.33089C8.19263 5.37949 8.1228 5.44938 8.07427 5.53354C8.02573 5.61769 8.00021 5.71314 8.00028 5.81029V5.80937Z" fill="black"/>
</svg>
